<svg width="12" height="6" viewBox="0 0 12 6" fill="none" xmlns="http://www.w3.org/2000/svg">
<g clip-path="url(#clip0_2083_24443)">
<path d="M5.99542 5.99225C5.88776 5.99225 5.78842 5.97467 5.69742 5.9395C5.60642 5.90417 5.51726 5.84292 5.42992 5.75575L1.04167 1.36725C0.948007 1.27375 0.898007 1.159 0.891674 1.023C0.885174 0.887166 0.935174 0.766082 1.04167 0.659749C1.14801 0.553249 1.26592 0.5 1.39542 0.5C1.52492 0.5 1.64284 0.553249 1.74917 0.659749L5.99542 4.90575L10.2417 0.659749C10.3352 0.566082 10.4499 0.516082 10.5859 0.509749C10.7218 0.503249 10.8428 0.553249 10.9492 0.659749C11.0557 0.766082 11.1089 0.883999 11.1089 1.0135C11.1089 1.143 11.0557 1.26092 10.9492 1.36725L6.56092 5.75575C6.47359 5.84292 6.38442 5.90417 6.29342 5.9395C6.20242 5.97467 6.10309 5.99225 5.99542 5.99225Z" fill="white"/>
</g>
<defs>
<clipPath id="clip0_2083_24443">
<rect width="10.2178" height="5.49225" fill="white" transform="translate(0.891113 0.5)"/>
</clipPath>
</defs>
</svg>
