<svg width="3828" height="2720" viewBox="0 0 3828 2720" fill="none" xmlns="http://www.w3.org/2000/svg">
<g clip-path="url(#clip0_478_10521)">
<path opacity="0.3" d="M1914 2719.2C2971.07 2719.2 3828 2529.59 3828 2295.7C3828 2061.81 2971.07 1872.2 1914 1872.2C856.927 1872.2 0 2061.81 0 2295.7C0 2529.59 856.927 2719.2 1914 2719.2Z" fill="#7F451D"/>
<path d="M2574 662.2C2696.1 1206.7 2678.5 1647.8 2840.2 2182.4C2857.8 2240.7 2874.3 2306.7 2844.6 2360.6C2828.1 2390.3 2800.6 2410.1 2770.9 2425.5C2691.7 2466.2 2599.3 2472.8 2510.2 2470.6C2362.8 2466.2 2217.6 2438.7 2073.5 2409C1666.5 2326.5 1261.7 2231.9 860.199 2124.1C841.499 2118.6 821.699 2113.1 808.499 2098.8C788.699 2076.8 793.099 2043.8 799.699 2015.2C828.299 1895.3 894.299 1787.5 943.799 1674.2C1010.9 1520.2 1048.3 1354.1 1091.2 1191.3C1130.8 1041.7 1175.9 893.2 1226.5 746.9C1257.3 657.8 1281.5 477.4 1391.5 458.7C1456.4 447.7 1551 479.6 1615.9 488.4C1680.8 497.2 1775.4 511.5 1854.6 522.5C1933.8 533.5 2567.4 636.9 2572.9 662.2H2574Z" fill="#978475"/>
<path d="M1302.4 996.6C1332.1 1034 1387.1 1050.5 1432.2 1032.9C1439.9 1029.6 1447.6 1025.2 1454.2 1019.7C1461.9 1010.9 1466.3 999.9 1469.6 988.9C1497.1 894.3 1420.1 676.5 1298 716.1C1005.4 810.7 789.8 1103.3 785.4 1411.3C785.4 1477.3 793.1 1544.4 822.8 1602.7C874.5 1702.8 984.5 1763.3 1096.7 1776.5C1208.9 1789.7 1321.1 1760 1424.5 1716C1483.9 1690.7 1543.3 1659.9 1588.4 1614.8C1676.4 1525.7 1700.6 1398.1 1756.7 1290.3C1777.6 1250.7 1969 1004.3 1995.4 1162.7C2002 1200.1 1960.2 1234.2 1966.8 1271.6C1970.1 1291.4 1986.6 1306.8 2004.2 1314.5C2046 1334.3 2101 1320 2128.5 1282.6C2161.5 1237.5 2135.1 1122 2098.8 1082.4C2027.3 1006.5 1938.2 1054.9 1868.9 1101.1C1754.5 1177 1692.9 1321.1 1637.9 1464.1C1582.9 1607.1 1459.7 1669.8 1340.9 1706.1C1222.1 1742.4 996.6 1739.1 878.9 1607.1C850.3 1575.2 829.4 1403.6 834.9 1354.1C850.3 1225.4 948.2 1065.9 977.9 1013.1C996.6 980.1 1296.9 690.8 1321.1 839.3C1328.8 888.8 1259.5 927.3 1293.6 984.5C1295.8 988.9 1299.1 992.2 1301.3 996.6H1302.4Z" fill="#736357"/>
<path d="M1399.2 623.7C1729.2 668.8 2054.8 765.6 2349.6 920.7C2358.4 925.1 2368.3 930.6 2379.3 929.5C2401.3 927.3 2411.2 900.9 2417.8 880C2432.1 834.9 2457.4 794.2 2490.4 761.2C2501.4 750.2 2514.6 739.2 2521.2 724.9C2527.8 710.6 2527.8 690.8 2515.7 680.9C2509.1 675.4 2500.3 673.2 2491.5 672.1C2379.3 651.2 2267.1 630.3 2154.9 609.4C2106.5 600.6 2058.1 591.8 2009.7 583C1883.2 559.9 1756.7 537.9 1630.2 517C1567.5 506 1504.8 493.9 1441 486.2C1403.6 481.8 1372.8 482.9 1348.6 515.9C1309 572 1277.1 607.2 1399.2 624.8V623.7Z" fill="#867669"/>
<path d="M2459.6 2339.7C2459.6 2354 2459.6 2369.4 2468.4 2381.5C2481.6 2402.4 2510.2 2406.8 2534.4 2406.8C2638.9 2406.8 2743.4 2365 2819.3 2293.5C2825.9 2286.9 2833.6 2279.2 2835.8 2270.4C2838 2260.5 2835.8 2250.6 2832.5 2241.8C2786.3 2092.2 2733.5 1938.2 2706 1784.2C2662 1542.2 2640 1421.2 2618 1234.2C2600.4 1089 2582.8 907.5 2574 761.2C2541 805.2 2498.1 812.9 2486 838.2C2468.4 875.6 2458.5 932.8 2428.8 961.4C2393.6 994.4 2405.7 1021.9 2409 1070.3C2416.7 1173.7 2422.2 1277.1 2427.7 1380.5C2438.7 1585.1 2445.3 1788.6 2450.8 1993.2C2454.1 2108.7 2457.4 2225.3 2460.7 2340.8L2459.6 2339.7Z" fill="#A28E80"/>
<path d="M1650 772.2C1650 772.2 1653.3 772.2 1657.7 773.3C1688.5 778.8 1801.8 798.6 1859 827.2L1848 860.2C1848 860.2 1694 816.2 1650 816.2V772.2Z" fill="#867669"/>
<path d="M1393.7 623.7C1393.7 623.7 1386 56.1001 1386 23.1001C1386 -9.89991 1419 1.10009 1452 1.10009C1485 1.10009 2431 155.1 2453 155.1C2475 155.1 2475 166.1 2475 188.1C2475 210.1 2361.7 931.7 2361.7 931.7C2361.7 931.7 1903 683.1 1392.6 623.7H1393.7Z" fill="#2B5382"/>
<path d="M2340.8 921.8L2442 189.2L2013 101.2L1958 728.2L2340.8 921.8Z" fill="#F0F0F0"/>
<path d="M1386 623.7C1386 623.7 1378.3 56.1001 1378.3 23.1001C1378.3 -9.89991 1411.3 1.10009 1444.3 1.10009C1477.3 1.10009 2160.4 79.2001 2340.8 105.6C2344.1 105.6 2365 105.6 2363.9 133.1C2359.5 294.8 2330.9 727.1 2314.4 910.8C2193.4 850.3 1806.2 672.1 1384.9 622.6L1386 623.7Z" fill="#55A1BF"/>
<path opacity="0.4" d="M2503.6 382.8L2354 365.2L2358.4 280.5L2512.4 295.9L2503.6 382.8Z" fill="#DD517F"/>
<path opacity="0.4" d="M2500.3 426.8L2350.7 409.2L2356.2 324.5L2519 343.2L2500.3 426.8Z" fill="#923556"/>
<path d="M1485 228.8L1477.3 255.2L1455.3 253L1492.7 137.5L1520.2 140.8L1531.2 260.7L1509.2 258.5L1507 231L1486.1 228.8H1485ZM1505.9 213.4V188.1C1503.7 180.4 1503.7 169.4 1503.7 160.6C1501.5 168.3 1498.2 180.4 1497.1 187L1490.5 211.2L1507 213.4H1505.9Z" fill="white"/>
<path d="M1547.7 203.5C1547.7 193.6 1548.8 184.8 1549.9 176L1569.7 178.2V188.1C1574.1 181.5 1580.7 178.2 1588.4 178.2C1607.1 180.4 1612.6 201.3 1610.4 225.5C1607.1 256.3 1592.8 268.4 1578.5 267.3C1571.9 267.3 1567.5 261.8 1565.3 257.4L1560.9 298.1L1537.8 295.9L1547.7 203.5ZM1567.5 233.2C1567.5 236.5 1567.5 238.7 1567.5 240.9C1568.6 246.4 1571.9 247.5 1574.1 248.6C1581.8 248.6 1586.2 237.6 1587.3 224.4C1589.5 207.9 1586.2 199.1 1579.6 198C1576.3 198 1573 200.2 1570.8 204.6C1570.8 206.8 1569.7 209 1568.6 210.1L1566.4 233.2H1567.5Z" fill="white"/>
<path d="M1624.7 211.2C1624.7 201.3 1625.8 192.5 1626.9 183.7L1646.7 185.9V195.8C1651.1 189.2 1657.7 185.9 1665.4 185.9C1684.1 188.1 1689.6 209 1687.4 233.2C1684.1 264 1669.8 276.1 1655.5 275C1648.9 275 1644.5 269.5 1642.3 265.1L1637.9 305.8L1614.8 303.6L1624.7 211.2ZM1645.6 240.9C1645.6 244.2 1645.6 246.4 1645.6 248.6C1646.7 254.1 1650 255.2 1652.2 256.3C1659.9 256.3 1664.3 245.3 1665.4 232.1C1667.6 215.6 1664.3 206.8 1657.7 205.7C1654.4 205.7 1651.1 207.9 1648.9 212.3C1648.9 214.5 1647.8 216.7 1646.7 217.8L1644.5 240.9H1645.6Z" fill="white"/>
<path d="M1763.3 242C1760 277.2 1739.1 284.9 1725.9 282.7C1705 280.5 1695.1 262.9 1698.4 235.4C1701.7 204.6 1719.3 192.5 1735.8 194.7C1755.6 196.9 1766.6 214.5 1763.3 242ZM1721.5 237.6C1720.4 251.9 1721.5 265.1 1729.2 266.2C1736.9 266.2 1740.2 253 1741.3 239.8C1742.4 227.7 1741.3 213.4 1734.7 212.3C1725.9 212.3 1722.6 226.6 1721.5 237.6Z" fill="white"/>
<path d="M1772.1 286L1780.9 200.2L1804 202.4L1795.2 288.2L1772.1 286ZM1806.2 180.4C1806.2 188.1 1799.6 192.5 1793 191.4C1786.4 191.4 1782 184.8 1783.1 178.2C1783.1 170.5 1789.7 166.1 1796.3 167.2C1802.9 167.2 1807.3 172.7 1806.2 180.4Z" fill="white"/>
<path d="M1817.2 229.9C1817.2 220 1818.3 212.3 1819.4 204.6L1839.2 206.8V216.7C1844.7 210.1 1852.4 206.8 1861.2 207.9C1877.7 210.1 1882.1 223.3 1881 242L1875.5 297L1852.4 294.8L1857.9 240.9C1857.9 233.2 1857.9 226.6 1851.3 225.5C1848 225.5 1843.6 227.7 1842.5 232.1C1842.5 234.3 1840.3 236.5 1840.3 239.8L1834.8 291.5L1811.7 289.3L1818.3 229.9H1817.2Z" fill="white"/>
<path d="M1929.4 192.5L1927.2 215.6L1943.7 217.8L1941.5 234.3L1925 232.1L1920.6 271.7C1920.6 281.6 1923.9 284.9 1928.3 284.9C1930.5 284.9 1932.7 284.9 1933.8 284.9L1931.6 302.5C1928.3 302.5 1923.9 302.5 1917.3 302.5C1910.7 302.5 1905.2 299.2 1901.9 295.9C1897.5 290.4 1895.3 283.8 1897.5 270.6L1901.9 229.9H1892L1894.2 212.3H1904.1L1906.3 195.8L1929.4 192.5Z" fill="white"/>
<path d="M1951.4 244.2C1951.4 234.3 1952.5 226.6 1953.6 218.9L1973.4 221.1V231C1978.9 225.5 1986.6 221.1 1995.4 222.2C2005.3 222.2 2010.8 227.7 2013 235.4C2015.2 232.1 2018.5 229.9 2022.9 227.7C2026.2 226.6 2030.6 225.5 2035 225.5C2050.4 226.6 2055.9 239.8 2053.7 260.7L2048.2 314.6L2025.1 312.4L2030.6 261.8C2030.6 251.9 2030.6 244.2 2024 243.1C2019.6 243.1 2016.3 245.3 2014.1 249.7C2014.1 250.8 2014.1 253 2013 255.2L2007.5 309.1L1984.4 306.9L1989.9 253C1989.9 246.4 1989.9 238.7 1983.3 237.6C1980 237.6 1975.6 239.8 1974.5 244.2C1974.5 245.3 1973.4 248.6 1973.4 250.8L1967.9 304.7L1944.8 302.5L1951.4 243.1V244.2Z" fill="white"/>
<path d="M2085.6 283.8C2085.6 297 2092.2 302.5 2102.1 303.6C2108.7 303.6 2114.2 303.6 2118.6 302.5V319C2114.2 321.2 2104.3 321.2 2096.6 320.1C2073.5 317.9 2062.5 301.4 2064.7 273.9C2068 245.3 2084.5 229.9 2103.2 231C2121.9 233.2 2130.7 248.6 2127.4 273.9C2127.4 280.5 2126.3 283.8 2125.2 286L2084.5 281.6L2085.6 283.8ZM2107.6 269.5C2108.7 258.5 2107.6 249.7 2099.9 248.6C2092.2 248.6 2087.8 258.5 2087.8 267.3L2107.6 269.5Z" fill="white"/>
<path d="M2142.8 264C2142.8 254.1 2143.9 246.4 2145 238.7L2164.8 240.9V250.8C2170.3 244.2 2178 240.9 2186.8 242C2203.3 244.2 2207.7 257.4 2206.6 276.1L2201.1 331.1L2178 328.9L2183.5 275C2183.5 267.3 2183.5 260.7 2176.9 259.6C2173.6 259.6 2169.2 261.8 2168.1 266.2C2168.1 268.4 2165.9 270.6 2165.9 273.9L2160.4 325.6L2137.3 323.4L2143.9 264H2142.8Z" fill="white"/>
<path d="M2253.9 225.5L2251.7 248.6L2268.2 250.8L2266 267.3L2249.5 265.1L2245.1 304.7C2245.1 314.6 2248.4 317.9 2252.8 317.9C2255 317.9 2257.2 317.9 2258.3 317.9L2256.1 335.5C2252.8 335.5 2248.4 335.5 2241.8 335.5C2235.2 335.5 2229.7 332.2 2226.4 328.9C2222 323.4 2219.8 316.8 2222 303.6L2226.4 262.9H2216.5L2218.7 245.3H2228.6L2230.8 228.8L2253.9 225.5Z" fill="white"/>
<path d="M1709.4 338.8C1716 338.8 1725.9 338.8 1735.8 338.8C1746.8 339.9 1757.8 342.1 1764.4 349.8C1769.9 355.3 1772.1 364.1 1771 371.8C1771 382.8 1763.3 391.6 1751.2 396C1764.4 401.5 1771 413.6 1768.8 426.8C1768.8 436.7 1764.4 443.3 1757.8 448.8C1750.1 455.4 1738 458.7 1718.2 456.5C1709.4 456.5 1701.7 454.3 1697.3 453.2L1709.4 337.7V338.8ZM1721.5 440C1722.6 440 1724.8 440 1727 440C1735.8 440 1744.6 435.6 1745.7 424.6C1746.8 412.5 1739.1 405.9 1730.3 404.8H1725.9L1722.6 440H1721.5ZM1727 388.3H1731.4C1739.1 389.4 1746.8 382.8 1747.9 374C1747.9 365.2 1745.7 358.6 1735.8 357.5C1733.6 357.5 1731.4 357.5 1730.3 357.5L1727 388.3Z" fill="white"/>
<path d="M1845.8 426.8C1842.5 462 1821.6 469.7 1808.4 467.5C1787.5 465.3 1777.6 447.7 1780.9 420.2C1784.2 389.4 1801.8 377.3 1818.3 379.5C1838.1 381.7 1849.1 399.3 1845.8 426.8ZM1802.9 422.4C1801.8 436.7 1802.9 449.9 1810.6 449.9C1818.3 449.9 1821.6 436.7 1822.7 423.5C1823.8 411.4 1822.7 397.1 1816.1 396C1807.3 396 1804 410.3 1802.9 421.3V422.4Z" fill="white"/>
<path d="M1920.6 434.5C1917.3 469.7 1896.4 477.4 1883.2 475.2C1862.3 473 1852.4 455.4 1855.7 427.9C1859 397.1 1876.6 385 1893.1 387.2C1912.9 389.4 1923.9 407 1920.6 434.5ZM1877.7 430.1C1876.6 444.4 1877.7 457.6 1885.4 457.6C1893.1 457.6 1896.4 444.4 1897.5 431.2C1898.6 419.1 1897.5 404.8 1890.9 403.7C1882.1 403.7 1878.8 418 1877.7 429V430.1Z" fill="white"/>
<path d="M1956.9 433.4C1959.1 429 1960.2 425.7 1962.4 422.4L1975.6 398.2L1999.8 400.4L1975.6 434.5L1992.1 486.2L1966.8 484L1958 447.7L1953.6 454.3L1950.3 481.8L1927.2 479.6L1939.3 358.6L1962.4 360.8L1954.7 433.4H1956.9Z" fill="white"/>
</g>
<defs>
<clipPath id="clip0_478_10521">
<rect width="3828" height="2719.2" fill="white"/>
</clipPath>
</defs>
</svg>
