<svg width="3036" height="9212" viewBox="0 0 3036 9212" fill="none" xmlns="http://www.w3.org/2000/svg">
<g clip-path="url(#clip0_478_18899)">
<path opacity="0.3" d="M1518 9211.4C2356.37 9211.4 3036 9101.58 3036 8966.1C3036 8830.62 2356.37 8720.8 1518 8720.8C679.632 8720.8 0 8830.62 0 8966.1C0 9101.58 679.632 9211.4 1518 9211.4Z" fill="#7F451D"/>
<path d="M779.9 8966.1L779.9 3.30005L583 3.30005L583 8966.1H779.9Z" fill="#D8E3E0"/>
<path d="M2442 -0.000244141H779.9V8963.9H2442V-0.000244141Z" fill="white"/>
<path d="M2302.3 8721.9L2302.3 244.2L919.601 244.2L919.601 8721.9H2302.3Z" fill="#CADBD6"/>
<path d="M2302.3 8720.8L2302.3 243.1H2156L2156 8720.8H2302.3Z" fill="#AFC7C0"/>
<path d="M779.9 4.3999H583V105.6C596.2 121 612.7 147.4 629.2 192.5C677.6 319 704 514.8 715 609.4C733.7 766.7 739.2 907.5 744.7 1051.6C754.6 1289.2 754.6 1476.2 753.5 1530.1C753.5 1602.7 755.7 2756.6 760.1 5065.5C760.1 5295.4 760.1 5231.6 762.3 5729.9C765.6 6617.6 767.8 7702.2 766.7 8966.1H777.7V4.3999H779.9Z" fill="#E2EDE9"/>
<path d="M2244 662.2H924V2774.2H2244V662.2Z" fill="#2B5382"/>
<path d="M974.6 1082.4C982.3 1080.2 993.3 1079.1 1005.4 1079.1C1025.2 1079.1 1038.4 1083.5 1048.3 1093.4C1061.5 1105.5 1068.1 1126.4 1068.1 1156.1C1068.1 1185.8 1060.4 1210 1046.1 1222.1C1036.2 1232 1019.7 1237.5 998.8 1237.5C977.9 1237.5 980.1 1237.5 973.5 1236.4V1083.5L974.6 1082.4ZM1005.4 1212.2C1006.5 1212.2 1008.7 1212.2 1010.9 1212.2C1025.2 1212.2 1038.4 1197.9 1038.4 1155C1038.4 1112.1 1029.6 1103.3 1012 1103.3C994.4 1103.3 1007.6 1103.3 1006.5 1103.3V1211.1L1005.4 1212.2Z" fill="#E78F34"/>
<path d="M1117.6 1093.4C1117.6 1103.3 1111 1109.9 1102.2 1109.9C1093.4 1109.9 1086.8 1103.3 1086.8 1093.4C1086.8 1083.5 1094.5 1076.9 1102.2 1076.9C1109.9 1076.9 1117.6 1083.5 1117.6 1093.4ZM1086.8 1236.4V1123.1H1117.6V1236.4H1086.8Z" fill="#E78F34"/>
<path d="M1189.1 1236.4V1225.4H1186.9C1180.3 1234.2 1171.5 1238.6 1161.6 1238.6C1144 1238.6 1131.9 1224.3 1131.9 1204.5C1131.9 1174.8 1158.3 1162.7 1183.6 1162.7V1160.5C1183.6 1151.7 1178.1 1145.1 1168.2 1145.1C1158.3 1145.1 1151.7 1147.3 1145.1 1151.7L1139.6 1131.9C1146.2 1128.6 1159.4 1123.1 1174.8 1123.1C1208.9 1123.1 1214.4 1147.3 1214.4 1170.4V1212.2C1214.4 1221 1214.4 1230.9 1216.6 1238.6H1189.1V1236.4ZM1184.7 1181.4C1174.8 1181.4 1160.5 1184.7 1160.5 1200.1C1160.5 1215.5 1167.1 1215.5 1171.5 1215.5C1175.9 1215.5 1181.4 1212.2 1183.6 1205.6C1183.6 1204.5 1183.6 1202.3 1183.6 1200.1V1180.3L1184.7 1181.4Z" fill="#E78F34"/>
<path d="M1235.3 1236.4C1235.3 1226.5 1235.3 1213.3 1235.3 1203.4V1076.9H1266.1V1135.2C1271.6 1127.5 1279.3 1122 1289.2 1122C1311.2 1122 1321.1 1146.2 1321.1 1177C1321.1 1207.8 1305.7 1238.6 1284.8 1238.6C1263.9 1238.6 1268.3 1234.2 1262.8 1223.2V1236.4H1235.3ZM1266.1 1195.7C1266.1 1199 1266.1 1201.2 1267.2 1203.4C1269.4 1211.1 1273.8 1213.3 1277.1 1213.3C1287 1213.3 1291.4 1200.1 1291.4 1179.2C1291.4 1158.3 1287 1147.3 1277.1 1147.3C1267.2 1147.3 1268.3 1151.7 1267.2 1157.2C1267.2 1159.4 1266.1 1161.6 1266.1 1163.8V1195.7Z" fill="#E78F34"/>
<path d="M1365.1 1190.2C1365.1 1207.8 1376.1 1214.4 1389.3 1214.4C1402.5 1214.4 1405.8 1212.2 1411.3 1211.1L1415.7 1233.1C1408 1236.4 1395.9 1238.6 1384.9 1238.6C1354.1 1238.6 1337.6 1218.8 1337.6 1182.5C1337.6 1146.2 1357.4 1122 1382.7 1122C1408 1122 1421.2 1140.7 1421.2 1175.9C1421.2 1211.1 1421.2 1188 1421.2 1191.3H1367.3L1365.1 1190.2ZM1391.5 1169.3C1391.5 1155 1388.2 1142.9 1378.3 1142.9C1368.4 1142.9 1364 1157.2 1364 1169.3H1390.4H1391.5Z" fill="#E78F34"/>
<path d="M1471.8 1092.3V1123.1H1493.8V1145.1H1471.8V1196.8C1471.8 1210 1477.3 1213.3 1482.8 1213.3C1488.3 1213.3 1488.3 1213.3 1490.5 1213.3V1236.4C1486.1 1237.5 1480.6 1238.6 1471.8 1238.6C1463 1238.6 1455.3 1236.4 1449.8 1230.9C1443.2 1225.4 1439.9 1216.6 1439.9 1199V1146.2H1426.7V1124.2H1439.9V1101.1L1470.7 1093.4L1471.8 1092.3Z" fill="#E78F34"/>
<path d="M1532.3 1190.2C1532.3 1207.8 1543.3 1214.4 1556.5 1214.4C1569.7 1214.4 1573 1212.2 1578.5 1211.1L1582.9 1233.1C1575.2 1236.4 1563.1 1238.6 1552.1 1238.6C1521.3 1238.6 1504.8 1218.8 1504.8 1182.5C1504.8 1146.2 1524.6 1122 1549.9 1122C1575.2 1122 1588.4 1140.7 1588.4 1175.9C1588.4 1211.1 1588.4 1188 1588.4 1191.3H1534.5L1532.3 1190.2ZM1558.7 1169.3C1558.7 1155 1555.4 1142.9 1545.5 1142.9C1535.6 1142.9 1531.2 1157.2 1531.2 1169.3H1557.6H1558.7Z" fill="#E78F34"/>
<path d="M1602.7 1208.9C1607.1 1212.2 1615.9 1214.4 1622.5 1214.4C1629.1 1214.4 1634.6 1211.1 1634.6 1204.5C1634.6 1197.9 1631.3 1194.6 1621.4 1189.1C1602.7 1179.2 1598.3 1167.1 1598.3 1156.1C1598.3 1136.3 1612.6 1120.9 1635.7 1120.9C1658.8 1120.9 1652.2 1123.1 1658.8 1126.4L1653.3 1148.4C1648.9 1146.2 1643.4 1144 1637.9 1144C1632.4 1144 1626.9 1148.4 1626.9 1153.9C1626.9 1159.4 1629.1 1161.6 1640.1 1168.2C1656.6 1178.1 1663.2 1189.1 1663.2 1202.3C1663.2 1225.4 1646.7 1237.5 1623.6 1237.5C1600.5 1237.5 1602.7 1235.3 1597.2 1230.9L1602.7 1208.9Z" fill="#E78F34"/>
<path d="M2047.1 1883.2C2096.6 1878.8 2149.4 1864.5 2185.7 1828.2C2220.9 1790.8 2227.5 1730.3 2202.2 1686.3C2198.9 1679.7 2194.5 1674.2 2189 1668.7C2167 1645.6 2134 1632.4 2118.6 1603.8C2108.7 1585.1 2108.7 1558.7 2121.9 1543.3C2130.7 1533.4 2137.3 1521.3 2135.1 1507C2131.8 1486.1 2114.2 1467.4 2096.6 1458.6C2070.2 1444.3 2038.3 1441 2008.6 1441C1988.8 1441 1967.9 1436.6 1960.2 1415.7C1955.8 1404.7 1955.8 1392.6 1953.6 1380.5C1950.3 1355.2 1945.9 1331 1939.3 1305.7C1932.7 1277.1 1910.7 1251.8 1888.7 1233.1C1885.4 1230.9 1882.1 1227.6 1878.8 1225.4C1820.5 1186.9 1720.4 1181.4 1665.4 1226.5C1646.7 1241.9 1634.6 1265 1632.4 1289.2C1631.3 1305.7 1626.9 1309 1611.5 1315.6C1584 1327.7 1552.1 1336.5 1531.2 1359.6C1514.7 1377.2 1509.2 1403.6 1513.6 1426.7C1519.1 1456.4 1542.2 1469.6 1559.8 1491.6C1577.4 1514.7 1568.6 1546.6 1552.1 1568.6C1540 1585.1 1521.3 1598.3 1514.7 1619.2C1509.2 1637.9 1515.8 1657.7 1526.8 1674.2C1531.2 1680.8 1535.6 1687.4 1540 1694C1552.1 1714.9 1553.2 1741.3 1544.4 1763.3" stroke="#0B2D4E" stroke-width="55" stroke-miterlimit="10"/>
<path d="M2084.5 1875.5C2038.3 1896.4 1982.2 1900.8 1936 1876.6C1890.9 1853.5 1851.3 1838.1 1798.5 1843.6C1752.3 1849.1 1716 1877.7 1672 1887.6C1636.8 1895.3 1599.4 1883.2 1570.8 1860.1C1543.3 1838.1 1522.4 1802.9 1531.2 1767.7C1535.6 1750.1 1546.6 1733.6 1552.1 1716C1565.3 1675.3 1519.1 1655.5 1525.7 1613.7C1531.2 1577.4 1567.5 1548.8 1563.1 1513.6C1559.8 1487.2 1537.8 1468.5 1527.9 1445.4C1518 1421.2 1516.9 1393.7 1527.9 1369.5C1535.6 1351.9 1549.9 1336.5 1566.4 1327.7C1581.8 1320 1599.4 1317.8 1610.4 1302.4C1630.2 1276 1635.7 1248.5 1663.2 1227.6C1687.4 1210 1720.4 1205.6 1749 1205.6C1813.9 1205.6 1879.9 1233.1 1920.6 1283.7C1934.9 1301.3 1945.9 1320 1949.2 1343.1C1951.4 1368.4 1954.7 1392.6 1971.2 1412.4C1985.5 1428.9 2007.5 1437.7 2028.4 1443.2C2049.3 1449.8 2071.3 1454.2 2091.1 1464.1C2109.8 1475.1 2126.3 1493.8 2126.3 1515.8C2126.3 1534.5 2115.3 1551 2115.3 1569.7C2115.3 1602.7 2149.4 1624.7 2171.4 1648.9C2202.2 1684.1 2212.1 1736.9 2195.6 1780.9C2175.8 1831.5 2134 1845.8 2090 1868.9C2087.8 1868.9 2085.6 1871.1 2083.4 1872.2L2084.5 1875.5Z" fill="#0B2D4E"/>
<path d="M1697.3 1839.2C1703.9 1815 1706.1 1788.6 1699.5 1765.5C1692.9 1743.5 1679.7 1723.7 1659.9 1711.6C1650 1705 1630.2 1710.5 1619.2 1712.7C1606 1716 1593.9 1721.5 1585.1 1731.4C1577.4 1741.3 1569.7 1751.2 1564.2 1763.3C1536.7 1822.7 1509.2 1882.1 1482.8 1941.5C1466.3 1978.9 1447.6 2015.2 1433.3 2053.7C1423.4 2082.3 1412.4 2113.1 1412.4 2143.9C1412.4 2164.8 1419 2190.1 1437.7 2201.1C1457.5 2213.2 1482.8 2208.8 1502.6 2198.9C1558.7 2171.4 1584 2097.7 1610.4 2043.8C1640.1 1984.4 1666.5 1922.8 1689.6 1860.1C1691.8 1853.5 1694 1845.8 1696.2 1838.1L1697.3 1839.2Z" fill="#AA694F"/>
<path d="M1549.9 2120.8C1552.1 2120.8 1554.3 2123 1556.5 2124.1C1562 2124.1 1562 2120.8 1563.1 2116.4C1567.5 2101 1570.8 2085.6 1573 2069.1C1575.2 2054.8 1578.5 2040.5 1581.8 2026.2C1584 2013 1584 1999.8 1579.6 1987.7C1576.3 1981.1 1571.9 1973.4 1564.2 1973.4C1558.7 1973.4 1553.2 1975.6 1549.9 1980C1546.6 1984.4 1544.4 1988.8 1542.2 1994.3C1530.1 2019.6 1512.5 2042.7 1490.5 2060.3C1469.6 2076.8 1442.1 2084.5 1421.2 2101C1417.9 2115.3 1415.7 2130.7 1415.7 2145C1415.7 2165.9 1422.3 2191.2 1441 2202.2C1444.3 2204.4 1448.7 2205.5 1452 2207.7H1454.2C1459.7 2204.4 1464.1 2195.6 1468.5 2191.2C1474 2184.6 1479.5 2179.1 1485 2173.6C1497.1 2161.5 1511.4 2150.5 1522.4 2137.3C1525.7 2132.9 1529 2129.6 1533.4 2126.3C1538.9 2123 1546.6 2120.8 1552.1 2123L1549.9 2120.8Z" fill="#794837"/>
<path d="M1562 1879.9C1563.1 1877.7 1564.2 1875.5 1565.3 1873.3C1580.7 1844.7 1592.8 1813.9 1604.9 1783.1C1611.5 1767.7 1617 1752.3 1623.6 1738C1626.9 1730.3 1630.2 1722.6 1633.5 1716C1634.6 1713.8 1641.2 1697.3 1643.4 1697.3C1626.9 1700.6 1610.4 1703.9 1593.9 1707.2C1581.8 1709.4 1569.7 1711.6 1558.7 1712.7C1569.7 1727 1573 1743.5 1569.7 1761.1C1567.5 1769.9 1564.2 1778.7 1563.1 1787.5C1562 1796.3 1562 1805.1 1562 1812.8C1562 1834.8 1562 1857.9 1562 1879.9Z" fill="#7763AB"/>
<path d="M1960.2 1654.4C1967.9 1695.1 1963.5 1727 1929.4 1752.3C1903 1773.2 1867.8 1784.2 1835.9 1789.7C1782 1799.6 1718.2 1795.2 1672 1763.3C1663.2 1757.8 1655.5 1750.1 1653.3 1740.2C1651.1 1731.4 1655.5 1721.5 1653.3 1712.7C1651.1 1697.3 1637.9 1686.3 1630.2 1672C1620.3 1653.3 1621.4 1631.3 1624.7 1611.5C1628 1590.6 1632.4 1569.7 1629.1 1549.9C1623.6 1523.5 1603.8 1502.6 1587.3 1481.7C1570.8 1460.8 1556.5 1433.3 1563.1 1406.9C1567.5 1389.3 1582.9 1375 1600.5 1369.5C1619.2 1364 1639 1382.7 1652.2 1392.6C1670.9 1405.8 1690.7 1416.8 1711.6 1425.6C1740.2 1437.7 1772.1 1444.3 1799.6 1459.7C1816.1 1468.5 1834.8 1481.7 1844.7 1498.2C1855.7 1516.9 1844.7 1538.9 1864.5 1554.3C1877.7 1564.2 1895.3 1565.3 1909.6 1573C1941.5 1588.4 1952.5 1623.6 1959.1 1655.5L1960.2 1654.4Z" fill="#061F33"/>
<path d="M1460.8 2240.7C1419 2385.9 1439.9 2549.8 1489.4 2690.6C1505.9 2736.8 1633.5 2725.8 1672 2728C1786.4 2734.6 1899.7 2735.7 2014.1 2731.3C2110.9 2726.9 2006.4 2388.1 1993.2 2340.8C1967.9 2250.6 1948.1 2158.2 1958 2063.6C1964.6 1995.4 1981.1 1928.3 1997.6 1861.2C1997.6 1861.2 1997.6 1860.1 1997.6 1859C2008.6 1811.7 2014.1 1763.3 1988.8 1731.4C1973.4 1711.6 1943.7 1701.7 1921.7 1691.8C1903 1684.1 1884.3 1677.5 1865.6 1669.8C1846.9 1662.1 1829.3 1653.3 1810.6 1646.7C1804 1644.5 1798.5 1643.4 1791.9 1642.3C1767.7 1639 1744.6 1648.9 1723.7 1659.9C1696.2 1674.2 1665.4 1681.9 1639 1697.3C1610.4 1713.8 1601.6 1747.9 1589.5 1776.5C1577.4 1806.2 1566.4 1835.9 1556.5 1865.6C1547.7 1893.1 1537.8 1921.7 1540 1950.3C1542.2 1977.8 1557.6 1996.5 1563.1 2020.7C1569.7 2047.1 1549.9 2072.4 1532.3 2094.4C1498.2 2138.4 1475.1 2186.8 1459.7 2239.6L1460.8 2240.7Z" fill="#AE9CC6"/>
<mask id="mask0_478_18899" style="mask-type:luminance" maskUnits="userSpaceOnUse" x="1438" y="1641" width="617" height="1093">
<path d="M1460.8 2240.7C1419 2385.9 1439.9 2549.8 1489.4 2690.6C1505.9 2736.8 1633.5 2725.8 1672 2728C1786.4 2734.6 1899.7 2735.7 2014.1 2731.3C2110.9 2726.9 2006.4 2388.1 1993.2 2340.8C1967.9 2250.6 1948.1 2158.2 1958 2063.6C1964.6 1995.4 1981.1 1928.3 1997.6 1861.2C1997.6 1861.2 1997.6 1860.1 1997.6 1859C2008.6 1811.7 2014.1 1763.3 1988.8 1731.4C1973.4 1711.6 1943.7 1701.7 1921.7 1691.8C1903 1684.1 1884.3 1677.5 1865.6 1669.8C1846.9 1662.1 1829.3 1653.3 1810.6 1646.7C1804 1644.5 1798.5 1643.4 1791.9 1642.3C1767.7 1639 1744.6 1648.9 1723.7 1659.9C1696.2 1674.2 1665.4 1681.9 1639 1697.3C1610.4 1713.8 1601.6 1747.9 1589.5 1776.5C1577.4 1806.2 1566.4 1835.9 1556.5 1865.6C1547.7 1893.1 1537.8 1921.7 1540 1950.3C1542.2 1977.8 1557.6 1996.5 1563.1 2020.7C1569.7 2047.1 1549.9 2072.4 1532.3 2094.4C1498.2 2138.4 1475.1 2186.8 1459.7 2239.6L1460.8 2240.7Z" fill="white"/>
</mask>
<g mask="url(#mask0_478_18899)">
<path d="M1873.3 1732.5C1886.5 1719.3 1896.4 1703.9 1900.8 1686.3C1903 1678.6 1904.1 1669.8 1900.8 1663.2C1897.5 1656.6 1890.9 1653.3 1884.3 1651.1C1827.1 1624.7 1750.1 1628 1691.8 1655.5C1685.2 1658.8 1677.5 1662.1 1673.1 1668.7C1668.7 1675.3 1666.5 1684.1 1666.5 1691.8C1666.5 1720.4 1685.2 1745.7 1707.2 1761.1C1738 1782 1774.3 1783.1 1808.4 1772.1C1832.6 1764.4 1855.7 1751.2 1872.2 1733.6L1873.3 1732.5Z" fill="#AA694F"/>
<path d="M2013 2146.1C2014.1 2146.1 2016.3 2146.1 2017.4 2147.2C2015.2 2147.2 2018.5 2079 2018.5 2073.5C2018.5 2059.2 2027.3 2027.3 2017.4 2015.2C2004.2 2000.9 1973.4 2019.6 1954.7 2022.9C1899.7 2035 1841.4 2033.9 1786.4 2020.7C1766.6 2016.3 1746.8 2009.7 1725.9 2007.5C1697.3 2004.2 1667.6 2010.8 1639 2014.1C1603.8 2017.4 1568.6 2014.1 1534.5 2006.4C1532.3 2011.9 1510.3 2077.9 1511.4 2079C1667.6 2143.9 1852.4 2087.8 2011.9 2146.1H2013Z" fill="#7763AA"/>
<path d="M1647.8 1676.4C1643.4 1707.2 1657.7 1742.4 1677.5 1765.5C1701.7 1794.1 1741.3 1804 1777.6 1802.9C1862.3 1799.6 1915.1 1723.7 1941.5 1653.3C1942.6 1648.9 1944.8 1645.6 1945.9 1641.2" stroke="#AE9CC6" stroke-width="55" stroke-miterlimit="10"/>
</g>
<path d="M2051.5 1811.7C2050.4 1807.3 2048.2 1802.9 2047.1 1798.5C2042.7 1785.3 2040.5 1773.2 2040.5 1760C2040.5 1751.2 2038.3 1742.4 2036.1 1733.6C2035 1729.2 2033.9 1718.2 2028.4 1717.1C2026.2 1717.1 2021.8 1719.3 2019.6 1719.3C2003.1 1723.7 1989.9 1735.8 1977.8 1747.9C1976.7 1749 1975.6 1750.1 1974.5 1752.3C1974.5 1754.5 1974.5 1756.7 1974.5 1758.9C1974.5 1763.3 1976.7 1767.7 1977.8 1772.1C1983.3 1798.5 1988.8 1823.8 1994.3 1850.2C1997.6 1863.4 1999.8 1876.6 2003.1 1888.7C2004.2 1895.3 2006.4 1900.8 2007.5 1907.4C2008.6 1912.9 2011.9 1912.9 2016.3 1909.6C2048.2 1890.9 2064.7 1849.1 2052.6 1813.9C2052.6 1813.9 2052.6 1812.8 2052.6 1811.7H2051.5Z" fill="#A576A6"/>
<path d="M1680.8 1280.4C1695.1 1269.4 1713.8 1263.9 1731.4 1261.7C1749 1259.5 1767.7 1259.5 1785.3 1261.7C1821.6 1267.2 1855.7 1284.8 1881 1312.3C1893.1 1325.5 1904.1 1342 1910.7 1358.5C1917.3 1376.1 1920.6 1393.7 1921.7 1412.4C1922.8 1430 1923.9 1448.7 1926.1 1466.3C1927.2 1475.1 1929.4 1483.9 1932.7 1491.6C1936 1499.3 1941.5 1507 1949.2 1511.4C1956.9 1515.8 1965.7 1516.9 1974.5 1516.9C1983.3 1516.9 1992.1 1516.9 2002 1516.9C2020.7 1516.9 2039.4 1520.2 2055.9 1529C2063.6 1533.4 2071.3 1540 2075.7 1548.8C2080.1 1557.6 2080.1 1567.5 2079 1576.3C2076.8 1586.2 2072.4 1593.9 2070.2 1602.7C2066.9 1611.5 2065.8 1620.3 2065.8 1629.1C2065.8 1646.7 2072.4 1664.3 2080.1 1680.8C2087.8 1697.3 2096.6 1712.7 2103.2 1730.3C2106.5 1739.1 2108.7 1747.9 2108.7 1756.7C2108.7 1765.5 2108.7 1775.4 2106.5 1784.2C2102.1 1801.8 2092.2 1818.3 2079 1830.4C2092.2 1818.3 2101 1801.8 2105.4 1784.2C2109.8 1766.6 2106.5 1747.9 2101 1731.4C2094.4 1714.9 2085.6 1698.4 2077.9 1683C2070.2 1666.5 2062.5 1648.9 2062.5 1630.2C2062.5 1621.4 2063.6 1611.5 2066.9 1602.7C2070.2 1593.9 2074.6 1586.2 2075.7 1577.4C2076.8 1568.6 2075.7 1559.8 2072.4 1552.1C2069.1 1544.4 2061.4 1538.9 2053.7 1534.5C2038.3 1526.8 2019.6 1523.5 2002 1523.5C1993.2 1523.5 1984.4 1523.5 1974.5 1523.5C1965.7 1523.5 1955.8 1522.4 1947 1516.9C1938.2 1511.4 1932.7 1503.7 1929.4 1494.9C1926.1 1486.1 1923.9 1477.3 1922.8 1468.5C1920.6 1449.8 1920.6 1432.2 1918.4 1414.6C1917.3 1397 1914 1378.3 1907.4 1361.8C1900.8 1345.3 1890.9 1329.9 1878.8 1316.7C1854.6 1290.3 1821.6 1272.7 1786.4 1266.1C1768.8 1262.8 1750.1 1261.7 1732.5 1263.9C1714.9 1266.1 1697.3 1271.6 1681.9 1281.5L1680.8 1280.4Z" fill="#D7D9DD"/>
<path d="M2120.8 2055.9C2098.8 1983.3 2073.5 1911.8 2044.9 1841.4C2029.5 1801.8 2010.8 1724.8 1961.3 1716C1941.5 1712.7 1921.7 1722.6 1909.6 1738C1872.2 1785.3 1889.8 1849.1 1906.3 1900.8C1928.3 1969 1962.4 2031.7 1986.6 2099.9C1999.8 2136.2 2024 2178 2068 2181.3C2077.9 2181.3 2088.9 2179.1 2097.7 2174.7C2109.8 2169.2 2120.8 2162.6 2128.5 2151.6C2141.7 2130.7 2134 2102.1 2128.5 2079C2126.3 2070.2 2124.1 2062.5 2120.8 2054.8V2055.9Z" fill="#AA694F"/>
<path d="M2102.1 2189C2131.8 2159.3 2150.5 2124.1 2105.4 2101C2062.5 2079 2024 2093.3 1993.2 2126.3C1982.2 2138.4 1969 2147.2 1956.9 2157.1C1943.7 2167 1931.6 2178 1919.5 2190.1C1893.1 2214.3 1865.6 2238.5 1839.2 2261.6C1827.1 2272.6 1813.9 2283.6 1804 2296.8C1796.3 2307.8 1788.6 2322.1 1793 2335.3C1797.4 2349.6 1811.7 2355.1 1824.9 2354C1834.8 2354 1844.7 2348.5 1853.5 2345.2C1912.9 2318.8 1972.3 2293.5 2026.2 2255C2053.7 2235.2 2079 2214.3 2103.2 2190.1L2102.1 2189Z" fill="#AA694F"/>
<path d="M1807.3 1736.9C1824.9 1731.4 1838.1 1719.3 1843.6 1700.6C1848 1684.1 1840.3 1665.4 1839.2 1647.8C1838.1 1631.3 1838.1 1614.8 1839.2 1599.4C1839.2 1584 1841.4 1568.6 1839.2 1554.3C1838.1 1545.5 1833.7 1547.7 1826 1543.3C1818.3 1540 1809.5 1540 1800.7 1540C1783.1 1540 1736.9 1538.9 1725.9 1555.4C1720.4 1563.1 1720.4 1573 1720.4 1581.8C1720.4 1592.8 1718.2 1607.1 1717.1 1622.5C1717.1 1629.1 1717.1 1636.8 1716 1643.4C1716 1651.1 1712.7 1658.8 1709.4 1665.4C1700.6 1692.9 1709.4 1719.3 1736.9 1732.5C1756.7 1741.3 1785.3 1743.5 1808.4 1735.8L1807.3 1736.9Z" fill="#AA694F"/>
<path d="M1839.2 1553.2C1838.1 1544.4 1833.7 1546.6 1826 1542.2C1818.3 1538.9 1809.5 1538.9 1800.7 1538.9C1783.1 1538.9 1736.9 1537.8 1725.9 1554.3C1720.4 1562 1720.4 1571.9 1720.4 1580.7C1720.4 1591.7 1718.2 1606 1717.1 1621.4C1717.1 1628 1717.1 1635.7 1716 1642.3C1716 1647.8 1713.8 1653.3 1711.6 1659.9C1729.2 1666.5 1747.9 1668.7 1765.5 1663.2C1797.4 1654.4 1821.6 1632.4 1839.2 1604.9C1839.2 1602.7 1839.2 1600.5 1839.2 1598.3C1839.2 1582.9 1841.4 1567.5 1839.2 1553.2Z" fill="#794837"/>
<path d="M1852.4 1434.4C1848 1409.1 1841.4 1386 1831.5 1366.2C1789.7 1284.8 1678.6 1280.4 1623.6 1351.9C1562 1432.2 1615.9 1592.8 1701.7 1639C1724.8 1651.1 1753.4 1652.2 1776.5 1642.3C1848 1610.4 1865.6 1513.6 1852.4 1434.4Z" fill="#AA694F"/>
<path d="M1831.5 1366.2C1789.7 1284.8 1678.6 1280.4 1623.6 1351.9C1611.5 1367.3 1603.8 1387.1 1600.5 1408C1602.7 1410.2 1603.8 1412.4 1607.1 1413.5C1618.1 1422.3 1631.3 1426.7 1644.5 1431.1C1683 1442.1 1723.7 1445.4 1764.4 1446.5C1767.7 1446.5 1769.9 1446.5 1773.2 1446.5C1784.2 1446.5 1795.2 1447.6 1806.2 1452C1834.8 1463 1829.3 1499.3 1851.3 1511.4C1853.5 1511.4 1855.7 1513.6 1856.8 1513.6C1860.1 1487.2 1859 1458.6 1854.6 1433.3C1850.2 1408 1843.6 1384.9 1833.7 1365.1L1831.5 1366.2Z" fill="#794837"/>
<path d="M1775.4 1436.6C1786.4 1438.8 1797.4 1441 1806.2 1447.6C1832.6 1463 1821.6 1498.2 1841.4 1513.6C1859 1526.8 1877.7 1502.6 1882.1 1487.2C1888.7 1458.6 1883.2 1427.8 1877.7 1399.2C1874.4 1382.7 1871.1 1366.2 1864.5 1351.9C1856.8 1335.4 1843.6 1322.2 1830.4 1311.2C1789.7 1279.3 1733.6 1268.3 1683 1279.3C1643.4 1288.1 1578.5 1333.2 1618.1 1378.3C1626.9 1389.3 1639 1395.9 1652.2 1401.4C1688.5 1417.9 1728.1 1428.9 1767.7 1435.5C1771 1435.5 1773.2 1436.6 1776.5 1437.7L1775.4 1436.6Z" fill="#0B2D4E"/>
<path d="M1838.1 1438.8C1867.8 1415.7 1885.4 1459.7 1883.2 1483.9C1883.2 1493.8 1879.9 1503.7 1875.5 1512.5C1868.9 1524.6 1849.1 1545.5 1834.8 1535.6C1828.2 1531.2 1826 1522.4 1824.9 1514.7C1821.6 1493.8 1817.2 1455.3 1838.1 1439.9V1438.8Z" fill="#AA694F"/>
<path d="M1866.7 2306.7C1860.1 2290.2 1844.7 2283.6 1829.3 2280.3C1827.1 2280.3 1824.9 2280.3 1823.8 2280.3C1819.4 2280.3 1816.1 2284.7 1812.8 2288C1804 2296.8 1788.6 2305.6 1775.4 2301.2C1758.9 2295.7 1746.8 2289.1 1729.2 2290.2C1717.1 2291.3 1703.9 2294.6 1691.8 2295.7C1684.1 2295.7 1677.5 2295.7 1669.8 2295.7C1665.4 2295.7 1661 2295.7 1659.9 2300.1C1659.9 2302.3 1659.9 2305.6 1659.9 2306.7C1665.4 2316.6 1679.7 2317.7 1689.6 2317.7C1697.3 2317.7 1705 2315.5 1713.8 2315.5C1717.1 2315.5 1722.6 2315.5 1723.7 2319.9C1724.8 2324.3 1721.5 2327.6 1718.2 2330.9C1710.5 2336.4 1701.7 2339.7 1692.9 2343C1689.6 2344.1 1686.3 2345.2 1683 2346.3C1665.4 2350.7 1645.6 2346.3 1626.9 2348.5C1621.4 2348.5 1615.9 2350.7 1614.8 2356.2C1614.8 2360.6 1619.2 2363.9 1623.6 2365C1618.1 2365 1610.4 2367.2 1609.3 2372.7C1609.3 2377.1 1611.5 2381.5 1614.8 2382.6C1618.1 2384.8 1622.5 2384.8 1626.9 2384.8C1645.6 2384.8 1664.3 2384.8 1683 2383.7C1672 2388.1 1661 2390.3 1650 2390.3C1643.4 2390.3 1636.8 2390.3 1630.2 2392.5C1628 2392.5 1626.9 2394.7 1625.8 2395.8C1625.8 2398 1625.8 2400.2 1628 2401.3C1630.2 2402.4 1632.4 2403.5 1634.6 2403.5C1647.8 2405.7 1662.1 2404.6 1675.3 2403.5C1669.8 2404.6 1663.2 2405.7 1657.7 2406.8C1655.5 2406.8 1652.2 2406.8 1650 2409C1647.8 2410.1 1645.6 2412.3 1646.7 2415.6C1646.7 2417.8 1648.9 2420 1651.1 2421.1C1653.3 2421.1 1655.5 2422.2 1658.8 2422.2C1680.8 2423.3 1702.8 2422.2 1724.8 2416.7C1733.6 2414.5 1742.4 2411.2 1750.1 2407.9C1758.9 2404.6 1767.7 2399.1 1774.3 2392.5C1788.6 2377.1 1805.1 2359.5 1823.8 2350.7C1828.2 2348.5 1832.6 2346.3 1837 2344.1C1840.3 2343 1843.6 2340.8 1848 2339.7C1852.4 2338.6 1856.8 2337.5 1861.2 2335.3C1874.4 2329.8 1868.9 2313.3 1864.5 2302.3L1866.7 2306.7Z" fill="#AA694F"/>
<path d="M1456.4 2214.3C1460.8 2214.3 1468.5 2214.3 1468.5 2214.3C1468.5 2214.3 1470.7 2206.6 1472.9 2201.1C1475.1 2195.6 1477.3 2189 1480.6 2182.4C1492.7 2158.2 1513.6 2119.7 1544.4 2116.4C1547.7 2116.4 1551 2115.3 1554.3 2115.3C1558.7 2115.3 1560.9 2117.5 1564.2 2117.5C1569.7 2117.5 1568.6 2114.2 1569.7 2108.7C1573 2091.1 1574.1 2072.4 1574.1 2054.8C1574.1 2054.8 1574.1 2052.6 1574.1 2051.5C1574.1 2051.5 1573 2051.5 1571.9 2051.5C1549.9 2051.5 1526.8 2057 1505.9 2064.7C1486.1 2072.4 1468.5 2083.4 1449.8 2094.4C1434.4 2103.2 1419 2114.2 1413.5 2131.8C1406.9 2152.7 1406.9 2186.8 1422.3 2203.3C1430 2212.1 1443.2 2213.2 1455.3 2214.3H1456.4Z" fill="#AA694F"/>
<path d="M1568.6 2125.2C1564.2 2121.9 1557.6 2119.7 1553.2 2115.3C1549.9 2113.1 1542.2 2109.8 1540 2106.5C1540 2105.4 1538.9 2103.2 1538.9 2102.1C1536.7 2093.3 1535.6 2084.5 1536.7 2075.7C1542.2 2044.9 1574.1 2053.7 1596.1 2049.3C1602.7 2048.2 1609.3 2046 1615.9 2044.9C1630.2 2042.7 1645.6 2039.4 1659.9 2041.6C1672 2043.8 1684.1 2046 1696.2 2050.4C1700.6 2051.5 1705 2053.7 1708.3 2055.9C1708.3 2055.9 1709.4 2055.9 1710.5 2057C1710.5 2058.1 1710.5 2059.2 1708.3 2060.3C1699.5 2064.7 1689.6 2063.6 1680.8 2063.6C1669.8 2063.6 1658.8 2062.5 1647.8 2061.4C1653.3 2070.2 1662.1 2075.7 1670.9 2080.1C1679.7 2084.5 1689.6 2087.8 1698.4 2092.2C1710.5 2097.7 1722.6 2105.4 1733.6 2113.1C1738 2116.4 1742.4 2120.8 1743.5 2127.4V2129.6C1743.5 2129.6 1743.5 2129.6 1742.4 2130.7C1736.9 2132.9 1731.4 2132.9 1725.9 2130.7C1720.4 2128.5 1716 2125.2 1711.6 2121.9C1699.5 2114.2 1686.3 2107.6 1673.1 2103.2C1681.9 2108.7 1690.7 2113.1 1699.5 2118.6C1709.4 2124.1 1720.4 2130.7 1729.2 2138.4C1734.7 2142.8 1740.2 2148.3 1741.3 2156C1741.3 2156 1741.3 2157.1 1741.3 2158.2C1741.3 2158.2 1741.3 2158.2 1739.1 2159.3C1732.5 2161.5 1724.8 2159.3 1719.3 2154.9C1699.5 2143.9 1679.7 2130.7 1658.8 2121.9C1677.5 2134 1696.2 2146.1 1714.9 2158.2C1719.3 2160.4 1723.7 2164.8 1721.5 2169.2C1721.5 2170.3 1719.3 2171.4 1718.2 2172.5C1711.6 2175.8 1703.9 2172.5 1698.4 2168.1C1678.6 2157.1 1658.8 2145 1636.8 2140.6C1645.6 2148.3 1653.3 2156 1662.1 2164.8C1664.3 2167 1666.5 2169.2 1667.6 2171.4C1667.6 2173.6 1667.6 2176.9 1665.4 2179.1C1662.1 2181.3 1658.8 2179.1 1655.5 2176.9C1626.9 2160.4 1597.2 2145 1570.8 2125.2H1568.6Z" fill="#AA694F"/>
<path d="M1884.3 1868.9C1881 1857.9 1877.7 1846.9 1876.6 1835.9C1876.6 1828.2 1878.8 1820.5 1879.9 1811.7C1883.2 1790.8 1889.8 1771 1898.6 1752.3C1904.1 1740.2 1911.8 1729.2 1919.5 1719.3C1925 1711.6 1933.8 1697.3 1944.8 1699.5C1955.8 1701.7 1974.5 1710.5 1985.5 1714.9C1998.7 1720.4 2014.1 1720.4 2028.4 1714.9C2022.9 1722.6 2016.3 1730.3 2008.6 1735.8C2000.9 1741.3 1993.2 1746.8 1985.5 1752.3C1964.6 1768.8 1955.8 1794.1 1950.3 1819.4C1940.4 1865.6 1933.8 1914 1939.3 1961.3C1939.3 1966.8 1942.6 1997.6 1948.1 1999.8C1944.8 1998.7 1941.5 1995.4 1939.3 1992.1C1927.2 1976.7 1914 1960.2 1909.6 1940.4C1904.1 1915.1 1893.1 1892 1885.4 1867.8L1884.3 1868.9Z" fill="#7763AB"/>
<path d="M976.801 826.1C986.701 823.9 998.801 822.8 1012 822.8C1031.8 822.8 1047.2 826.1 1058.2 836C1068.1 844.8 1072.5 859.1 1072.5 873.4C1072.5 887.7 1067 905.3 1058.2 914.1C1047.2 925.1 1030.7 930.6 1016.4 930.6H1009.8V994.4H976.801V826.1ZM1009.8 903.1C1010.9 903.1 1013.1 903.1 1015.3 903.1C1031.8 903.1 1039.5 891 1039.5 875.6C1039.5 860.2 1032.9 849.2 1017.5 849.2C1002.1 849.2 1010.9 849.2 1009.8 850.3V903.1Z" fill="#E78F34"/>
<path d="M1089 907.5C1089 895.4 1089 882.2 1089 870.1H1117.6L1119.8 887.7C1125.3 874.5 1135.2 867.9 1144 867.9C1152.8 867.9 1149.5 867.9 1150.6 867.9V900.9C1148.4 900.9 1146.2 900.9 1144 900.9C1137.4 900.9 1127.5 905.3 1124.2 918.5C1124.2 921.8 1123.1 925.1 1123.1 930.6V993.3H1090.1V906.4L1089 907.5Z" fill="#E78F34"/>
<path d="M1190.2 943.8C1190.2 962.5 1202.3 970.2 1216.6 970.2C1230.9 970.2 1234.2 968 1239.7 965.8L1244.1 990C1235.3 993.3 1222.1 995.5 1210 995.5C1175.9 995.5 1158.3 973.5 1158.3 935C1158.3 896.5 1180.3 869 1207.8 869C1235.3 869 1249.6 889.9 1249.6 927.3C1249.6 964.7 1249.6 940.5 1249.6 944.9H1191.3L1190.2 943.8ZM1219.9 920.7C1219.9 905.3 1215.5 892.1 1205.6 892.1C1195.7 892.1 1190.2 907.5 1190.2 920.7H1219.9Z" fill="#E78F34"/>
<path d="M1359.6 870.1C1359.6 881.1 1358.5 894.3 1358.5 909.7V980.1C1358.5 1006.5 1354.1 1020.8 1343.1 1030.7C1334.3 1039.5 1321.1 1043.9 1302.4 1043.9C1283.7 1043.9 1280.4 1041.7 1271.6 1038.4L1278.2 1013.1C1284.8 1016.4 1292.5 1018.6 1302.4 1018.6C1318.9 1018.6 1325.5 1007.6 1325.5 988.9V981.2C1321.1 988.9 1312.3 993.3 1303.5 993.3C1276 993.3 1265 962.5 1265 932.8C1265 903.1 1283.7 867.9 1306.8 867.9C1329.9 867.9 1324.4 873.4 1329.9 882.2L1332.1 870.1H1360.7H1359.6ZM1325.5 915.2C1325.5 911.9 1325.5 908.6 1324.4 906.4C1323.3 900.9 1318.9 896.5 1313.4 896.5C1301.3 896.5 1296.9 913 1296.9 932.8C1296.9 952.6 1303.5 968 1312.3 968C1321.1 968 1321.1 965.8 1323.3 959.2C1323.3 955.9 1324.4 952.6 1324.4 949.3V916.3L1325.5 915.2Z" fill="#E78F34"/>
<path d="M1381.6 907.5C1381.6 894.3 1381.6 882.2 1381.6 870.1H1410.2V884.4H1412.4C1419 874.5 1430 867.9 1442.1 867.9C1465.2 867.9 1475.1 886.6 1475.1 914.1V993.3H1442.1V916.3C1442.1 905.3 1439.9 895.4 1430 895.4C1420.1 895.4 1420.1 898.7 1417.9 906.4C1417.9 908.6 1415.7 913 1415.7 917.4V993.3H1382.7V906.4L1381.6 907.5Z" fill="#E78F34"/>
<path d="M1552.1 994.4L1549.9 982.3C1543.3 992.2 1533.4 996.6 1522.4 996.6C1503.7 996.6 1489.4 981.2 1489.4 959.2C1489.4 927.3 1518 913 1546.6 913V909.7C1546.6 899.8 1541.1 893.2 1529 893.2C1516.9 893.2 1511.4 895.4 1503.7 899.8L1497.1 877.8C1503.7 873.4 1518 867.9 1535.6 867.9C1573 867.9 1579.6 894.3 1579.6 919.6V965.8C1579.6 975.7 1579.6 985.6 1581.8 994.4H1552.1ZM1547.7 933.9C1536.7 933.9 1521.3 937.2 1521.3 954.8C1521.3 972.4 1527.9 971.3 1533.4 971.3C1538.9 971.3 1544.4 968 1546.6 960.3C1546.6 958.1 1546.6 957 1546.6 954.8V932.8L1547.7 933.9Z" fill="#E78F34"/>
<path d="M1603.8 907.5C1603.8 894.3 1603.8 882.2 1603.8 870.1H1632.4V884.4H1634.6C1641.2 874.5 1652.2 867.9 1664.3 867.9C1687.4 867.9 1697.3 886.6 1697.3 914.1V993.3H1664.3V916.3C1664.3 905.3 1662.1 895.4 1652.2 895.4C1642.3 895.4 1642.3 898.7 1640.1 906.4C1640.1 908.6 1637.9 913 1637.9 917.4V993.3H1604.9V906.4L1603.8 907.5Z" fill="#E78F34"/>
<path d="M1788.6 992.2C1785.3 993.3 1776.5 995.5 1767.7 995.5C1735.8 995.5 1716 973.5 1716 932.8C1716 892.1 1738 867.9 1773.2 867.9C1808.4 867.9 1788.6 870.1 1791.9 871.2L1787.5 897.6C1784.2 897.6 1780.9 895.4 1775.4 895.4C1760 895.4 1750.1 910.8 1750.1 931.7C1750.1 952.6 1760 968 1775.4 968C1790.8 968 1784.2 968 1787.5 965.8L1790.8 992.2H1788.6Z" fill="#E78F34"/>
<path d="M1833.7 870.1L1845.8 933.9C1846.9 941.6 1848 948.2 1849.1 954.8C1849.1 948.2 1851.3 941.6 1852.4 935L1862.3 870.1H1894.2L1868.9 965.8C1862.3 988.9 1854.6 1013.1 1841.4 1028.5C1831.5 1040.6 1818.3 1046.1 1812.8 1048.3L1802.9 1019.7C1808.4 1017.5 1813.9 1014.2 1819.4 1009.8C1823.8 1005.4 1827.1 999.9 1829.3 995.5C1829.3 993.3 1831.5 992.2 1831.5 990C1831.5 987.8 1831.5 986.7 1831.5 985.6L1797.4 871.2H1832.6L1833.7 870.1Z" fill="#E78F34"/>
<path d="M2032.8 994.4C2030.6 991.1 2028.4 987.8 2025.1 983.4C2016.3 991.1 2003.1 996.6 1987.7 996.6C1958 996.6 1940.4 975.7 1940.4 949.3C1940.4 922.9 1950.3 913 1966.8 902C1958 888.8 1954.7 876.7 1954.7 864.6C1954.7 841.5 1971.2 821.7 1997.6 821.7C2024 821.7 2035 837.1 2035 860.2C2035 883.3 2030.6 889.9 2005.3 906.4C2013 918.5 2024 935 2030.6 943.8C2036.1 932.8 2037.2 916.3 2038.3 904.2H2066.9C2064.7 927.3 2057 950.4 2044.9 964.7C2050.4 971.3 2059.2 983.4 2069.1 995.5H2032.8V994.4ZM2011.9 963.6C2003.1 952.6 1991 935 1981.1 920.7C1976.7 925.1 1971.2 933.9 1971.2 943.8C1971.2 953.7 1980 971.3 1994.3 971.3C2008.6 971.3 2007.5 968 2011.9 963.6ZM1984.4 862.4C1984.4 872.3 1987.7 878.9 1993.2 887.7C2004.2 878.9 2007.5 871.2 2007.5 861.3C2007.5 851.4 2005.3 843.7 1996.5 843.7C1987.7 843.7 1984.4 852.5 1984.4 862.4Z" fill="#E78F34"/>
<path d="M2336.4 2389.2H905.301V3005.2H2336.4V2389.2Z" fill="white"/>
<path d="M2337.5 4844.4H906.4V5460.4H2337.5V4844.4Z" fill="white"/>
<path d="M2244 5645.2H924V7757.2H2244V5645.2Z" fill="#2B5382"/>
<path d="M974.6 6076.4C982.3 6074.2 993.3 6073.1 1005.4 6073.1C1025.2 6073.1 1038.4 6077.5 1048.3 6087.4C1061.5 6099.5 1068.1 6120.4 1068.1 6150.1C1068.1 6179.8 1060.4 6204 1046.1 6216.1C1036.2 6226 1019.7 6231.5 998.8 6231.5C977.9 6231.5 980.1 6231.5 973.5 6230.4V6077.5L974.6 6076.4ZM1005.4 6206.2C1006.5 6206.2 1008.7 6206.2 1010.9 6206.2C1025.2 6206.2 1038.4 6191.9 1038.4 6149C1038.4 6106.1 1029.6 6097.3 1012 6097.3C994.4 6097.3 1007.6 6097.3 1006.5 6097.3V6205.1L1005.4 6206.2Z" fill="#E78F34"/>
<path d="M1117.6 6087.4C1117.6 6097.3 1111 6103.9 1102.2 6103.9C1093.4 6103.9 1086.8 6097.3 1086.8 6087.4C1086.8 6077.5 1094.5 6070.9 1102.2 6070.9C1109.9 6070.9 1117.6 6077.5 1117.6 6087.4ZM1086.8 6230.4V6117.1H1117.6V6230.4H1086.8Z" fill="#E78F34"/>
<path d="M1189.1 6230.4V6219.4H1186.9C1180.3 6228.2 1171.5 6232.6 1161.6 6232.6C1144 6232.6 1131.9 6218.3 1131.9 6198.5C1131.9 6168.8 1158.3 6156.7 1183.6 6156.7V6154.5C1183.6 6145.7 1178.1 6139.1 1168.2 6139.1C1158.3 6139.1 1151.7 6141.3 1145.1 6145.7L1139.6 6125.9C1146.2 6122.6 1159.4 6117.1 1174.8 6117.1C1208.9 6117.1 1214.4 6141.3 1214.4 6164.4V6206.2C1214.4 6215 1214.4 6224.9 1216.6 6232.6H1189.1V6230.4ZM1184.7 6175.4C1174.8 6175.4 1160.5 6178.7 1160.5 6194.1C1160.5 6209.5 1167.1 6209.5 1171.5 6209.5C1175.9 6209.5 1181.4 6206.2 1183.6 6199.6C1183.6 6198.5 1183.6 6196.3 1183.6 6194.1V6174.3L1184.7 6175.4Z" fill="#E78F34"/>
<path d="M1235.3 6230.4C1235.3 6220.5 1235.3 6207.3 1235.3 6197.4V6070.9H1266.1V6129.2C1271.6 6121.5 1279.3 6116 1289.2 6116C1311.2 6116 1321.1 6140.2 1321.1 6171C1321.1 6201.8 1305.7 6232.6 1284.8 6232.6C1263.9 6232.6 1268.3 6228.2 1262.8 6217.2V6230.4H1235.3ZM1266.1 6189.7C1266.1 6193 1266.1 6195.2 1267.2 6197.4C1269.4 6205.1 1273.8 6207.3 1277.1 6207.3C1287 6207.3 1291.4 6194.1 1291.4 6173.2C1291.4 6152.3 1287 6141.3 1277.1 6141.3C1267.2 6141.3 1268.3 6145.7 1267.2 6151.2C1267.2 6153.4 1266.1 6155.6 1266.1 6157.8V6189.7Z" fill="#E78F34"/>
<path d="M1365.1 6184.2C1365.1 6201.8 1376.1 6208.4 1389.3 6208.4C1402.5 6208.4 1405.8 6206.2 1411.3 6205.1L1415.7 6227.1C1408 6230.4 1395.9 6232.6 1384.9 6232.6C1354.1 6232.6 1337.6 6212.8 1337.6 6176.5C1337.6 6140.2 1357.4 6116 1382.7 6116C1408 6116 1421.2 6134.7 1421.2 6169.9C1421.2 6205.1 1421.2 6182 1421.2 6185.3H1367.3L1365.1 6184.2ZM1391.5 6163.3C1391.5 6149 1388.2 6136.9 1378.3 6136.9C1368.4 6136.9 1364 6151.2 1364 6163.3H1390.4H1391.5Z" fill="#E78F34"/>
<path d="M1471.8 6086.3V6117.1H1493.8V6139.1H1471.8V6190.8C1471.8 6204 1477.3 6207.3 1482.8 6207.3C1488.3 6207.3 1488.3 6207.3 1490.5 6207.3V6230.4C1486.1 6231.5 1480.6 6232.6 1471.8 6232.6C1463 6232.6 1455.3 6230.4 1449.8 6224.9C1443.2 6219.4 1439.9 6210.6 1439.9 6193V6140.2H1426.7V6118.2H1439.9V6095.1L1470.7 6087.4L1471.8 6086.3Z" fill="#E78F34"/>
<path d="M1532.3 6184.2C1532.3 6201.8 1543.3 6208.4 1556.5 6208.4C1569.7 6208.4 1573 6206.2 1578.5 6205.1L1582.9 6227.1C1575.2 6230.4 1563.1 6232.6 1552.1 6232.6C1521.3 6232.6 1504.8 6212.8 1504.8 6176.5C1504.8 6140.2 1524.6 6116 1549.9 6116C1575.2 6116 1588.4 6134.7 1588.4 6169.9C1588.4 6205.1 1588.4 6182 1588.4 6185.3H1534.5L1532.3 6184.2ZM1558.7 6163.3C1558.7 6149 1555.4 6136.9 1545.5 6136.9C1535.6 6136.9 1531.2 6151.2 1531.2 6163.3H1557.6H1558.7Z" fill="#E78F34"/>
<path d="M1602.7 6202.9C1607.1 6206.2 1615.9 6208.4 1622.5 6208.4C1629.1 6208.4 1634.6 6205.1 1634.6 6198.5C1634.6 6191.9 1631.3 6188.6 1621.4 6183.1C1602.7 6173.2 1598.3 6161.1 1598.3 6150.1C1598.3 6130.3 1612.6 6114.9 1635.7 6114.9C1658.8 6114.9 1652.2 6117.1 1658.8 6120.4L1653.3 6142.4C1648.9 6140.2 1643.4 6138 1637.9 6138C1632.4 6138 1626.9 6142.4 1626.9 6147.9C1626.9 6153.4 1629.1 6155.6 1640.1 6162.2C1656.6 6172.1 1663.2 6183.1 1663.2 6196.3C1663.2 6219.4 1646.7 6231.5 1623.6 6231.5C1600.5 6231.5 1602.7 6229.3 1597.2 6224.9L1602.7 6202.9Z" fill="#E78F34"/>
<path d="M976.801 5820.1C986.701 5817.9 998.801 5816.8 1012 5816.8C1031.8 5816.8 1047.2 5820.1 1058.2 5830C1068.1 5838.8 1072.5 5853.1 1072.5 5867.4C1072.5 5881.7 1067 5899.3 1058.2 5908.1C1047.2 5919.1 1030.7 5924.6 1016.4 5924.6H1009.8V5988.4H976.801V5820.1ZM1009.8 5897.1C1010.9 5897.1 1013.1 5897.1 1015.3 5897.1C1031.8 5897.1 1039.5 5885 1039.5 5869.6C1039.5 5854.2 1032.9 5843.2 1017.5 5843.2C1002.1 5843.2 1010.9 5843.2 1009.8 5844.3V5897.1Z" fill="#E78F34"/>
<path d="M1089 5901.5C1089 5889.4 1089 5876.2 1089 5864.1H1117.6L1119.8 5881.7C1125.3 5868.5 1135.2 5861.9 1144 5861.9C1152.8 5861.9 1149.5 5861.9 1150.6 5861.9V5894.9C1148.4 5894.9 1146.2 5894.9 1144 5894.9C1137.4 5894.9 1127.5 5899.3 1124.2 5912.5C1124.2 5915.8 1123.1 5919.1 1123.1 5924.6V5987.3H1090.1V5900.4L1089 5901.5Z" fill="#E78F34"/>
<path d="M1190.2 5937.8C1190.2 5956.5 1202.3 5964.2 1216.6 5964.2C1230.9 5964.2 1234.2 5962 1239.7 5959.8L1244.1 5984C1235.3 5987.3 1222.1 5989.5 1210 5989.5C1175.9 5989.5 1158.3 5967.5 1158.3 5929C1158.3 5890.5 1180.3 5863 1207.8 5863C1235.3 5863 1249.6 5883.9 1249.6 5921.3C1249.6 5958.7 1249.6 5934.5 1249.6 5938.9H1191.3L1190.2 5937.8ZM1219.9 5914.7C1219.9 5899.3 1215.5 5886.1 1205.6 5886.1C1195.7 5886.1 1190.2 5901.5 1190.2 5914.7H1219.9Z" fill="#E78F34"/>
<path d="M1359.6 5864.1C1359.6 5875.1 1358.5 5888.3 1358.5 5903.7V5974.1C1358.5 6000.5 1354.1 6014.8 1343.1 6024.7C1334.3 6033.5 1321.1 6037.9 1302.4 6037.9C1283.7 6037.9 1280.4 6035.7 1271.6 6032.4L1278.2 6007.1C1284.8 6010.4 1292.5 6012.6 1302.4 6012.6C1318.9 6012.6 1325.5 6001.6 1325.5 5982.9V5975.2C1321.1 5982.9 1312.3 5987.3 1303.5 5987.3C1276 5987.3 1265 5956.5 1265 5926.8C1265 5897.1 1283.7 5861.9 1306.8 5861.9C1329.9 5861.9 1324.4 5867.4 1329.9 5876.2L1332.1 5864.1H1360.7H1359.6ZM1325.5 5909.2C1325.5 5905.9 1325.5 5902.6 1324.4 5900.4C1323.3 5894.9 1318.9 5890.5 1313.4 5890.5C1301.3 5890.5 1296.9 5907 1296.9 5926.8C1296.9 5946.6 1303.5 5962 1312.3 5962C1321.1 5962 1321.1 5959.8 1323.3 5953.2C1323.3 5949.9 1324.4 5946.6 1324.4 5943.3V5910.3L1325.5 5909.2Z" fill="#E78F34"/>
<path d="M1381.6 5901.5C1381.6 5888.3 1381.6 5876.2 1381.6 5864.1H1410.2V5878.4H1412.4C1419 5868.5 1430 5861.9 1442.1 5861.9C1465.2 5861.9 1475.1 5880.6 1475.1 5908.1V5987.3H1442.1V5910.3C1442.1 5899.3 1439.9 5889.4 1430 5889.4C1420.1 5889.4 1420.1 5892.7 1417.9 5900.4C1417.9 5902.6 1415.7 5907 1415.7 5911.4V5987.3H1382.7V5900.4L1381.6 5901.5Z" fill="#E78F34"/>
<path d="M1552.1 5988.4L1549.9 5976.3C1543.3 5986.2 1533.4 5990.6 1522.4 5990.6C1503.7 5990.6 1489.4 5975.2 1489.4 5953.2C1489.4 5921.3 1518 5907 1546.6 5907V5903.7C1546.6 5893.8 1541.1 5887.2 1529 5887.2C1516.9 5887.2 1511.4 5889.4 1503.7 5893.8L1497.1 5871.8C1503.7 5867.4 1518 5861.9 1535.6 5861.9C1573 5861.9 1579.6 5888.3 1579.6 5913.6V5959.8C1579.6 5969.7 1579.6 5979.6 1581.8 5988.4H1552.1ZM1547.7 5927.9C1536.7 5927.9 1521.3 5931.2 1521.3 5948.8C1521.3 5966.4 1527.9 5965.3 1533.4 5965.3C1538.9 5965.3 1544.4 5962 1546.6 5954.3C1546.6 5952.1 1546.6 5951 1546.6 5948.8V5926.8L1547.7 5927.9Z" fill="#E78F34"/>
<path d="M1603.8 5901.5C1603.8 5888.3 1603.8 5876.2 1603.8 5864.1H1632.4V5878.4H1634.6C1641.2 5868.5 1652.2 5861.9 1664.3 5861.9C1687.4 5861.9 1697.3 5880.6 1697.3 5908.1V5987.3H1664.3V5910.3C1664.3 5899.3 1662.1 5889.4 1652.2 5889.4C1642.3 5889.4 1642.3 5892.7 1640.1 5900.4C1640.1 5902.6 1637.9 5907 1637.9 5911.4V5987.3H1604.9V5900.4L1603.8 5901.5Z" fill="#E78F34"/>
<path d="M1788.6 5986.2C1785.3 5987.3 1776.5 5989.5 1767.7 5989.5C1735.8 5989.5 1716 5967.5 1716 5926.8C1716 5886.1 1738 5861.9 1773.2 5861.9C1808.4 5861.9 1788.6 5864.1 1791.9 5865.2L1787.5 5891.6C1784.2 5891.6 1780.9 5889.4 1775.4 5889.4C1760 5889.4 1750.1 5904.8 1750.1 5925.7C1750.1 5946.6 1760 5962 1775.4 5962C1790.8 5962 1784.2 5962 1787.5 5959.8L1790.8 5986.2H1788.6Z" fill="#E78F34"/>
<path d="M1833.7 5864.1L1845.8 5927.9C1846.9 5935.6 1848 5942.2 1849.1 5948.8C1849.1 5942.2 1851.3 5935.6 1852.4 5929L1862.3 5864.1H1894.2L1868.9 5959.8C1862.3 5982.9 1854.6 6007.1 1841.4 6022.5C1831.5 6034.6 1818.3 6040.1 1812.8 6042.3L1802.9 6013.7C1808.4 6011.5 1813.9 6008.2 1819.4 6003.8C1823.8 5999.4 1827.1 5993.9 1829.3 5989.5C1829.3 5987.3 1831.5 5986.2 1831.5 5984C1831.5 5981.8 1831.5 5980.7 1831.5 5979.6L1797.4 5865.2H1832.6L1833.7 5864.1Z" fill="#E78F34"/>
<path d="M2032.8 5988.4C2030.6 5985.1 2028.4 5981.8 2025.1 5977.4C2016.3 5985.1 2003.1 5990.6 1987.7 5990.6C1958 5990.6 1940.4 5969.7 1940.4 5943.3C1940.4 5916.9 1950.3 5907 1966.8 5896C1958 5882.8 1954.7 5870.7 1954.7 5858.6C1954.7 5835.5 1971.2 5815.7 1997.6 5815.7C2024 5815.7 2035 5831.1 2035 5854.2C2035 5877.3 2030.6 5883.9 2005.3 5900.4C2013 5912.5 2024 5929 2030.6 5937.8C2036.1 5926.8 2037.2 5910.3 2038.3 5898.2H2066.9C2064.7 5921.3 2057 5944.4 2044.9 5958.7C2050.4 5965.3 2059.2 5977.4 2069.1 5989.5H2032.8V5988.4ZM2011.9 5957.6C2003.1 5946.6 1991 5929 1981.1 5914.7C1976.7 5919.1 1971.2 5927.9 1971.2 5937.8C1971.2 5947.7 1980 5965.3 1994.3 5965.3C2008.6 5965.3 2007.5 5962 2011.9 5957.6ZM1984.4 5856.4C1984.4 5866.3 1987.7 5872.9 1993.2 5881.7C2004.2 5872.9 2007.5 5865.2 2007.5 5855.3C2007.5 5845.4 2005.3 5837.7 1996.5 5837.7C1987.7 5837.7 1984.4 5846.5 1984.4 5856.4Z" fill="#E78F34"/>
<path d="M1611.5 7474.5C1954.74 7474.5 2233 7196.24 2233 6853C2233 6509.76 1954.74 6231.5 1611.5 6231.5C1268.26 6231.5 990 6509.76 990 6853C990 7196.24 1268.26 7474.5 1611.5 7474.5Z" fill="#22B1B1"/>
<path d="M1202.3 7426.1C1202.3 7453.6 1293.6 7419.5 1346.4 7419.5C1399.2 7419.5 1394.8 7396.4 1394.8 7368.9C1394.8 7341.4 1399.2 7320.5 1346.4 7318.3C1277.1 7316.1 1202.3 7397.5 1202.3 7425V7426.1Z" fill="#FBCBB8"/>
<path d="M1392.6 7371.1C1392.6 7343.6 1397 7322.7 1344.2 7320.5C1277.1 7316.1 1200.1 7397.5 1200.1 7425" fill="#E9A68B"/>
<path d="M1413.5 6906.9L1336.5 6902.5V6645.1H1419L1413.5 6906.9Z" fill="#FBCBB8"/>
<path d="M1255.1 7148.9L1171.5 7179.7L1337.6 6893.7H1448.7L1255.1 7148.9Z" fill="#FBCBB8"/>
<path d="M1448.7 6893.7L1255.1 7148.9L1171.5 7179.7" fill="#E9A68B"/>
<path d="M1805.1 6906.9L1881 6902.5V6645.1H1799.6L1805.1 6906.9Z" fill="#E9A68B"/>
<path d="M1963.5 7148.9L2044.9 7179.7L1878.8 6893.7H1769.9L1963.5 7148.9Z" fill="#E9A68B"/>
<path d="M2149.4 7291.9C2149.4 7406.3 1909.6 7429.4 1611.5 7429.4C1313.4 7429.4 1073.6 7406.3 1073.6 7291.9C1073.6 7177.5 1313.4 7082.9 1611.5 7082.9C1909.6 7082.9 2149.4 7174.2 2149.4 7291.9Z" fill="#093751"/>
<path d="M2149.4 7291.9C2149.4 7406.3 1909.6 7389.8 1611.5 7389.8C1313.4 7389.8 1073.6 7406.3 1073.6 7291.9C1073.6 7177.5 1313.4 7082.9 1611.5 7082.9C1909.6 7082.9 2149.4 7174.2 2149.4 7291.9Z" fill="#0D4972"/>
<path d="M1719.3 6685.8H1502.6L1546.6 6486.7H1676.4L1719.3 6685.8Z" fill="#F8BC9F"/>
<path d="M1478.4 6286.5C1478.4 6286.5 1492.7 6435 1480.6 6465.8C1480.6 6465.8 1511.4 6457 1551 6455.9L1590.6 6409.7L1584 6263.4L1477.3 6286.5H1478.4Z" fill="#00233F"/>
<path d="M1744.6 6286.5C1744.6 6286.5 1730.3 6435 1742.4 6465.8C1742.4 6465.8 1711.6 6457 1672 6455.9L1632.4 6409.7L1639 6263.4L1745.7 6286.5H1744.6Z" fill="#00233F"/>
<path d="M1740.2 6218.3C1740.2 6301.9 1775.4 6322.8 1635.7 6322.8H1585.1C1529 6322.8 1480.6 6276.6 1480.6 6218.3C1480.6 6162.2 1526.8 6113.8 1585.1 6113.8H1635.7C1694 6113.8 1740.2 6162.2 1740.2 6218.3Z" fill="#00233F"/>
<path d="M1675.3 6370.1H1544.4V6512H1675.3V6370.1Z" fill="#F8BC9F"/>
<path d="M1679.7 6520.8L1611.5 6560.4L1544.4 6370.1H1678.6L1679.7 6520.8Z" fill="#E9A68B"/>
<path d="M1716 6255.7C1716 6355.8 1664.3 6447.1 1611.5 6447.1C1558.7 6447.1 1507 6355.8 1507 6255.7C1507 6155.6 1558.7 6136.9 1611.5 6136.9C1664.3 6136.9 1716 6153.4 1716 6255.7Z" fill="#FBCBB8"/>
<path d="M1611.5 6136.9C1665.4 6136.9 1716 6153.4 1716 6255.7C1716 6358 1664.3 6447.1 1611.5 6447.1" fill="#F8BC9F"/>
<path d="M1538.9 6525.2L1332.1 6591.2L1342 6779.3L1607.1 6712.2L1538.9 6525.2Z" fill="#F8BC9F"/>
<path d="M1332.1 6591.2L1342 6779.3L1607.1 6712.2" fill="#FBCBB8"/>
<path d="M1684.1 6525.2L1890.9 6591.2L1881 6779.3L1615.9 6712.2L1684.1 6525.2Z" fill="#F8BC9F"/>
<path d="M1890.9 6591.2L1881 6779.3L1615.9 6712.2" fill="#E9A68B"/>
<path d="M1661 6118.2C1661 6118.2 1796.3 6301.9 1470.7 6304.1C1470.7 6304.1 1454.2 6197.4 1498.2 6152.3C1542.2 6107.2 1619.2 6114.9 1619.2 6114.9L1661 6119.3V6118.2Z" fill="#00233F"/>
<path d="M1588.4 6118.2C1588.4 6118.2 1618.1 6276.6 1751.2 6293.1C1751.2 6293.1 1772.1 6199.6 1734.7 6155.6C1697.3 6111.6 1628 6116 1628 6116L1588.4 6118.2Z" fill="#00233F"/>
<path d="M1865.6 7025.7C1865.6 7198.4 1751.2 7311.7 1611.5 7311.7C1471.8 7311.7 1357.4 7199.5 1357.4 7025.7C1357.4 6851.9 1469.6 6713.3 1611.5 6713.3C1753.4 6713.3 1865.6 6855.2 1865.6 7025.7Z" fill="#093751"/>
<path d="M1865.6 7025.7C1865.6 7198.4 1751.2 7238 1611.5 7238C1471.8 7238 1357.4 7198.4 1357.4 7025.7C1357.4 6853 1469.6 6713.3 1611.5 6713.3C1753.4 6713.3 1865.6 6855.2 1865.6 7025.7Z" fill="#C81911"/>
<path d="M1865.6 7025.7C1865.6 7198.4 1751.2 7151.1 1611.5 7151.1C1471.8 7151.1 1357.4 7199.5 1357.4 7025.7C1357.4 6851.9 1469.6 6713.3 1611.5 6713.3C1753.4 6713.3 1865.6 6855.2 1865.6 7025.7Z" fill="#D7462A"/>
<path d="M1611.5 6712.2C1753.4 6712.2 1865.6 6851.9 1865.6 7024.6C1865.6 7197.3 1753.4 7236.9 1611.5 7236.9" fill="#C81911"/>
<path d="M1413.5 6751.8C1413.5 6674.8 1501.5 6656.1 1611.5 6656.1C1721.5 6656.1 1809.5 6672.6 1809.5 6751.8C1809.5 6831 1721.5 6893.7 1611.5 6893.7C1501.5 6893.7 1413.5 6828.8 1413.5 6751.8Z" fill="#C81911"/>
<path d="M1413.5 6751.8C1413.5 6674.8 1501.5 6656.1 1611.5 6656.1C1721.5 6656.1 1809.5 6672.6 1809.5 6751.8C1809.5 6831 1721.5 6824.4 1611.5 6824.4C1501.5 6824.4 1413.5 6828.8 1413.5 6751.8Z" fill="#D7462A"/>
<path d="M1611.5 6656.1C1720.4 6656.1 1809.5 6672.6 1809.5 6751.8C1809.5 6831 1721.5 6893.7 1611.5 6893.7" fill="#C81911"/>
<path d="M1494.9 6733.1C1497.1 6737.5 1492.7 6741.9 1488.3 6741.9C1483.9 6744.1 1479.5 6741.9 1478.4 6737.5L1424.5 6556C1422.3 6551.6 1426.7 6547.2 1431.1 6547.2C1435.5 6545 1439.9 6547.2 1441 6551.6L1494.9 6733.1Z" fill="#D7462A"/>
<path d="M1728.1 6733.1C1725.9 6737.5 1730.3 6741.9 1734.7 6741.9C1739.1 6744.1 1743.5 6741.9 1744.6 6737.5L1798.5 6558.2C1800.7 6553.8 1796.3 6549.4 1791.9 6549.4C1787.5 6547.2 1783.1 6549.4 1782 6553.8L1728.1 6733.1Z" fill="#C81911"/>
<path d="M1705 6685.8C1705 6694.6 1663.2 6685.8 1611.5 6685.8C1559.8 6685.8 1518 6694.6 1518 6685.8C1518 6677 1559.8 6669.3 1611.5 6669.3C1663.2 6669.3 1705 6675.9 1705 6685.8Z" fill="#F36856"/>
<path d="M1439.84 6882.11C1449.66 6855.3 1449.75 6830.69 1440.05 6827.14C1430.35 6823.59 1414.53 6842.45 1404.72 6869.26C1394.91 6896.08 1394.82 6920.69 1404.52 6924.24C1414.21 6927.79 1430.03 6908.93 1439.84 6882.11Z" fill="#F36856"/>
<path d="M1390.4 6972.9C1395.87 6972.9 1400.3 6968.47 1400.3 6963C1400.3 6957.53 1395.87 6953.1 1390.4 6953.1C1384.93 6953.1 1380.5 6957.53 1380.5 6963C1380.5 6968.47 1384.93 6972.9 1390.4 6972.9Z" fill="#F36856"/>
<path d="M1383.8 6996C1387.44 6996 1390.4 6993.05 1390.4 6989.4C1390.4 6985.76 1387.44 6982.8 1383.8 6982.8C1380.15 6982.8 1377.2 6985.76 1377.2 6989.4C1377.2 6993.05 1380.15 6996 1383.8 6996Z" fill="#F36856"/>
<path d="M1478.26 6706.66C1494.8 6699.01 1506.56 6689.24 1504.52 6684.83C1502.48 6680.42 1487.42 6683.04 1470.87 6690.68C1454.33 6698.33 1442.57 6708.1 1444.61 6712.51C1446.65 6716.92 1461.71 6714.3 1478.26 6706.66Z" fill="#F36856"/>
<path d="M1304.6 7165.4C1302.4 7240.2 1265 7179.7 1216.6 7181.9C1139.6 7186.3 1153.9 7161 1156.1 7140.1C1156.1 7117 1189.1 7077.4 1239.7 7079.6C1285.9 7081.8 1304.6 7144.5 1304.6 7165.4Z" fill="#FBCBB8"/>
<path d="M1237.5 7079.6C1285.9 7081.8 1304.6 7142.3 1304.6 7165.4C1302.4 7240.2 1265 7179.7 1216.6 7181.9C1139.6 7186.3 1153.9 7161 1156.1 7140.1" fill="#E9A68B"/>
<path d="M1918.4 7165.4C1920.6 7240.2 1958 7179.7 2006.4 7181.9C2083.4 7186.3 2069.1 7161 2066.9 7140.1C2066.9 7117 2033.9 7077.4 1983.3 7079.6C1937.1 7081.8 1918.4 7144.5 1918.4 7165.4Z" fill="#FBCBB8"/>
<path d="M2076.8 7426.1C2076.8 7453.6 1985.5 7419.5 1932.7 7419.5C1879.9 7419.5 1884.3 7396.4 1884.3 7368.9C1884.3 7341.4 1879.9 7320.5 1932.7 7318.3C2002 7316.1 2076.8 7397.5 2076.8 7425V7426.1Z" fill="#FBCBB8"/>
<path d="M1886.5 7371.1C1886.5 7343.6 1882.1 7322.7 1934.9 7320.5C2002 7316.1 2079 7397.5 2079 7425" fill="#E9A68B"/>
<path d="M1558.7 7305.1C1558.7 7305.1 1786.4 7356.8 1865.6 7344.7C1865.6 7344.7 1796.3 7354.6 1800.7 7326C1805.1 7296.3 1917.3 7330.4 1905.2 7277.6C1893.1 7225.9 1802.9 7244.6 1813.9 7208.3C1824.9 7172 1739.1 7250.1 1739.1 7250.1L1647.8 7283.1L1559.8 7304L1558.7 7305.1Z" fill="#093751"/>
<path d="M2337.5 7319.4H906.4V7935.4H2337.5V7319.4Z" fill="white"/>
<path d="M2266 4438.5H1569.7L1630.2 4769.6C1637.9 4811.4 1674.2 4842.2 1717.1 4842.2H2120.8C2163.7 4842.2 2200 4811.4 2207.7 4769.6L2268.2 4438.5H2266Z" fill="#574138"/>
<path d="M2064.7 4787.2H2201.1C2203.3 4781.7 2205.5 4776.2 2206.6 4769.6L2267.1 4438.5H1666.5C1694 4637.6 1864.5 4787.2 2065.8 4787.2H2064.7Z" fill="#684D42"/>
<path d="M1642.3 4163.5L1577.4 4115.1C1525.7 4076.6 1496 4016.1 1496 3951.2C1496 3927 1515.8 3907.2 1540 3907.2C1546.6 3907.2 1553.2 3908.3 1559.8 3911.6L1697.3 3979.8" fill="#5C9C52"/>
<path d="M1972.3 3925.9L2095.5 3784C2098.8 3780.7 2101 3776.3 2103.2 3771.9C2112 3753.2 2131.8 3741.1 2152.7 3741.1C2164.8 3741.1 2175.8 3749.9 2179.1 3762C2187.9 3797.2 2192.3 3833.5 2192.3 3869.8V4072.2H1972.3V3925.9Z" fill="#508B45"/>
<path d="M1862.3 3998.5L1860.1 3990.8C1837 3899.5 1794.1 3814.8 1733.6 3742.2C1675.3 3788.4 1642.3 3858.8 1642.3 3932.5V3950.1C1642.3 3969.9 1644.5 3989.7 1650 4009.5L1679.7 4127.2H1771" fill="#508B45"/>
<path d="M1711.6 3763.1C1690.7 3878.6 1689.6 3997.4 1707.2 4114L1709.4 4128.3H1746.8L1743.5 4108.5C1725.9 3994.1 1728.1 3876.4 1749 3762C1744.6 3755.4 1739.1 3748.8 1733.6 3742.2C1725.9 3748.8 1718.2 3755.4 1711.6 3762V3763.1Z" fill="#305B26"/>
<path d="M2027.3 4072.2C2027.3 3978.7 1989.9 3888.5 1923.9 3821.4L1899.7 3797.2C1817.2 3879.7 1771 3990.8 1771 4107.4V4292.2H2027.3V4072.2Z" fill="#447B3B"/>
<path d="M1923.9 3821.4L1899.7 3797.2C1894.2 3802.7 1889.8 3808.2 1884.3 3812.6C1906.3 3905 1917.3 3999.6 1917.3 4094.2V4291.1H1953.6V4094.2C1953.6 4001.8 1943.7 3910.5 1922.8 3821.4H1923.9Z" fill="#508B45"/>
<path d="M1771 4292.2L1716 4438.5H2101L2027.3 4292.2" fill="#305B26"/>
<path d="M2064.7 4255.9L2168.1 4209.7C2208.8 4192.1 2242.9 4163.5 2270.4 4128.3C2279.2 4116.2 2294.6 4108.5 2310 4108.5C2337.5 4108.5 2358.4 4130.5 2358.4 4156.9C2358.4 4208.6 2339.7 4258.1 2306.7 4296.6C2269.3 4340.6 2217.6 4370.3 2160.4 4379.1L2138.4 4382.4L2064.7 4253.7V4255.9Z" fill="#5C9C52"/>
<path d="M1771 4255.9L1668.7 4235C1615.9 4224 1567.5 4198.7 1530.1 4160.2C1520.2 4150.3 1507 4144.8 1493.8 4144.8C1465.2 4144.8 1442.1 4167.9 1442.1 4196.5C1442.1 4246 1458.6 4294.4 1488.3 4334V4336.2C1530.1 4390.1 1590.6 4423.1 1656.6 4429.7L1728.1 4436.3C1745.7 4437.4 1762.2 4436.3 1778.7 4430.8C1829.3 4414.3 1864.5 4365.9 1864.5 4313.1V4255.9" fill="#508B45"/>
<path d="M1444.3 4178.9C1548.8 4279 1681.9 4342.8 1826 4359.3L1852.4 4362.6C1857.9 4351.6 1861.2 4339.5 1862.3 4326.3L1831.5 4323C1695.1 4307.6 1568.6 4247.1 1469.6 4151.4C1458.6 4156.9 1449.8 4166.8 1445.4 4178.9H1444.3Z" fill="#305B26"/>
<path d="M1917.3 4347.2H1872.2C1807.3 4347.2 1743.5 4323 1695.1 4280.1C1637.9 4229.5 1606 4156.9 1606 4081V4053.5H1667.6C1733.6 4053.5 1797.4 4079.9 1844.7 4127.2C1892 4174.5 1918.4 4238.3 1918.4 4304.3V4347.2H1917.3Z" fill="#305B26"/>
<path d="M1936 4292.2C1936 4197.6 1967.9 4105.2 2027.3 4031.5L2035 4021.6C2065.8 3983.1 2104.3 3950.1 2146.1 3924.8L2264.9 3853.3V3889.6C2264.9 3974.3 2244 4056.8 2204.4 4131.6C2151.6 4231.7 2047.1 4293.3 1934.9 4293.3L1936 4292.2Z" fill="#305B26"/>
<path d="M2072.4 4255.9C2101 4255.9 2128.5 4271.3 2142.8 4295.5L2159.3 4323C2169.2 4338.4 2173.6 4356 2173.6 4374.7C2173.6 4403.3 2161.5 4430.8 2139.5 4450.6L2044.9 4533.1C2033.9 4543 2018.5 4548.5 2003.1 4548.5C1983.3 4548.5 1964.6 4539.7 1952.5 4523.2L1947 4515.5C1927.2 4489.1 1916.2 4457.2 1916.2 4424.2C1916.2 4375.8 1939.3 4329.6 1980 4301L2022.9 4270.2C2037.2 4260.3 2053.7 4254.8 2071.3 4254.8L2072.4 4255.9Z" fill="#508B45"/>
<path d="M1978.9 4513.3L1964.6 4535.3C1974.5 4543 1986.6 4547.4 1999.8 4548.5L2009.7 4533.1C2061.4 4450.6 2093.3 4357.1 2099.9 4260.3C2091.1 4257 2082.3 4255.9 2072.4 4255.9C2069.1 4255.9 2065.8 4255.9 2062.5 4255.9C2055.9 4347.2 2027.3 4435.2 1977.8 4513.3H1978.9Z" fill="#447B3B"/>
<path d="M1607.1 4096.4C1664.3 4207.5 1756.7 4295.5 1870 4347.2C1870 4347.2 1872.2 4347.2 1873.3 4347.2H1918.4V4327.4C1796.3 4281.2 1695.1 4191 1636.8 4073.3L1626.9 4053.5H1606V4081C1606 4086.5 1606 4090.9 1606 4096.4H1607.1Z" fill="#447B3B"/>
<path d="M2266 3906.1C2266 3900.6 2266 3895.1 2266 3889.6V3853.3L2240.7 3868.7L2231.9 3892.9C2174.7 4045.8 2072.4 4177.8 1937.1 4270.2C1937.1 4277.9 1937.1 4285.6 1937.1 4293.3C1949.2 4293.3 1960.2 4293.3 1972.3 4291.1C2106.5 4195.4 2208.8 4061.2 2266 3907.2V3906.1Z" fill="#5C9C52"/>
<path d="M1371.7 4485.8L1443.2 4429.7C1469.6 4409.9 1501.5 4397.8 1534.5 4397.8C1600.5 4397.8 1658.8 4440.7 1677.5 4504.5L1683 4523.2L1641.2 4481.4C1620.3 4460.5 1591.7 4448.4 1562 4448.4C1521.3 4448.4 1483.9 4470.4 1464.1 4506.7L1421.2 4585.9H1334.3L1346.4 4511.1L1371.7 4485.8Z" fill="#305B26"/>
<path d="M1296.9 4585.9L1395.9 4351.6C1421.2 4292.2 1457.5 4238.3 1502.6 4192.1C1522.4 4172.3 1548.8 4161.3 1576.3 4161.3C1618.1 4161.3 1655.5 4186.6 1672 4225.1L1681.9 4249.3L1639 4222.9C1626.9 4215.2 1612.6 4211.9 1598.3 4211.9C1573 4211.9 1548.8 4224 1534.5 4243.8C1476.2 4321.9 1426.7 4406.6 1387.1 4495.7L1347.5 4585.9" fill="#508B45"/>
<path d="M1323.3 4603.5L1329.9 4505.6C1340.9 4354.9 1393.7 4209.7 1483.9 4087.6C1414.6 4087.6 1349.7 4123.9 1312.3 4182.2C1269.4 4250.4 1247.4 4328.5 1247.4 4409.9V4611.2" fill="#447B3B"/>
<path d="M1196.8 4536.4L1174.8 4395.6C1172.6 4381.3 1171.5 4368.1 1171.5 4353.8C1171.5 4279 1200.1 4208.6 1252.9 4156.9L1226.5 4301C1223.2 4316.4 1222.1 4332.9 1222.1 4348.3C1222.1 4381.3 1228.7 4415.4 1240.8 4446.2L1296.9 4585.9H1222.1" fill="#5C9C52"/>
<path d="M1147.3 4485.8C1067 4390.1 1026.3 4266.9 1032.9 4141.5L1035.1 4086.5L1184.7 4510" fill="#305B26"/>
<path d="M1060.4 4585.9H1558.7V4710.2C1558.7 4779.5 1502.6 4834.5 1434.4 4834.5H1184.7C1115.4 4834.5 1060.4 4778.4 1060.4 4710.2V4585.9Z" fill="#574138"/>
<path d="M1334.3 4810.3H1508.1C1540 4787.2 1558.7 4749.8 1558.7 4710.2V4585.9H1097.8C1104.4 4711.3 1207.8 4810.3 1334.3 4810.3Z" fill="#684D42"/>
<path d="M1210 4585.9C1128.6 4561.7 1058.2 4512.2 1007.6 4444L936.1 4348.3L1069.2 4405.5C1151.7 4440.7 1218.8 4504.5 1259.5 4584.8" fill="#447B3B"/>
<path d="M1210 4536.4L1201.2 4527.6C1191.3 4517.7 1177 4511.1 1162.7 4511.1C1139.6 4511.1 1118.7 4526.5 1111 4548.5C1111 4622.2 1128.6 4694.8 1160.5 4760.8V4747.6C1160.5 4673.9 1178.1 4602.4 1210 4536.4Z" fill="#508B45"/>
<path d="M1683 4798.2L1544.4 4600.2C1533.4 4584.8 1519.1 4571.6 1501.5 4562.8C1485 4554 1465.2 4549.6 1446.5 4549.6H1442.1L1465.2 4507.8C1466.3 4505.6 1467.4 4503.4 1468.5 4502.3C1516.9 4492.4 1566.4 4517.7 1585.1 4563.9L1683 4799.3V4798.2Z" fill="#447B3B"/>
<path opacity="0.3" d="M2302.3 243.1L2194.5 662.2H2244V893.2H924V243.1H2302.3Z" fill="#0B2D4E"/>
<path opacity="0.3" d="M2302.3 5468.1L2244 5689.2V5887.2H924V5468.1H2302.3Z" fill="#0B2D4E"/>
<path opacity="0.3" d="M2156 3557.4H921.801V3005.2H2300.1L2156 3557.4Z" fill="#0B2D4E"/>
<path opacity="0.3" d="M2156 8487.6H921.801V7935.4H2300.1L2156 8487.6Z" fill="#0B2D4E"/>
</g>
<defs>
<clipPath id="clip0_478_18899">
<rect width="3036" height="9211.4" fill="white"/>
</clipPath>
</defs>
</svg>
