<svg width="918" height="563" viewBox="0 0 918 563" fill="none" xmlns="http://www.w3.org/2000/svg">
<g clip-path="url(#clip0_478_18862)">
<path d="M265.1 12.1C213.4 40.7 107.8 103.4 44.0005 160.6C22.0005 180.4 6.60046 206.8 2.20046 236.5C-1.09954 260.7 -1.09954 289.3 13.2005 305.8C13.2005 305.8 294.8 546.7 522.5 563.2C522.5 563.2 732.6 575.3 786.5 424.6C808.5 361.9 794.2 291.5 752.4 239.8C724.9 205.7 683.1 166.1 619.3 133.1C619.3 133.1 445.5 35.2 333.3 4.40002C310.2 -2.19998 286 1.10002 265.1 13.2V12.1Z" fill="#27B797"/>
<path d="M786.501 423.5C732.601 573.1 522.501 562.1 522.501 562.1C293.701 546.7 13.2008 304.7 13.2008 304.7C-1.09916 289.3 -2.19916 261.8 2.20084 237.6C4.40084 246.4 7.70084 255.2 13.2008 261.8C13.2008 261.8 293.701 502.7 522.501 519.2C522.501 519.2 732.601 531.3 786.501 380.6C790.901 367.4 794.201 354.2 795.301 341C798.601 368.5 795.301 396 786.501 423.5Z" fill="#1EA282"/>
<path d="M613.799 275C574.199 383.9 421.299 376.2 421.299 376.2C255.199 365.2 50.5992 189.2 50.5992 189.2C43.9992 182.6 41.7992 172.7 40.6992 162.8L42.8992 160.6C108.899 102.3 214.499 40.7004 265.099 12.1004C285.999 0.000411868 310.199 -3.29959 333.299 3.30041C391.599 19.8004 467.499 53.9004 525.799 82.5004C554.399 101.2 575.299 122.1 589.599 140.8C620.399 179.3 631.399 229.9 614.899 275H613.799Z" fill="#E5E6E7"/>
<path d="M650.1 473C649 459.8 649 438.9 654.5 420.2C661.1 400.4 678.7 385 698.5 380.6C716.1 377.3 739.2 380.6 756.8 412.5C759 416.9 756.8 421.3 753.5 423.5L661.1 478.5C655.6 481.8 649 478.5 649 471.9L650.1 473Z" fill="#2F5678"/>
<path d="M917.4 529.1L870.1 559.9L706.2 453.2L655.6 420.2C661.1 402.6 675.4 389.4 693 383.9L754.6 424.6L917.4 530.2V529.1Z" fill="#E5E6E7"/>
<path d="M143 157.3L308 53.9002C321.2 45.1002 338.8 45.1002 353.1 51.7002L504.9 129.8C520.3 137.5 521.4 159.5 507.1 169.4L332.2 279.4C317.9 288.2 299.2 288.2 284.9 279.4L144.1 195.8C129.8 187 129.8 166.1 144.1 157.3H143Z" fill="#294D77"/>
<path d="M501.601 290.4C527.724 290.4 548.901 278.088 548.901 262.9C548.901 247.712 527.724 235.4 501.601 235.4C475.478 235.4 454.301 247.712 454.301 262.9C454.301 278.088 475.478 290.4 501.601 290.4Z" fill="#EE535A"/>
<path d="M501.601 291.5C475.201 291.5 454.301 279.4 454.301 264V280.5C454.301 295.9 475.201 308 501.601 308C528.001 308 548.901 295.9 548.901 280.5V264C548.901 279.4 528.001 291.5 501.601 291.5Z" fill="#D23743"/>
<path d="M867.9 511.5L847 524.7C847 524.7 797.5 493.9 796.4 492.8L817.3 479.6L865.7 510.4C865.7 510.4 866.8 510.4 867.9 511.5Z" fill="#EE535A"/>
<path d="M268.4 119.9L311.3 94.6001L310.2 110L293.7 118.8L268.4 119.9Z" fill="white"/>
<path d="M407 200.2L449.9 174.9L423.5 176L408.1 184.8L407 200.2Z" fill="white"/>
<path d="M314.6 92.3999L383.9 133.1L357.5 127.6L323.4 107.8L314.6 92.3999Z" fill="white"/>
<path d="M264 122.1L333.3 161.7L324.5 146.3L291.5 126.5L264 122.1Z" fill="white"/>
<path d="M383.9 133.1L453.2 172.7L426.8 168.3L392.7 148.5L383.9 133.1Z" fill="white"/>
<path d="M333.301 161.7L402.601 202.4L394.901 185.9L360.801 167.2L333.301 161.7Z" fill="white"/>
<path d="M199.096 159.5L241.996 134.2L240.896 149.6L225.496 158.4L199.096 159.5Z" fill="white"/>
<path d="M338.801 239.8L381.701 214.5H355.301L339.901 224.4L338.801 239.8Z" fill="white"/>
<path d="M246.4 132L315.7 172.7L288.2 167.2L255.2 147.4L246.4 132Z" fill="white"/>
<path d="M195.801 161.7L265.101 201.3L256.301 185.9L223.301 166.1L195.801 161.7Z" fill="white"/>
<path d="M315.697 172.7L384.997 212.3L357.497 206.8L324.497 188.1L315.697 172.7Z" fill="white"/>
<path d="M265.096 201.301L334.396 242.001L325.596 225.501L292.596 206.801L265.096 201.301Z" fill="white"/>
</g>
<defs>
<clipPath id="clip0_478_18862">
<rect width="917.4" height="562.1" fill="white"/>
</clipPath>
</defs>
</svg>
