<svg width="12098" height="4309" viewBox="0 0 12098 4309" fill="none" xmlns="http://www.w3.org/2000/svg">
<g clip-path="url(#clip0_478_10499)">
<path d="M10723.9 -0.000244141H592.9V343.2H1245.2V987.8H1344.2V4290H1683V987.8H10095.8V343.2H10723.9V-0.000244141Z" fill="#D8E3E0"/>
<path d="M10685.4 1324.4H8842.9V4308.7H10685.4V1324.4Z" fill="#CADBD6"/>
<path d="M2426.6 50.6001H2172.5V4298.8H2426.6V50.6001Z" fill="#D8E8E4"/>
<path d="M2426.6 172.7H2172.5V1174.8H2426.6V172.7Z" fill="#C8DBD6"/>
<path d="M11446.6 50.6001H11192.5V4298.8H11446.6V50.6001Z" fill="#D8E8E4"/>
<path d="M11446.6 172.7H11192.5V1174.8H11446.6V172.7Z" fill="#C8DBD6"/>
<path d="M9571.1 68.2002H9317V4308.7H9571.1V68.2002Z" fill="#D0D6D4"/>
<path d="M9571.1 190.3H9317V1192.4H9571.1V190.3Z" fill="#BFD1CC"/>
<path d="M11462 172.7H2619.1V986.7H11462V172.7Z" fill="#E2F0ED"/>
<path d="M11462 172.7H2619.1V493.9H11462V172.7Z" fill="#D8E3E0"/>
<path d="M12097.8 -3.2998H1974.5V348.7H12097.8V-3.2998Z" fill="#EEF5F4"/>
<path d="M12097.8 15.3997H1974.5V149.6H12097.8V15.3997Z" fill="white"/>
<path d="M11192.5 1313.4H9350V4297.7H11192.5V1313.4Z" fill="#D8E8E4"/>
<path d="M11053.9 1602.7H9476.5V2293.5H11053.9V1602.7Z" fill="#F0F2F1"/>
<path d="M11059.4 2410.1H9482V3100.9H11059.4V2410.1Z" fill="#F0F2F1"/>
<path d="M11053.9 3241.7H9476.5V3932.5H11053.9V3241.7Z" fill="#F0F2F1"/>
<path d="M10118.9 1908.5H10411.5C10425.8 1908.5 10436.8 1919.5 10436.8 1933.8V1961.3C10436.8 1975.6 10425.8 1986.6 10411.5 1986.6H10118.9C10104.6 1986.6 10093.6 1975.6 10093.6 1961.3V1933.8C10093.6 1919.5 10104.6 1908.5 10118.9 1908.5Z" fill="#CADBD6"/>
<path d="M10118.9 2704.9H10411.5C10425.8 2704.9 10436.8 2715.9 10436.8 2730.2V2757.7C10436.8 2772 10425.8 2783 10411.5 2783H10118.9C10104.6 2783 10093.6 2772 10093.6 2757.7V2730.2C10093.6 2715.9 10104.6 2704.9 10118.9 2704.9Z" fill="#CADBD6"/>
<path d="M10418.1 3515.6H10124.4C10110.4 3515.6 10099.1 3526.93 10099.1 3540.9V3568.4C10099.1 3582.37 10110.4 3593.7 10124.4 3593.7H10418.1C10432.1 3593.7 10443.4 3582.37 10443.4 3568.4V3540.9C10443.4 3526.93 10432.1 3515.6 10418.1 3515.6Z" fill="#CADBD6"/>
</g>
<defs>
<clipPath id="clip0_478_10499">
<rect width="12097.8" height="4308.7" fill="white"/>
</clipPath>
</defs>
</svg>
