<svg width="687" height="1097" viewBox="0 0 687 1097" fill="none" xmlns="http://www.w3.org/2000/svg">
<g clip-path="url(#clip0_478_19112)">
<path d="M459.799 1095.6H387.199V36.2998C387.199 16.4998 403.699 -0.000244141 423.499 -0.000244141C443.299 -0.000244141 459.799 16.4998 459.799 36.2998V1095.6Z" fill="#DBE7EB"/>
<path d="M323.4 90.1997H514.8V856.9C514.8 905.3 476.3 943.8 427.9 943.8H410.3C361.9 943.8 323.4 905.3 323.4 856.9V90.1997Z" fill="white"/>
<path d="M419.099 916.3C381.699 916.3 348.699 885.5 348.699 848.1V118.8H489.499V848.1C489.499 885.5 456.499 916.3 419.099 916.3Z" fill="#CDF4FF"/>
<path d="M419.099 916.3C381.699 916.3 348.699 885.5 348.699 848.1V118.8H489.499V848.1C489.499 885.5 456.499 916.3 419.099 916.3Z" fill="#CDF4FF"/>
<path d="M348.699 420.2V849.2C348.699 886.6 381.699 917.4 419.099 917.4C456.499 917.4 489.499 886.6 489.499 849.2V420.2H348.699Z" fill="#55A1BF"/>
<path opacity="0.2" d="M324.5 94.5996V156.2H459.8V828.3C459.8 881.1 414.7 922.9 363 922.9C378.4 935 396 941.6 418 941.6C469.7 941.6 513.7 900.9 513.7 848.1V94.5996H323.4H324.5Z" fill="#4D4E59"/>
<path d="M512.6 73.6997H322.3C308.934 73.6997 298.1 84.5344 298.1 97.8997V102.3C298.1 115.665 308.934 126.5 322.3 126.5H512.6C525.965 126.5 536.8 115.665 536.8 102.3V97.8997C536.8 84.5344 525.965 73.6997 512.6 73.6997Z" fill="#DFF9FF"/>
<path d="M464.203 82.4998H324.503C320.25 82.4998 316.803 85.9472 316.803 90.1998V91.2998C316.803 95.5524 320.25 98.9998 324.503 98.9998H464.203C468.455 98.9998 471.903 95.5524 471.903 91.2998V90.1998C471.903 85.9472 468.455 82.4998 464.203 82.4998Z" fill="white"/>
<path opacity="0.5" d="M389.4 282.7H385C376.494 282.7 369.6 289.595 369.6 298.1V816.2C369.6 824.705 376.494 831.6 385 831.6H389.4C397.905 831.6 404.8 824.705 404.8 816.2V298.1C404.8 289.595 397.905 282.7 389.4 282.7Z" fill="white"/>
<path opacity="0.5" d="M389.4 172.7H385C376.494 172.7 369.6 179.595 369.6 188.1V234.3C369.6 242.805 376.494 249.7 385 249.7H389.4C397.905 249.7 404.8 242.805 404.8 234.3V188.1C404.8 179.595 397.905 172.7 389.4 172.7Z" fill="white"/>
<path d="M686.401 1095.6H613.801V36.2998C613.801 16.4998 630.301 -0.000244141 650.101 -0.000244141C669.901 -0.000244141 686.401 16.4998 686.401 36.2998V1095.6Z" fill="#EBF4F7"/>
<path d="M72.6 1096.7H0V38.4997C0 17.5997 16.5 2.19971 36.3 2.19971C56.1 2.19971 72.6 18.6997 72.6 38.4997V1097.8V1096.7Z" fill="#DBE7EB"/>
<path d="M650.1 229.9H226.6V283.8H650.1V229.9Z" fill="#EBF4F7"/>
<path d="M227.701 229.9H36.3008V289.3H227.701V229.9Z" fill="#DBE7EB"/>
<path d="M299.2 1096.7H226.6V38.4997C226.6 18.6997 243.1 2.19971 262.9 2.19971C282.7 2.19971 299.2 18.6997 299.2 38.4997V1097.8V1096.7Z" fill="#EBF4F7"/>
</g>
<defs>
<clipPath id="clip0_478_19112">
<rect width="686.4" height="1096.7" fill="white"/>
</clipPath>
</defs>
</svg>
