<svg width="12" height="6" viewBox="0 0 12 6" fill="none" xmlns="http://www.w3.org/2000/svg">
<g clip-path="url(#clip0_2083_24442)">
<path d="M6.00458 0.00775096C6.11224 0.00775095 6.21158 0.0253338 6.30258 0.0605006C6.39358 0.0958337 6.48274 0.157084 6.57008 0.244251L10.9583 4.63275C11.052 4.72625 11.102 4.841 11.1083 4.977C11.1148 5.11283 11.0648 5.23392 10.9583 5.34025C10.852 5.44675 10.7341 5.5 10.6046 5.5C10.4751 5.5 10.3572 5.44675 10.2508 5.34025L6.00458 1.09425L1.75833 5.34025C1.66483 5.43392 1.55007 5.48392 1.41407 5.49025C1.27824 5.49675 1.15716 5.44675 1.05082 5.34025C0.944324 5.23392 0.891076 5.116 0.891076 4.9865C0.891076 4.857 0.944324 4.73908 1.05082 4.63275L5.43908 0.244251C5.52641 0.157084 5.61557 0.0958338 5.70657 0.0605006C5.79757 0.0253339 5.89691 0.00775097 6.00458 0.00775096Z" fill="white"/>
</g>
<defs>
<clipPath id="clip0_2083_24442">
<rect width="10.2178" height="5.49225" fill="white" transform="translate(0.891113 0.0078125)"/>
</clipPath>
</defs>
</svg>
