<svg width="2093" height="1076" viewBox="0 0 2093 1076" fill="none" xmlns="http://www.w3.org/2000/svg">
<g clip-path="url(#clip0_478_19087)">
<path d="M2014.1 234.3C2014.1 191.4 1970.1 148.5 1915.1 125.4V73.7H1712.7V125.4C1651.1 147.4 1617 187 1617 233.2H1615.9V759C1615.9 794.2 1645.6 822.8 1680.8 822.8H1952.5C1987.7 822.8 2015.2 794.2 2015.2 759V234.3H2016.3H2014.1Z" fill="white"/>
<path d="M2014.1 234.3C2014.1 191.4 1970.1 148.5 1915.1 125.4V73.6997H1805.1V113.3C1860.1 135.3 1904.1 178.2 1904.1 227.7H1903V748C1903 783.2 1875.5 810.7 1840.3 810.7H1641.2C1652.2 822.8 1665.4 822.8 1679.7 822.8H1951.4C1986.6 822.8 2014.1 794.2 2014.1 759V234.3Z" fill="#EBF4F7"/>
<path d="M1915.1 74.7998H1712.7V129.8H1915.1V74.7998Z" fill="#E2F2ED"/>
<path d="M1918.4 -0.000244141H1709.4C1694.21 -0.000244141 1681.9 12.3119 1681.9 27.4998V79.1998C1681.9 94.3876 1694.21 106.7 1709.4 106.7H1918.4C1933.59 106.7 1945.9 94.3876 1945.9 79.1998V27.4998C1945.9 12.3119 1933.59 -0.000244141 1918.4 -0.000244141Z" fill="#2D6FBB"/>
<path d="M1875.5 354.2H1613.7V583H1875.5V354.2Z" fill="#FF97A8"/>
<path d="M1944.8 23.0997C1944.8 10.9997 1934.9 2.19971 1923.9 2.19971H1875.5V106.7H1923.9C1936 106.7 1944.8 96.7997 1944.8 85.7997V23.0997Z" fill="#264BB0"/>
<path d="M1623.6 463.1C1623.6 454.3 1623.6 446.6 1623.6 440H1640.1V448.8H1641.2C1644.5 443.3 1650 438.9 1656.6 438.9C1673.1 438.9 1679.7 456.5 1679.7 476.3C1679.7 496.1 1668.7 513.7 1655.5 513.7C1642.3 513.7 1645.6 510.4 1643.4 506V540.1H1623.6V462V463.1ZM1643.4 486.2C1643.4 488.4 1643.4 490.6 1643.4 492.8C1644.5 497.2 1647.8 498.3 1650 498.3C1656.6 498.3 1658.8 488.4 1658.8 476.3C1658.8 464.2 1655.5 455.4 1650 455.4C1644.5 455.4 1644.5 458.7 1643.4 462C1643.4 463.1 1643.4 465.3 1643.4 467.5V487.3V486.2Z" fill="#923556"/>
<path d="M1690.7 462C1690.7 454.3 1690.7 446.6 1690.7 440H1707.2V451H1708.3C1711.6 443.3 1717.1 438.9 1722.6 438.9C1728.1 438.9 1725.9 438.9 1727 438.9V458.7C1725.9 458.7 1724.8 458.7 1722.6 458.7C1718.2 458.7 1712.7 462 1710.5 469.7C1710.5 470.8 1710.5 474.1 1710.5 477.4V514.8H1690.7V464.2V462Z" fill="#923556"/>
<path d="M1754.5 420.2C1754.5 426.8 1750.1 431.2 1744.6 431.2C1739.1 431.2 1734.7 426.8 1734.7 420.2C1734.7 413.6 1739.1 409.2 1744.6 409.2C1750.1 409.2 1754.5 413.6 1754.5 420.2ZM1734.7 512.6V440H1754.5V512.6H1734.7Z" fill="#923556"/>
<path d="M1767.7 462C1767.7 454.3 1767.7 446.6 1767.7 440H1784.2V448.8H1785.3C1789.7 443.3 1795.2 438.9 1802.9 438.9C1817.2 438.9 1822.7 449.9 1822.7 466.4V513.7H1802.9V467.5C1802.9 460.9 1801.8 455.4 1795.2 455.4C1788.6 455.4 1789.7 457.6 1787.5 462C1787.5 463.1 1787.5 466.4 1787.5 468.6V512.6H1767.7V462Z" fill="#923556"/>
<path d="M2092.2 821.7H0V1075.8H2092.2V821.7Z" fill="#FAFAFA"/>
<path d="M2092.2 821.7H542.301V1075.8H2092.2V821.7Z" fill="#D42B37"/>
<path d="M2092.2 1041.7H0V1075.8H2092.2V1041.7Z" fill="#D42B37"/>
<path d="M2092.2 821.7H0V848.1H2092.2V821.7Z" fill="#D42B37"/>
<path d="M2091.1 821.7H576.4V1075.8H2091.1V821.7Z" fill="#F54B53"/>
<path d="M1425.6 821.7H1375V1075.8H1425.6V821.7Z" fill="#D42B37"/>
<path d="M1884.3 819.5H1833.7V1073.6H1884.3V819.5Z" fill="#D42B37"/>
<path d="M1505.9 821.7H1488.3V1075.8H1505.9V821.7Z" fill="#D42B37"/>
<path d="M1772.1 886.6H1599.4V1006.5H1772.1V886.6Z" fill="#FFC65A"/>
</g>
<defs>
<clipPath id="clip0_478_19087">
<rect width="2092.2" height="1075.8" fill="white"/>
</clipPath>
</defs>
</svg>
