<svg width="1405" height="1405" viewBox="0 0 1405 1405" fill="none" xmlns="http://www.w3.org/2000/svg">
<g clip-path="url(#clip0_478_19069)">
<path d="M1199.58 1199.93C1474.08 925.426 1474.08 480.374 1199.58 205.874C925.077 -68.6252 480.025 -68.6252 205.525 205.874C-68.9742 480.374 -68.9742 925.425 205.525 1199.93C480.025 1474.42 925.077 1474.42 1199.58 1199.93Z" fill="white"/>
<path d="M1145.91 1146.26C1390.77 901.397 1390.77 504.402 1145.91 259.544C901.048 14.685 504.054 14.685 259.195 259.544C14.3361 504.402 14.3361 901.397 259.195 1146.26C504.054 1391.11 901.048 1391.11 1145.91 1146.26Z" fill="#BCE3E3"/>
<path d="M702.9 1284.8C381.7 1284.8 121 1024.1 121 702.9C121 381.7 381.7 119.9 702.9 119.9C1024.1 119.9 1284.8 380.6 1284.8 701.8C1284.8 1023 1024.1 1283.7 702.9 1283.7V1284.8Z" fill="#69B0EB"/>
<path d="M702.9 752.4C730.238 752.4 752.4 730.238 752.4 702.9C752.4 675.562 730.238 653.4 702.9 653.4C675.562 653.4 653.4 675.562 653.4 702.9C653.4 730.238 675.562 752.4 702.9 752.4Z" fill="#262856"/>
<path d="M257.4 702.9C257.4 719.4 244.2 732.6 227.7 732.6C211.2 732.6 198 719.4 198 702.9C198 686.4 211.2 673.2 227.7 673.2C244.2 673.2 257.4 686.4 257.4 702.9Z" fill="#262856"/>
<path d="M918.5 161.7C1046.1 268.4 1126.4 429 1126.4 607.2C1126.4 928.4 865.7 1189.1 544.5 1189.1C223.3 1189.1 394.9 1174.8 328.9 1147.3C430.1 1232 561 1283.7 702.9 1283.7C1024.1 1283.7 1284.8 1023 1284.8 701.8C1284.8 380.6 1133 246.4 918.5 160.6V161.7Z" fill="#54A4DB"/>
<path opacity="0.2" d="M603.9 128.7L150.7 887.7C158.4 910.8 167.2 932.8 178.2 954.8L676.5 121C652.3 121 628.1 124.3 605 128.7H603.9Z" fill="white"/>
<path opacity="0.2" d="M777.7 125.4L229.9 1041.7C257.4 1080.2 289.3 1114.3 324.5 1145.1L913 159.5C870.1 143 823.9 130.9 776.6 124.3L777.7 125.4Z" fill="white"/>
<path d="M1148.4 702.9C1148.4 719.4 1161.6 732.6 1178.1 732.6C1194.6 732.6 1207.8 719.4 1207.8 702.9C1207.8 686.4 1194.6 673.2 1178.1 673.2C1161.6 673.2 1148.4 686.4 1148.4 702.9Z" fill="#262856"/>
<path d="M702.9 257.4C719.303 257.4 732.6 244.103 732.6 227.7C732.6 211.297 719.303 198 702.9 198C686.497 198 673.2 211.297 673.2 227.7C673.2 244.103 686.497 257.4 702.9 257.4Z" fill="#262856"/>
<path d="M702.9 1206.7C719.303 1206.7 732.6 1193.4 732.6 1177C732.6 1160.6 719.303 1147.3 702.9 1147.3C686.497 1147.3 673.2 1160.6 673.2 1177C673.2 1193.4 686.497 1206.7 702.9 1206.7Z" fill="#262856"/>
<path d="M387.2 387.2C376.2 398.2 357.5 398.2 345.4 387.2C334.4 376.2 334.4 357.5 345.4 345.4C356.4 334.4 375.1 334.4 387.2 345.4C399.3 356.4 398.2 375.1 387.2 387.2Z" fill="#262856"/>
<path d="M1038.4 1068.1C1054.8 1068.1 1068.1 1054.8 1068.1 1038.4C1068.1 1022 1054.8 1008.7 1038.4 1008.7C1022 1008.7 1008.7 1022 1008.7 1038.4C1008.7 1054.8 1022 1068.1 1038.4 1068.1Z" fill="#262856"/>
<path d="M387.2 1017.5C398.2 1028.5 398.2 1047.2 387.2 1059.3C376.2 1071.4 357.5 1070.3 345.4 1059.3C334.4 1048.3 334.4 1029.6 345.4 1017.5C356.4 1006.5 375.1 1006.5 387.2 1017.5Z" fill="#262856"/>
<path d="M1017.5 387.2C1028.5 398.2 1047.2 398.2 1059.3 387.2C1070.3 376.2 1070.3 357.5 1059.3 345.4C1048.3 334.4 1029.6 334.4 1017.5 345.4C1005.4 356.4 1006.5 375.1 1017.5 387.2Z" fill="#262856"/>
<path d="M715 300.3H684.2V705.1H715V300.3Z" fill="#262856"/>
<path d="M717.954 690.659L686.842 721.771L973.079 1008.01L1004.19 976.895L717.954 690.659Z" fill="#262856"/>
</g>
<defs>
<clipPath id="clip0_478_19069">
<rect width="1404.7" height="1404.7" fill="white"/>
</clipPath>
</defs>
</svg>
