<?xml version="1.0" encoding="UTF-8"?>
<svg xmlns="http://www.w3.org/2000/svg" version="1.1" xmlns:xlink="http://www.w3.org/1999/xlink" viewBox="0 0 2665 1018.6">
  <defs>
    <style>
      .cls-1 {
        fill: url(#linear-gradient-8);
      }

      .cls-1, .cls-2, .cls-3, .cls-4, .cls-5, .cls-6, .cls-7, .cls-8, .cls-9, .cls-10, .cls-11, .cls-12, .cls-13, .cls-14, .cls-15, .cls-16, .cls-17, .cls-18, .cls-19, .cls-20, .cls-21, .cls-22, .cls-23, .cls-24, .cls-25, .cls-26, .cls-27, .cls-28, .cls-29, .cls-30, .cls-31, .cls-32, .cls-33, .cls-34, .cls-35, .cls-36, .cls-37, .cls-38, .cls-39, .cls-40, .cls-41, .cls-42, .cls-43, .cls-44, .cls-45, .cls-46, .cls-47, .cls-48, .cls-49, .cls-50, .cls-51, .cls-52, .cls-53, .cls-54, .cls-55, .cls-56, .cls-57, .cls-58, .cls-59, .cls-60, .cls-61, .cls-62, .cls-63, .cls-64, .cls-65, .cls-66, .cls-67, .cls-68, .cls-69, .cls-70, .cls-71, .cls-72, .cls-73, .cls-74, .cls-75, .cls-76 {
        stroke-width: 0px;
      }

      .cls-1, .cls-2, .cls-3, .cls-4, .cls-5, .cls-7, .cls-8, .cls-9, .cls-10, .cls-11, .cls-12, .cls-13, .cls-14, .cls-15, .cls-16, .cls-17, .cls-19, .cls-20, .cls-21, .cls-22, .cls-23, .cls-24, .cls-25, .cls-26, .cls-27, .cls-28, .cls-29, .cls-30, .cls-31, .cls-32, .cls-33, .cls-34, .cls-35, .cls-36, .cls-37, .cls-38, .cls-39, .cls-40, .cls-41, .cls-42, .cls-43, .cls-44, .cls-45, .cls-47, .cls-48, .cls-49, .cls-50, .cls-51, .cls-52, .cls-53, .cls-54, .cls-55, .cls-56, .cls-57, .cls-58, .cls-59, .cls-60, .cls-61, .cls-62, .cls-63, .cls-64, .cls-65, .cls-66, .cls-68, .cls-69, .cls-71, .cls-72, .cls-73, .cls-74, .cls-75, .cls-76 {
        mix-blend-mode: multiply;
      }

      .cls-1, .cls-2, .cls-5, .cls-9, .cls-11, .cls-12, .cls-13, .cls-14, .cls-15, .cls-16, .cls-17, .cls-19, .cls-20, .cls-21, .cls-22, .cls-25, .cls-26, .cls-27, .cls-28, .cls-30, .cls-31, .cls-32, .cls-33, .cls-34, .cls-37, .cls-40, .cls-42, .cls-44, .cls-45, .cls-47, .cls-48, .cls-49, .cls-50, .cls-52, .cls-53, .cls-55, .cls-57, .cls-58, .cls-59, .cls-60, .cls-62, .cls-65, .cls-66, .cls-68, .cls-71, .cls-74, .cls-75, .cls-76 {
        opacity: .5;
      }

      .cls-2 {
        fill: url(#linear-gradient-61);
      }

      .cls-3 {
        fill: url(#linear-gradient-62);
      }

      .cls-3, .cls-4, .cls-7, .cls-8, .cls-10, .cls-23, .cls-24, .cls-29, .cls-36, .cls-38, .cls-39, .cls-41, .cls-43, .cls-51, .cls-54, .cls-56, .cls-61, .cls-63, .cls-64, .cls-69, .cls-72, .cls-73 {
        opacity: .3;
      }

      .cls-4 {
        fill: url(#linear-gradient-26);
      }

      .cls-5 {
        fill: url(#linear-gradient-41);
      }

      .cls-6 {
        fill: url(#linear-gradient);
      }

      .cls-7 {
        fill: url(#linear-gradient-30);
      }

      .cls-8 {
        fill: url(#linear-gradient-29);
      }

      .cls-9 {
        fill: url(#linear-gradient-9);
      }

      .cls-10 {
        fill: url(#linear-gradient-71);
      }

      .cls-11 {
        fill: url(#linear-gradient-18);
      }

      .cls-12 {
        fill: url(#linear-gradient-59);
      }

      .cls-13 {
        fill: url(#linear-gradient-53);
      }

      .cls-77 {
        isolation: isolate;
      }

      .cls-14 {
        fill: url(#linear-gradient-39);
      }

      .cls-15 {
        fill: url(#linear-gradient-51);
      }

      .cls-16 {
        fill: url(#linear-gradient-20);
      }

      .cls-17 {
        fill: url(#linear-gradient-46);
      }

      .cls-18 {
        fill: #f0f2f1;
      }

      .cls-19 {
        fill: url(#linear-gradient-49);
      }

      .cls-20 {
        fill: url(#linear-gradient-5);
      }

      .cls-21 {
        fill: url(#linear-gradient-56);
      }

      .cls-22 {
        fill: url(#linear-gradient-22);
      }

      .cls-23 {
        fill: url(#linear-gradient-35);
      }

      .cls-24 {
        fill: url(#linear-gradient-72);
      }

      .cls-25 {
        fill: url(#linear-gradient-45);
      }

      .cls-26 {
        fill: url(#linear-gradient-12);
      }

      .cls-27 {
        fill: url(#linear-gradient-55);
      }

      .cls-28 {
        fill: url(#linear-gradient-50);
      }

      .cls-29 {
        fill: url(#linear-gradient-66);
      }

      .cls-30 {
        fill: url(#linear-gradient-13);
      }

      .cls-31 {
        fill: url(#linear-gradient-19);
      }

      .cls-32 {
        fill: url(#linear-gradient-11);
      }

      .cls-33 {
        fill: url(#linear-gradient-4);
      }

      .cls-34 {
        fill: url(#linear-gradient-16);
      }

      .cls-35 {
        fill: #9e6818;
      }

      .cls-36 {
        fill: url(#linear-gradient-28);
      }

      .cls-37 {
        fill: url(#linear-gradient-21);
      }

      .cls-38 {
        fill: url(#linear-gradient-65);
      }

      .cls-39 {
        fill: url(#linear-gradient-67);
      }

      .cls-40 {
        fill: url(#linear-gradient-6);
      }

      .cls-41 {
        fill: url(#linear-gradient-63);
      }

      .cls-42 {
        fill: url(#linear-gradient-44);
      }

      .cls-78 {
        opacity: .2;
      }

      .cls-43 {
        fill: url(#linear-gradient-32);
      }

      .cls-44 {
        fill: url(#linear-gradient-54);
      }

      .cls-45 {
        fill: url(#linear-gradient-58);
      }

      .cls-46 {
        fill: #ddae85;
      }

      .cls-47 {
        fill: url(#linear-gradient-60);
      }

      .cls-48 {
        fill: url(#linear-gradient-52);
      }

      .cls-49 {
        fill: url(#linear-gradient-24);
      }

      .cls-50 {
        fill: url(#linear-gradient-15);
      }

      .cls-51 {
        fill: url(#linear-gradient-27);
      }

      .cls-52 {
        fill: url(#linear-gradient-3);
      }

      .cls-53 {
        fill: url(#linear-gradient-10);
      }

      .cls-54 {
        fill: url(#linear-gradient-64);
      }

      .cls-55 {
        fill: url(#linear-gradient-38);
      }

      .cls-56 {
        fill: url(#linear-gradient-34);
      }

      .cls-57 {
        fill: url(#linear-gradient-25);
      }

      .cls-58 {
        fill: url(#linear-gradient-40);
      }

      .cls-59 {
        fill: url(#linear-gradient-17);
      }

      .cls-60 {
        fill: url(#linear-gradient-48);
      }

      .cls-61 {
        fill: url(#linear-gradient-70);
      }

      .cls-62 {
        fill: url(#linear-gradient-42);
      }

      .cls-63 {
        fill: url(#linear-gradient-68);
      }

      .cls-64 {
        fill: url(#linear-gradient-36);
      }

      .cls-65 {
        fill: url(#linear-gradient-23);
      }

      .cls-66 {
        fill: url(#linear-gradient-47);
      }

      .cls-67 {
        fill: #cadbd6;
      }

      .cls-68 {
        fill: url(#linear-gradient-14);
      }

      .cls-69 {
        fill: url(#linear-gradient-33);
      }

      .cls-70 {
        fill: url(#linear-gradient-37);
      }

      .cls-71 {
        fill: url(#linear-gradient-2);
      }

      .cls-72 {
        fill: url(#linear-gradient-31);
      }

      .cls-73 {
        fill: url(#linear-gradient-69);
      }

      .cls-74 {
        fill: url(#linear-gradient-7);
      }

      .cls-75 {
        fill: url(#linear-gradient-43);
      }

      .cls-76 {
        fill: url(#linear-gradient-57);
      }
    </style>
    <linearGradient id="linear-gradient" x1="1343.4" y1="-21.7" x2="1320.9" y2="578.1" gradientUnits="userSpaceOnUse">
      <stop offset="0" stop-color="#b68f61"/>
      <stop offset="1" stop-color="#b7785a"/>
    </linearGradient>
    <linearGradient id="linear-gradient-2" x1="1330" y1="83.3" x2="1330" y2="92" xlink:href="#linear-gradient"/>
    <linearGradient id="linear-gradient-3" x1="1330" y1="121" x2="1330" y2="129.7" xlink:href="#linear-gradient"/>
    <linearGradient id="linear-gradient-4" x1="1330" y1="158.7" x2="1330" y2="167.4" xlink:href="#linear-gradient"/>
    <linearGradient id="linear-gradient-5" x1="1330" y1="196.4" x2="1330" y2="205.1" xlink:href="#linear-gradient"/>
    <linearGradient id="linear-gradient-6" x1="1330" y1="234.1" x2="1330" y2="242.8" xlink:href="#linear-gradient"/>
    <linearGradient id="linear-gradient-7" x1="1330" y1="271.8" x2="1330" y2="280.5" xlink:href="#linear-gradient"/>
    <linearGradient id="linear-gradient-8" x1="1330" y1="309.5" x2="1330" y2="318.2" xlink:href="#linear-gradient"/>
    <linearGradient id="linear-gradient-9" x1="1330" y1="347.2" x2="1330" y2="355.9" xlink:href="#linear-gradient"/>
    <linearGradient id="linear-gradient-10" x1="1330" y1="384.9" x2="1330" y2="393.6" xlink:href="#linear-gradient"/>
    <linearGradient id="linear-gradient-11" x1="1330" y1="422.7" x2="1330" y2="431.3" xlink:href="#linear-gradient"/>
    <linearGradient id="linear-gradient-12" x1="1330" y1="460.4" x2="1330" y2="469" xlink:href="#linear-gradient"/>
    <linearGradient id="linear-gradient-13" x1="1330" y1="498.1" x2="1330" y2="506.7" xlink:href="#linear-gradient"/>
    <linearGradient id="linear-gradient-14" x1="1330" y1="84.5" x2="1330" y2="93.2" xlink:href="#linear-gradient"/>
    <linearGradient id="linear-gradient-15" x1="1330" y1="122.3" x2="1330" y2="130.9" xlink:href="#linear-gradient"/>
    <linearGradient id="linear-gradient-16" x1="1330" y1="160" x2="1330" y2="168.6" xlink:href="#linear-gradient"/>
    <linearGradient id="linear-gradient-17" x1="1330" y1="197.7" x2="1330" y2="206.4" xlink:href="#linear-gradient"/>
    <linearGradient id="linear-gradient-18" x1="1330" y1="235.4" x2="1330" y2="244.1" xlink:href="#linear-gradient"/>
    <linearGradient id="linear-gradient-19" x1="1330" y1="273.1" x2="1330" y2="281.8" xlink:href="#linear-gradient"/>
    <linearGradient id="linear-gradient-20" x1="1330" y1="310.8" x2="1330" y2="319.5" xlink:href="#linear-gradient"/>
    <linearGradient id="linear-gradient-21" x1="1330" y1="348.5" x2="1330" y2="357.2" xlink:href="#linear-gradient"/>
    <linearGradient id="linear-gradient-22" x1="1330" y1="386.2" x2="1330" y2="394.9" xlink:href="#linear-gradient"/>
    <linearGradient id="linear-gradient-23" x1="1330" y1="423.9" x2="1330" y2="432.6" xlink:href="#linear-gradient"/>
    <linearGradient id="linear-gradient-24" x1="1330" y1="461.6" x2="1330" y2="470.3" xlink:href="#linear-gradient"/>
    <linearGradient id="linear-gradient-25" x1="1330" y1="499.3" x2="1330" y2="508" xlink:href="#linear-gradient"/>
    <linearGradient id="linear-gradient-26" x1="877.5" y1="145.4" x2="2688.8" y2="145.4" xlink:href="#linear-gradient"/>
    <linearGradient id="linear-gradient-27" x1="1490" y1="143.7" x2="2688.8" y2="143.7" xlink:href="#linear-gradient"/>
    <linearGradient id="linear-gradient-28" x1="-26.9" y1="222.3" x2="1654.9" y2="222.3" xlink:href="#linear-gradient"/>
    <linearGradient id="linear-gradient-29" x1="-26.9" y1="222.3" x2="1080.4" y2="222.3" xlink:href="#linear-gradient"/>
    <linearGradient id="linear-gradient-30" x1="959.2" y1="279.1" x2="2688.8" y2="279.1" xlink:href="#linear-gradient"/>
    <linearGradient id="linear-gradient-31" x1="1343.7" y1="278.6" x2="2688.8" y2="278.6" xlink:href="#linear-gradient"/>
    <linearGradient id="linear-gradient-32" x1="1290.8" y1="426.9" x2="2688.8" y2="426.9" xlink:href="#linear-gradient"/>
    <linearGradient id="linear-gradient-33" x1="1584.7" y1="419.3" x2="2692.6" y2="419.3" xlink:href="#linear-gradient"/>
    <linearGradient id="linear-gradient-34" x1=".6" y1="332.7" x2="1764.9" y2="332.7" xlink:href="#linear-gradient"/>
    <linearGradient id="linear-gradient-35" x1="355.9" y1="333.4" x2="1222.4" y2="333.4" xlink:href="#linear-gradient"/>
    <linearGradient id="linear-gradient-36" x1="90.5" y1="447.5" x2="1596.7" y2="447.5" xlink:href="#linear-gradient"/>
    <linearGradient id="linear-gradient-37" x1="-4312.4" y1="468.7" x2="-4335.3" y2="1078.7" gradientTransform="translate(-2990.9 1574.3) rotate(-180)" xlink:href="#linear-gradient"/>
    <linearGradient id="linear-gradient-38" x1="-4326" y1="574.7" x2="-4326" y2="583.6" gradientTransform="translate(-2990.9 1574.3) rotate(-180)" xlink:href="#linear-gradient"/>
    <linearGradient id="linear-gradient-39" x1="-4326" y1="613.2" x2="-4326" y2="622.1" gradientTransform="translate(-2990.9 1574.3) rotate(-180)" xlink:href="#linear-gradient"/>
    <linearGradient id="linear-gradient-40" x1="-4326" y1="651.7" x2="-4326" y2="660.5" gradientTransform="translate(-2990.9 1574.3) rotate(-180)" xlink:href="#linear-gradient"/>
    <linearGradient id="linear-gradient-41" x1="-4326" y1="690.2" x2="-4326" y2="699" gradientTransform="translate(-2990.9 1574.3) rotate(-180)" xlink:href="#linear-gradient"/>
    <linearGradient id="linear-gradient-42" x1="-4326" y1="728.6" x2="-4326" y2="737.5" gradientTransform="translate(-2990.9 1574.3) rotate(-180)" xlink:href="#linear-gradient"/>
    <linearGradient id="linear-gradient-43" x1="-4326" y1="767.1" x2="-4326" y2="776" gradientTransform="translate(-2990.9 1574.3) rotate(-180)" xlink:href="#linear-gradient"/>
    <linearGradient id="linear-gradient-44" x1="-4326" y1="805.6" x2="-4326" y2="814.5" gradientTransform="translate(-2990.9 1574.3) rotate(-180)" xlink:href="#linear-gradient"/>
    <linearGradient id="linear-gradient-45" x1="-4326" y1="844.1" x2="-4326" y2="852.9" gradientTransform="translate(-2990.9 1574.3) rotate(-180)" xlink:href="#linear-gradient"/>
    <linearGradient id="linear-gradient-46" x1="-4326" y1="882.6" x2="-4326" y2="891.4" gradientTransform="translate(-2990.9 1574.3) rotate(-180)" xlink:href="#linear-gradient"/>
    <linearGradient id="linear-gradient-47" x1="-4326" y1="921" x2="-4326" y2="929.9" gradientTransform="translate(-2990.9 1574.3) rotate(-180)" xlink:href="#linear-gradient"/>
    <linearGradient id="linear-gradient-48" x1="-4326" y1="959.5" x2="-4326" y2="968.4" gradientTransform="translate(-2990.9 1574.3) rotate(-180)" xlink:href="#linear-gradient"/>
    <linearGradient id="linear-gradient-49" x1="-4326" y1="998" x2="-4326" y2="1006.9" gradientTransform="translate(-2990.9 1574.3) rotate(-180)" xlink:href="#linear-gradient"/>
    <linearGradient id="linear-gradient-50" x1="-4326" y1="576" x2="-4326" y2="584.9" gradientTransform="translate(-2990.9 1574.3) rotate(-180)" xlink:href="#linear-gradient"/>
    <linearGradient id="linear-gradient-51" x1="-4326" y1="614.5" x2="-4326" y2="623.3" gradientTransform="translate(-2990.9 1574.3) rotate(-180)" xlink:href="#linear-gradient"/>
    <linearGradient id="linear-gradient-52" x1="-4326" y1="653" x2="-4326" y2="661.8" gradientTransform="translate(-2990.9 1574.3) rotate(-180)" xlink:href="#linear-gradient"/>
    <linearGradient id="linear-gradient-53" x1="-4326" y1="691.4" x2="-4326" y2="700.3" gradientTransform="translate(-2990.9 1574.3) rotate(-180)" xlink:href="#linear-gradient"/>
    <linearGradient id="linear-gradient-54" x1="-4326" y1="729.9" x2="-4326" y2="738.8" gradientTransform="translate(-2990.9 1574.3) rotate(-180)" xlink:href="#linear-gradient"/>
    <linearGradient id="linear-gradient-55" x1="-4326" y1="768.4" x2="-4326" y2="777.3" gradientTransform="translate(-2990.9 1574.3) rotate(-180)" xlink:href="#linear-gradient"/>
    <linearGradient id="linear-gradient-56" x1="-4326" y1="806.9" x2="-4326" y2="815.7" gradientTransform="translate(-2990.9 1574.3) rotate(-180)" xlink:href="#linear-gradient"/>
    <linearGradient id="linear-gradient-57" x1="-4326" y1="845.4" x2="-4326" y2="854.2" gradientTransform="translate(-2990.9 1574.3) rotate(-180)" xlink:href="#linear-gradient"/>
    <linearGradient id="linear-gradient-58" x1="-4326" y1="883.8" x2="-4326" y2="892.7" gradientTransform="translate(-2990.9 1574.3) rotate(-180)" xlink:href="#linear-gradient"/>
    <linearGradient id="linear-gradient-59" x1="-4326" y1="922.3" x2="-4326" y2="931.2" gradientTransform="translate(-2990.9 1574.3) rotate(-180)" xlink:href="#linear-gradient"/>
    <linearGradient id="linear-gradient-60" x1="-4326" y1="960.8" x2="-4326" y2="969.7" gradientTransform="translate(-2990.9 1574.3) rotate(-180)" xlink:href="#linear-gradient"/>
    <linearGradient id="linear-gradient-61" x1="-4326" y1="999.3" x2="-4326" y2="1008.1" gradientTransform="translate(-2990.9 1574.3) rotate(-180)" xlink:href="#linear-gradient"/>
    <linearGradient id="linear-gradient-62" x1="-4778.4" y1="638.1" x2="-2967.1" y2="638.1" gradientTransform="translate(-2990.9 1574.3) rotate(-180)" xlink:href="#linear-gradient"/>
    <linearGradient id="linear-gradient-63" x1="-4166" y1="636.4" x2="-2967.1" y2="636.4" gradientTransform="translate(-2990.9 1574.3) rotate(-180)" xlink:href="#linear-gradient"/>
    <linearGradient id="linear-gradient-64" x1="-5682.9" y1="716.6" x2="-4001.1" y2="716.6" gradientTransform="translate(-2990.9 1574.3) rotate(-180)" xlink:href="#linear-gradient"/>
    <linearGradient id="linear-gradient-65" x1="-5682.9" y1="716.6" x2="-4575.6" y2="716.6" gradientTransform="translate(-2990.9 1574.3) rotate(-180)" xlink:href="#linear-gradient"/>
    <linearGradient id="linear-gradient-66" x1="-4696.8" y1="774.6" x2="-2967.1" y2="774.6" gradientTransform="translate(-2990.9 1574.3) rotate(-180)" xlink:href="#linear-gradient"/>
    <linearGradient id="linear-gradient-67" x1="-4312.2" y1="774" x2="-2967.1" y2="774" gradientTransform="translate(-2990.9 1574.3) rotate(-180)" xlink:href="#linear-gradient"/>
    <linearGradient id="linear-gradient-68" x1="-4365.2" y1="925.4" x2="-2967.1" y2="925.4" gradientTransform="translate(-2990.9 1574.3) rotate(-180)" xlink:href="#linear-gradient"/>
    <linearGradient id="linear-gradient-69" x1="-4071.2" y1="917.6" x2="-2963.4" y2="917.6" gradientTransform="translate(-2990.9 1574.3) rotate(-180)" xlink:href="#linear-gradient"/>
    <linearGradient id="linear-gradient-70" x1="-5655.3" y1="829.2" x2="-3891" y2="829.2" gradientTransform="translate(-2990.9 1574.3) rotate(-180)" xlink:href="#linear-gradient"/>
    <linearGradient id="linear-gradient-71" x1="-5300" y1="829.9" x2="-4433.6" y2="829.9" gradientTransform="translate(-2990.9 1574.3) rotate(-180)" xlink:href="#linear-gradient"/>
    <linearGradient id="linear-gradient-72" x1="-5565.4" y1="946.4" x2="-4059.3" y2="946.4" gradientTransform="translate(-2990.9 1574.3) rotate(-180)" xlink:href="#linear-gradient"/>
  </defs>
  <g class="cls-77">
    <g id="Layer_1" data-name="Layer 1">
      <rect class="cls-46" x="-9.5" y="51" width="2678.5" height="485.8"/>
      <rect class="cls-67" x="-12" width="2685.1" height="51"/>
      <rect class="cls-18" x="-12" width="2685.1" height="9.7"/>
      <g class="cls-78">
        <rect class="cls-6" x="-26.9" y="51" width="2716.9" height="485.8"/>
        <g>
          <rect class="cls-71" x="-26.9" y="88.7" width="2713.8" height="2.6"/>
          <rect class="cls-52" x="-26.9" y="126.4" width="2713.8" height="2.6"/>
          <rect class="cls-33" x="-26.9" y="164.1" width="2713.8" height="2.6"/>
          <rect class="cls-20" x="-26.9" y="201.9" width="2713.8" height="2.6"/>
          <rect class="cls-40" x="-26.9" y="239.6" width="2713.8" height="2.6"/>
          <rect class="cls-74" x="-26.9" y="277.3" width="2713.8" height="2.6"/>
          <rect class="cls-1" x="-26.9" y="315" width="2713.8" height="2.6"/>
          <rect class="cls-9" x="-26.9" y="352.7" width="2713.8" height="2.6"/>
          <rect class="cls-53" x="-26.9" y="390.4" width="2713.8" height="2.6"/>
          <rect class="cls-32" x="-26.9" y="428.1" width="2713.8" height="2.6"/>
          <rect class="cls-26" x="-26.9" y="465.8" width="2713.8" height="2.6"/>
          <rect class="cls-30" x="-26.9" y="503.5" width="2713.8" height="2.6"/>
        </g>
        <g>
          <rect class="cls-68" x="-26.9" y="90" width="2713.8" height="2.6"/>
          <rect class="cls-50" x="-26.9" y="127.7" width="2713.8" height="2.6"/>
          <rect class="cls-34" x="-26.9" y="165.4" width="2713.8" height="2.6"/>
          <rect class="cls-59" x="-26.9" y="203.1" width="2713.8" height="2.6"/>
          <rect class="cls-11" x="-26.9" y="240.8" width="2713.8" height="2.6"/>
          <rect class="cls-31" x="-26.9" y="278.5" width="2713.8" height="2.6"/>
          <rect class="cls-16" x="-26.9" y="316.2" width="2713.8" height="2.6"/>
          <rect class="cls-37" x="-26.9" y="353.9" width="2713.8" height="2.6"/>
          <rect class="cls-22" x="-26.9" y="391.6" width="2713.8" height="2.6"/>
          <rect class="cls-65" x="-26.9" y="429.4" width="2713.8" height="2.6"/>
          <rect class="cls-49" x="-26.9" y="467.1" width="2713.8" height="2.6"/>
          <rect class="cls-57" x="-26.9" y="504.8" width="2713.8" height="2.6"/>
        </g>
        <path class="cls-35" d="M891.5,72.1c-109.5,0-194.4-.2-230.1-.8-154.6-2.5-684.1-4.4-688.3-4.4s-.5,0-.5-.2.2-.2.5-.2c4.2,0,533.7,1.9,688.4,4.4,82.4,1.4,427.7.7,732.4.1,259.3-.5,504.3-1,541.8-.1,80.6,1.9,738.2-3.7,744.8-3.8.3,0,.5,0,.5.2,0,0-.2.2-.5.2-6.6,0-664.2,5.6-744.9,3.8-37.5-.9-282.5-.4-541.7.1-172.8.3-358.7.7-502.3.7h0Z"/>
        <path class="cls-35" d="M891.5,117.3c-109.5,0-194.4-.2-230.1-.8-154.6-2.5-684.1-4.4-688.3-4.4s-.5,0-.5-.2.2-.2.5-.2c4.2,0,533.7,1.9,688.4,4.4,82.4,1.4,427.7.7,732.4.1,259.3-.5,504.3-1,541.8-.1,80.6,1.9,738.2-3.7,744.8-3.8.3,0,.5,0,.5.2,0,0-.2.2-.5.2-6.6,0-664.2,5.6-744.9,3.8-37.5-.9-282.5-.4-541.7.1-172.8.3-358.7.7-502.3.7h0Z"/>
        <path class="cls-35" d="M2145.9,80.2c-124.3,0-237.2-.3-296.1-1.4-175.8-3.1-1859.7,1.2-1876.7,1.3-.3,0-.5,0-.5-.2,0,0,.2-.2.5-.2,17,0,1701-4.4,1876.8-1.3,175.8,3.1,832.4,0,839,0h0c.3,0,.5,0,.5.2,0,0-.2.2-.5.2-4.4,0-296.2,1.4-542.9,1.4h0Z"/>
        <path class="cls-35" d="M-26.9,107.1c-.3,0-.5,0-.5-.1,0,0,.2-.2.5-.2,13-.3,318.2-6.3,330.7-5.7,6.5.3,224.1,1.6,451.1,2.2,170,.5,465.5.9,534.2-1.6,87.4-3.1,564.6-1.5,849.7-.5,120.3.4,207.2.7,223.7.5,55.9-.6,323.7,0,326.4,0,.3,0,.5,0,.5.2,0,0-.2.2-.5.2h0c-2.7,0-270.5-.6-326.4,0-16.5.2-103.4-.1-223.7-.5-285.1-1-762.2-2.6-849.6.5-68.8,2.5-364.4,2-534.4,1.6-227-.6-444.7-1.9-451.2-2.2-12.4-.6-327.3,5.6-330.5,5.7h0Z"/>
        <path class="cls-35" d="M1138.9,145.6c-18.4,0-31.7,0-38.1-.2-55.7-1.3-486.9-6.3-558.5-3.1-28.6,1.3-145,1.8-537.3-2.9-12.9-.2-20.6-.2-21.4-.2s-.5,0-.5-.2.2-.2.5-.2c.8,0,8.1,0,21.4.2,392.3,4.7,508.6,4.2,537.1,2.9,71.6-3.2,503.1,1.9,558.7,3.1,53.1,1.2,573.2-3.1,604.6-4.4,29.5-1.2,484.6,2.4,500.2,3.1,12.4.6,478.5-1.9,483.2-1.9.3,0,.5,0,.5.2,0,0-.2.2-.5.2-19.2.1-471,2.5-483.4,1.9-15.6-.8-470.4-4.3-499.9-3.1-27.6,1.1-432.9,4.6-566.7,4.6h0Z"/>
        <path class="cls-35" d="M1577.9,156.7c-59.2,0-708.2-1.2-751.1-1.9-41.4-.6-845.5-1.9-853.6-1.9-.3,0-.5,0-.5-.2,0,0,.2-.2.5-.2h0c8.1,0,812.3,1.3,853.7,1.9,42.9.6,691.9,1.9,751.1,1.9s662.2-3.7,749-5c82.8-1.2,353,1.2,355.7,1.3.3,0,.5,0,.5.2,0,0-.2.2-.5.2h0c-2.7,0-272.9-2.5-355.6-1.3-86.8,1.3-689.3,5-749.1,5h0Z"/>
        <path class="cls-35" d="M1152.3,183.4c-195,0-484-.6-526.4-1.5-55.8-1.2-646.8-5-652.8-5-.3,0-.5,0-.5-.2s.2-.2.5-.2c6,0,596.9,3.8,652.8,5,58.3,1.3,583.4,1.9,688.3,1.3,21.4-.1,67.7-.5,126.3-1.1,243.8-2.2,697.7-6.2,763-2.7,80.6,4.3,475-1.8,479-1.9.3,0,.5,0,.6.1s-.2.2-.5.2c-4,0-398.5,6.2-479.3,1.9-65.2-3.5-519,.5-762.8,2.7-58.6.5-104.9.9-126.3,1.1-28.6.2-88.7.2-162,.2h0Z"/>
        <path class="cls-35" d="M1115,194.4c-100.8,0-242.7-1.1-357.4-2-95.9-.7-178.6-1.4-207-1.1-80.7.6-566.3-5-571.2-5-.3,0-.5,0-.5-.2,0,0,.2-.2.5-.2,4.9,0,490.5,5.7,571.1,5,28.4-.2,111.2.4,207.1,1.1,178,1.4,421.8,3.2,475,.7,45.1-2.1,383.8-3.4,682.6-4.6,240.8-.9,468.2-1.8,495.3-3,60.1-2.5,265.9,6.8,268,6.9.3,0,.5,0,.4.2,0,0-.3.1-.6.1-2.1,0-207.7-9.4-267.7-6.9-27.2,1.1-254.7,2-495.5,3-298.8,1.2-637.5,2.5-682.5,4.6-19,.9-62.1,1.2-117.7,1.2h0Z"/>
        <path class="cls-35" d="M1187.4,217.8c-51.9,0-147.1-.4-246.8-.9-166.1-.7-354.3-1.6-362.7-.5-14.6,1.9-580.8.7-604.9.6-.3,0-.5,0-.5-.2,0,0,.2-.2.5-.2h0c5.9,0,590.1,1.2,604.5-.6,8.6-1.1,188.8-.3,363.1.5,122.6.5,238.4,1,275.2.8,16.6-.1,54.7-.5,107.4-.9,224.5-2,691.6-6.1,717.1-4.1,31,2.5,642.3.6,648.5.6h0c.3,0,.5,0,.5.2,0,0-.2.2-.5.2-6.2,0-617.6,1.9-648.7-.6-25.4-2-492.4,2.1-716.8,4.1-52.7.5-90.7.8-107.4.9-6.9,0-16.5,0-28.5,0h0Z"/>
        <path class="cls-35" d="M431.6,234.8c-40.5,0-66.9,0-69.4-.2-12.4-.6-377-4.4-380.7-4.4-.3,0-.5,0-.5-.2,0,0,.3-.1.5-.2,15,.2,368.4,3.8,380.9,4.4,12.4.6,606.9-.6,612.9-.6,6.7-.1,674.6-13.8,751.1-15.7,76.6-1.9,947.4,11.2,956.2,11.3.3,0,.5,0,.5.2,0,0-.2.2-.6.1-8.8-.1-879.6-13.2-956.1-11.3-76.5,1.9-744.4,15.6-751.1,15.7-19.5,0-387.2.8-543.7.8h0Z"/>
        <path class="cls-35" d="M2050.2,261.1c-1.7,0-2.9,0-3.8,0-23.5-.5-474.5-5.2-716.7-7.8-82.2-.9-141.6-1.5-155.7-1.7-32.4-.4-214.8,1.2-375.7,2.5-118.9,1-231.2,1.9-262.4,1.9-72.4,0-557.9-3.1-562.8-3.1-.3,0-.5,0-.5-.2s.2-.2.5-.2c4.9,0,490.4,3.1,562.8,3.1s143.5-.9,262.4-1.9c160.9-1.3,343.4-2.8,375.8-2.5,14.1.2,73.5.8,155.7,1.6,242.3,2.6,693.2,7.3,716.7,7.8,31,.6,636.1-10.6,642.3-10.7.3,0,.5,0,.6.1,0,0-.2.2-.5.2-5.9.1-579,10.7-638.6,10.7h0Z"/>
        <path class="cls-35" d="M2682.6,269.9h0c-8.8,0-881.6-4.4-947.7-2.5-62.3,1.8-1017.9-1.1-1096.4-2.5-70.3-1.2-414.9,2.5-418.4,2.5l-246.9.6c-.3,0-.5,0-.5-.2,0,0,.2-.2.5-.2l246.9-.6c3.5,0,348.1-3.8,418.5-2.5,78.5,1.4,1034,4.3,1096.3,2.5,66.2-1.9,939,2.5,947.8,2.5.3,0,.5,0,.5.2,0,0-.2.2-.5.2h0Z"/>
        <path class="cls-35" d="M1387.5,296.9c-6.2,0-617.7-7.6-657.1-9.4-39.3-1.9-750.1,2.5-757.3,2.5h0c-.3,0-.5,0-.5-.2,0,0,.2-.2.5-.2,7.2,0,718.1-4.4,757.5-2.5,39.3,1.9,650.7,9.4,656.9,9.4l491.6-7.5,809.7,2.5c.3,0,.5,0,.5.2,0,0-.2.2-.5.2h0l-809.7-2.5-491.6,7.5h0Z"/>
        <path class="cls-35" d="M2680.5,308.8h0l-592.1-9.4c-9,0-900.5,8.2-968.7,7.5-13.9-.1-50-.5-99.9-1.1-195.6-2.2-602.6-6.7-625.9-5.2-29,1.9-416.7,2.5-420.6,2.5-.3,0-.5,0-.5-.2,0,0,.2-.2.5-.2,3.9,0,391.5-.7,420.4-2.5,23.5-1.5,430.6,3,626.2,5.2,50,.6,86.1,1,99.9,1.1,68.2.6,959.7-7.5,968.7-7.5l592.2,9.4c.3,0,.5,0,.5.2,0,0-.3.1-.5.1h0Z"/>
        <path class="cls-35" d="M1293.1,331.4c-169.5,0-357.1-.5-422.5-1.2-115.8-1.2-889.8,0-897.6,0h0c-.3,0-.5,0-.5-.2,0,0,.2-.2.5-.2,7.8,0,781.8-1.2,897.6,0,120.3,1.3,654,1.9,728,0,78.5-2,855.7-5.7,893.5-3.1,37.2,2.5,194.9,0,196.5,0,.3,0,.5,0,.5.1,0,0-.2.2-.5.2-1.6,0-159.5,2.5-196.8,0-37.8-2.5-814.7,1.2-893.2,3.1-33.8.8-163.4,1.2-305.7,1.2h0Z"/>
        <path class="cls-35" d="M1105,342.9c-189.5,0-692.9-1.4-698.8-1.4l-433.1-.6c-.3,0-.5,0-.5-.2,0,0,.2-.2.5-.2h0l433.1.6c6.9,0,691.3,1.9,763.7,1.3,19.1-.2,91.2-.6,191-1.3,287.3-1.8,768.3-4.9,836.3-6.3,91-1.9,487.7,5.6,491.8,5.7.3,0,.5,0,.5.2,0,0-.3.2-.6.1-4,0-400.6-7.5-491.6-5.7-68,1.4-549,4.5-836.3,6.3-99.8.6-171.9,1.1-191,1.3-10.4,0-33.2.1-64.9.1h0Z"/>
        <path class="cls-35" d="M999.9,370.7c-144.3,0-276.4-.3-290.4-.9-31-1.2-723.1-3.1-730.1-3.1-.3,0-.5,0-.5-.2,0,0,.2-.2.5-.2h0c7,0,699.2,1.9,730.3,3.1,30.3,1.2,608.8,1.4,675.7-.6,61.2-1.8,478-3.2,529.4-2.5,18.6.3,71.7-.2,133.2-.7,90.2-.8,192.5-1.7,216.3-.5,39.3,1.9,414.6-1.2,418.4-1.3.3,0,.5,0,.5.2,0,0-.2.2-.5.2-3.8,0-379.2,3.1-418.6,1.3-23.6-1.1-125.9-.2-216.1.5-61.5.5-114.7,1-133.3.7-51.4-.7-468.1.7-529.3,2.5-35.8,1.1-218.8,1.5-385.5,1.5h0Z"/>
        <path class="cls-35" d="M2688.8,386.1s0,0,0,0c-6.4-.1-640.9-11.3-700.8-8.8-27.3,1.1-242.2,1-469.6.8-277.5-.2-592-.4-628.8,1.7-66.2,3.7-897.7-3.7-906.1-3.8-.3,0-.5,0-.5-.2,0,0,.2-.2.5-.2,8.4,0,839.7,7.5,905.8,3.8,36.9-2.1,351.5-1.9,629-1.7,227.4.2,442.2.3,469.5-.8,60-2.5,694.6,8.7,701,8.8.3,0,.5,0,.5.2,0,0-.2.1-.5.1h0Z"/>
        <path class="cls-35" d="M992,391.1c-.2,0-.4,0-.5,0-.1,0,0-.2.3-.2,8.2-1.1,141.1-2.7,281.8-4.4,110.5-1.3,224.9-2.7,277-3.8,95.5-2.1,511.9,4.3,668.7,6.6,35.4.5,58.8.9,61.5.9s.5,0,.5.2-.2.2-.5.2c-2.7,0-24.9-.3-61.6-.9-156.8-2.4-573.2-8.7-668.6-6.7-52.2,1.1-166.5,2.5-277.1,3.8-134.4,1.6-273.4,3.3-281.4,4.3,0,0-.1,0-.2,0h0Z"/>
        <path class="cls-35" d="M2260,425.7c-4.8,0-481.4-7-675.9-10.7-152.1-2.9-263.3-8.3-264.4-12.9-.3-1.2,6.1-2.2,19.5-3.1,48.7-3.2,735.2-.4,1104.1,1.1,137.3.6,236.5,1,239.1.8.3,0,.6,0,.6.1,0,0,0,.2-.4.2-2.3.2-96.7-.2-239.4-.8-368.8-1.5-1055.3-4.3-1103.8-1.1-15.8,1-18.9,2.1-18.7,2.8.9,3.7,93.6,9.4,263.4,12.6,194.4,3.7,671,10.6,675.8,10.7l428.9-5c.3,0,.5,0,.5.2,0,0-.2.2-.5.2l-428.9,5h0Z"/>
        <path class="cls-35" d="M1882.5,408.3c-82.2,0-159.1-.5-164.6-.8-12.6-.6-224.6-1.3-278.2-.6-51.7.6-81.4,0-81.7,0-.3,0-.5,0-.5-.2,0,0,.3-.2.6-.1.3,0,29.9.6,81.5,0,53.6-.6,265.8,0,278.4.6,10.6.5,290,2,355.5-1.3,62.1-3.1,609.7,1.2,615.2,1.3.3,0,.5,0,.5.2,0,0-.2.2-.5.2-5.5,0-553-4.4-615-1.3-31.8,1.6-113.9,2.1-191.3,2.1h0Z"/>
        <path class="cls-35" d="M2539.7,415.9c-128.9,0-305-.4-374-2.7-101.2-3.3-283-3.2-336.3-3.1h-2.6c-.3,0-.5,0-.5-.2s.2-.2.5-.2h2.6c53.3-.1,235.1-.2,336.4,3.1,113.7,3.7,518.9,2.5,523,2.5h0c.3,0,.5,0,.5.2,0,0-.2.2-.5.2-1.6,0-65.4.2-149.1.2h0Z"/>
        <path class="cls-35" d="M773.5,405.3c-103.7,0-300.9-1.2-396.6-1.9-96.9-.7-198.7-1.4-279.3-2.1-102.3-.9-120.9-1.2-124.3-1.4,0,0,0,0,0,0h0c-.7,0-.7,0-.7-.1,0,0,.2-.2.5-.2.2,0,.3,0,.5,0,8.7.4,194.9,2,406.5,3.5,122.4.8,411.8,2.6,455,1.5,72.4-1.9,479.3-3.8,483.4-3.8.4,0,.5,0,.5.2,0,0-.2.2-.5.2-4.1,0-410.9,1.9-483.3,3.8-9.7.2-31.8.4-61.6.4h0Z"/>
        <path class="cls-35" d="M1667.8,428.2h0c-4.5-.2-569.1-15.8-594.1-15.1-22.8.6-601-5-606.8-5l-483.3,9.4c-.3,0-.5,0-.6-.1,0,0,.2-.2.5-.2l483.3-9.4c5.9,0,584,5.6,606.7,5,25-.7,589.9,14.9,594.3,15.1.3,0,.5,0,.4.2,0,0-.3.1-.5.1h0Z"/>
        <path class="cls-35" d="M217.9,442.1l-244.8-1.3c-.3,0-.5,0-.5-.2,0,0,.2-.2.5-.2h0l244.8,1.3c6.3,0,637.3-1.3,751.1-1.9,34.9-.2,149.7,0,294.9,0,328.6.3,825.1.7,874.6-1.9,70.4-3.7,539.4-1.3,544.1-1.3.3,0,.5,0,.5.2,0,0-.2.2-.5.2-4.7,0-473.6-2.5-543.9,1.3-49.6,2.6-546.2,2.2-874.8,1.9-145.2-.1-260-.2-294.9,0-113.8.6-744.8,1.9-751.1,1.9h0Z"/>
        <path class="cls-35" d="M-20.6,456.5c-.2,0-.4,0-.5-.1,0,0,.1-.2.4-.2,8.1-.6,354.8-8.2,374.6-8.2s30.5.2,71.5.6c164.6,1.4,550,4.7,583.3,3.2,41.4-1.9,692.3-2.5,698.9-2.5l975,3.8c.3,0,.5,0,.5.2,0,0-.2.2-.5.2h0l-975-3.8c-6.6,0-657.4.7-698.7,2.5-33.5,1.5-418.9-1.8-583.5-3.2-41-.4-68.1-.6-71.4-.6-17.4,0-367.3,7.6-374.4,8.2,0,0,0,0-.1,0h0Z"/>
        <path class="cls-35" d="M234.6,466.6c-.3,0-.5,0-.5-.1,0,0,.2-.2.5-.2,4.9,0,492.3-7.5,544-8.2,52.3-.6,1026.4-1.3,1035.7-1.3,16.6,0,857.7,2.5,866.2,2.5.3,0,.5,0,.5.2s-.2.2-.5.2h0c-8.5,0-849.6-2.5-866.2-2.5s-983.4.6-1035.6,1.3c-51.7.6-539.1,8.1-544,8.2h0Z"/>
        <path class="cls-35" d="M954.5,479.1c-59.7,0-106.1-.2-127.8-.6-97.2-1.9-835.7-2.5-843.1-2.5-.3,0-.5,0-.5-.2,0,0,.2-.2.5-.2h0c7.4,0,746,.6,843.2,2.5,96.8,1.9,685.3-1.2,757.3-2.5,61.4-1.2,709.1.5,761.7,1.9,45.5,1.2,340.1-5,343-5,.3,0,.5,0,.6.1,0,0-.2.2-.5.2-3,0-297.7,6.3-343.2,5-52.5-1.4-700.1-3-761.5-1.9-55.9,1-422.8,3.1-629.6,3.1h0Z"/>
        <path class="cls-35" d="M2688.8,494.8c0,0-.2,0-.2,0-8.2-1.2-368.6-8.1-372.2-8.2l-594.2,6.9-1029.4-3.8c-4.6,0-456.3-1.9-472.8-1.9s-236.3-2.5-238.5-2.5c-.3,0-.5,0-.5-.2,0,0,.3-.2.5-.2,2.2,0,222,2.5,238.5,2.5s468.3,1.9,472.9,1.9l1029.4,3.8,594.2-6.9c14.9.3,364.3,6.9,372.7,8.2.3,0,.4.1.2.2,0,0-.3,0-.5,0h0Z"/>
        <path class="cls-35" d="M791.2,516.8c-20.7,0-803.9-5.6-811.8-5.7-.3,0-.5,0-.5-.2,0,0,.2-.2.5-.2,7.9,0,791.1,5.7,811.8,5.7,36.6,0,891.7-.6,966.6-1.3,74.5-.6,607.7.6,613,.6l318-3.1c.2,0,.5,0,.5.2s-.2.2-.5.2l-318,3.1c-5.4,0-538.6-1.3-613-.6-74.9.6-930.1,1.3-966.6,1.3h0Z"/>
        <path class="cls-35" d="M1126.3,527.8c-210.6,0-520.5-2.2-580-3.5-84.8-1.9-413-5-416.3-5l-156.9,1.3c-.3,0-.5,0-.5-.2,0,0,.2-.2.5-.2l156.9-1.3c3.3,0,331.6,3.2,416.4,5,86.2,1.9,698.3,5.6,771.9,1.9,48.1-2.4,437-4.3,720.9-5.7,160.9-.8,288-1.4,300.1-1.9,33.2-1.2,346.4,6.2,349.5,6.3.3,0,.5,0,.5.2,0,0-.2.2-.6.1-3.2,0-316.3-7.5-349.3-6.3-12.1.5-139.3,1.1-300.2,1.9-283.9,1.4-672.8,3.3-720.8,5.7-22.9,1.1-97.5,1.6-192.2,1.6h0Z"/>
        <path class="cls-35" d="M720,124.1c-62.1,0-725.6-4.4-732.3-4.4-.3,0-.5,0-.5-.2,0,0,.2-.2.5-.2h0c6.7,0,670.2,4.4,732.3,4.4s690.4-6.8,696.7-6.9c.3,0,.5,0,.5.2,0,0-.2.2-.5.2-6.3,0-634.7,6.9-696.7,6.9h0Z"/>
        <path class="cls-35" d="M1778.7,116.5s-.1,0-.2,0c-2.6-.3-64.5-.8-130-1.3-95.1-.8-202.8-1.7-217.2-2.4-7.2-.4-29.1-.6-54.3-.9-66-.8-116.6-1.6-117.4-3.7-.2-.4,1.1-1.1,12.7-2,50.3-4,228.8-4.9,330.7-5,3.6,0,5.8,0,6.3,0,.2,0,.5,0,.5.2,0,0-.2.2-.5.2-.5,0-2.7,0-6.3,0-101.8.1-280.2,1-330.4,5-11,.9-12,1.5-11.9,1.7.7,2,70.3,2.8,116.4,3.4,25.3.3,47.2.6,54.5.9,14.4.7,126.8,1.7,217.1,2.4,71.3.6,127.6,1.1,130.3,1.3.3,0,.4.1.3.2,0,0-.3.1-.5.1h0Z"/>
        <path class="cls-35" d="M2360.6,109c-44.5,0-85.8-.2-104.9-.7-68.2-1.9-644.8-1.3-650.6-1.3l-328.5,1.9h0c-.3,0-.5,0-.5-.2,0,0,.2-.2.5-.2l328.5-1.9c5.8,0,582.5-.6,650.8,1.3,66.5,1.8,420.5-.5,432.6-1.2.1,0,.4,0,.6,0,.3,0,.5.1.4.2-.1.2-.3.4-58.8.9-37.8.3-86.2.6-132.8.8-31.5.1-86.5.4-137.2.4h0Z"/>
        <path class="cls-4" d="M2682.6,133.3s-313.8,2.5-389.2,2.5-736.5-5-803.4-1.9c-67,3.1-516.8,3.8-600.5,6.9-83.7,3.1,297.1,5.7,343.1,6.9,46,1.3,426.8,6.9,508.4,7.5,81.6.6,636-1.9,700.9.6,64.9,2.5,246.9,1.9,246.9,1.9l-6.3-24.5Z"/>
        <path class="cls-51" d="M2678.4,137.7s-150.6,1.3-190.4,1.9c-39.8.6-410.1-.6-449.8-.6s-303.4-3.1-391.3-1.3c-87.9,1.9-156.9,4.4-156.9,4.4l136,5.7s272-.6,326.4,1.3c54.4,1.9,320.1-4.4,366.1-2.5,46,1.9,261.5,3.1,261.5,3.1l108.8.6v-12.6h-10.5Z"/>
        <path class="cls-36" d="M-26.9,211.9s113-.6,150.6-.6,405.9-1.3,433.1,0c27.2,1.3,464.5.6,487.5,2.5,23,1.9,385,1.3,401.7,1.3s240.6-1.9,205,1.9c-35.6,3.8-242.7,4.4-338.9,10.1-96.2,5.7-759.5,5.7-836.9,6.3-77.4.6-334.8-1.9-349.4-1.9s-152.7,2.5-152.7,2.5v-22Z"/>
        <path class="cls-8" d="M-18.5,216.9s284.5,0,338.9,1.3c54.4,1.3,332.7-2.5,357.8-1.3,25.1,1.3,223.9,3.8,223.9,3.8,0,0,127.6-2.5,171.6,0,43.9,2.5-138.1,5.7-198.8,5.7s-506.3,2.5-548.2,1.3c-41.8-1.3-305.5-5-311.7-4.4-6.3.6-41.8,1.3-41.8,1.3l8.4-7.5Z"/>
        <path class="cls-7" d="M2678.4,246.4s-148.5,1.3-213.4,1.9c-64.9.6-590,3.1-623.5,5-33.5,1.9-362,3.1-362,3.1,0,0-221.8,17.6-309.7,17-87.9-.6-148.5,1.9-202.9,6.3-54.4,4.4,192.5,13.8,263.6,17,71.1,3.1,351.5,1.3,395.4,2.5,43.9,1.3,372.4,11.3,414.3,10.7,41.8-.6,351.5,0,376.6.6,25.1.6,272,1.3,272,1.3v-64.7l-10.5-.6Z"/>
        <path class="cls-72" d="M2688.8,253.4s-81.6,1.9-173.7,3.1c-92.1,1.3-255.3,0-274.1.6-18.8.6-498,5.7-546.1,7.5-48.1,1.9-175.8,4.4-230.2,6.3-54.4,1.9-67,1.3-110.9,5.7-43.9,4.4,64.9,6.3,106.7,6.9,41.8.6,362,3.1,410.1,5,48.1,1.9,246.9,7.5,299.2,6.9,52.3-.6,159,5.7,190.4,6.3,31.4.6,177.8,2.5,200.9,1.9,23-.6,127.6-1.3,127.6-1.3v-12.6l-257.3-1.9s-144.4-5.7-207.1-7.5c-62.8-1.9-100.4-1.3-234.3-2.5-133.9-1.3-142.3-5-230.1-1.9-87.9,3.1,6.3-1.3,77.4-3.8,71.1-2.5,234.3-7.5,297.1-5,62.8,2.5,290.8-6.3,313.8-5,23,1.3,148.5-1.3,148.5-1.3l92.1.6v-8.2Z"/>
        <path class="cls-43" d="M2688.8,391s-535.6-1.9-606.8,2.5c-71.1,4.4-631.9,1.9-692.5,3.8-60.7,1.9-83.7,3.8-98.3,6.9-14.6,3.1,347.3,17.6,410.1,21.4,62.8,3.8,458.5-11.9,562.8,3.8,8.4,1.3,123.4,5.7,207.1,9.4,83.7,3.8,217.6,24.5,217.6,24.5v-72.3Z"/>
        <path class="cls-69" d="M2688.8,396s-190.4.6-226,1.3c-35.6.6-221.8-2.5-276.2-.6-54.4,1.9-175.8.6-226,3.1-50.2,2.5-190.4,3.1-223.9,1.9-33.5-1.3-50.2-1.3-127.6-.6-77.4.6,46,9.4,127.6,11.9,81.6,2.5,280.4-2.5,326.4-1.9,46,.6,249,6.3,297.1,8.8,48.1,2.5,165.3,7.5,194.6,11.3,29.3,3.8,125.5,11.3,133.9,11.3s0-47.1,0-46.5Z"/>
        <path class="cls-56" d="M41.3,319.4s513.4,6.2,584.5,5c71.1-1.3,663.2-.6,738.6.6,75.3,1.3,198.8-1.3,282.4,1.9,83.7,3.1,192.5,10.7,46,11.3-146.5.6-259.4,4.4-345.2,5.7-85.8,1.3-437.3,2.5-510.5,1.9-73.2-.6-480.7-3.8-548.2-3.8-238.3,0-356.5-19.4-247.7-22.6Z"/>
        <path class="cls-23" d="M360.2,332.5s410.1-3.8,552.4-3.1c142.3.6,303.4-.6,309.7.6,6.3,1.3-154.8,6.9-234.3,6.9s-688.4,2.5-627.7-4.4Z"/>
        <path class="cls-64" d="M142.6,441.3c12.2-.2,213.4.6,297.1-.6,83.7-1.3,372.4-3.1,405.9-1.3,33.5,1.9,355.7-5,460.3,0,104.6,5,290.8,8.2,290.8,8.2,0,0-435.2,6.9-514.7,8.8-79.5,1.9-583.7,1.3-677.9-.6-94.1-1.9-232.2-6.3-276.2-6.9-43.9-.6-60.7-6.3,14.6-7.5Z"/>
      </g>
      <rect class="cls-46" x="-9.6" y="536.8" width="2678.5" height="485.8"/>
      <g class="cls-78">
        <rect class="cls-70" x="-25" y="536.8" width="2716.9" height="495.7"/>
        <g>
          <rect class="cls-55" x="-21.8" y="991.4" width="2713.8" height="2.6"/>
          <rect class="cls-14" x="-21.8" y="952.9" width="2713.8" height="2.6"/>
          <rect class="cls-58" x="-21.8" y="914.4" width="2713.8" height="2.6"/>
          <rect class="cls-5" x="-21.8" y="875.9" width="2713.8" height="2.6"/>
          <rect class="cls-62" x="-21.8" y="837.5" width="2713.8" height="2.6"/>
          <rect class="cls-75" x="-21.8" y="799" width="2713.8" height="2.6"/>
          <rect class="cls-42" x="-21.8" y="760.5" width="2713.8" height="2.6"/>
          <rect class="cls-25" x="-21.8" y="722" width="2713.8" height="2.6"/>
          <rect class="cls-17" x="-21.8" y="683.5" width="2713.8" height="2.6"/>
          <rect class="cls-66" x="-21.8" y="645.1" width="2713.8" height="2.6"/>
          <rect class="cls-60" x="-21.8" y="606.6" width="2713.8" height="2.6"/>
          <rect class="cls-19" x="-21.8" y="568.1" width="2713.8" height="2.6"/>
        </g>
        <g>
          <rect class="cls-28" x="-21.8" y="990.1" width="2713.8" height="2.6"/>
          <rect class="cls-15" x="-21.8" y="951.6" width="2713.8" height="2.6"/>
          <rect class="cls-48" x="-21.8" y="913.1" width="2713.8" height="2.6"/>
          <rect class="cls-13" x="-21.8" y="874.7" width="2713.8" height="2.6"/>
          <rect class="cls-44" x="-21.8" y="836.2" width="2713.8" height="2.6"/>
          <rect class="cls-27" x="-21.8" y="797.7" width="2713.8" height="2.6"/>
          <rect class="cls-21" x="-21.8" y="759.2" width="2713.8" height="2.6"/>
          <rect class="cls-76" x="-21.8" y="720.7" width="2713.8" height="2.6"/>
          <rect class="cls-45" x="-21.8" y="682.3" width="2713.8" height="2.6"/>
          <rect class="cls-12" x="-21.8" y="643.8" width="2713.8" height="2.6"/>
          <rect class="cls-47" x="-21.8" y="605.3" width="2713.8" height="2.6"/>
          <rect class="cls-2" x="-21.8" y="566.8" width="2713.8" height="2.6"/>
        </g>
        <path class="cls-35" d="M1773.5,1011c109.5,0,194.4.2,230.1.8,154.6,2.6,684.1,4.5,688.3,4.5s.5,0,.5.2-.2.2-.5.2c-4.2,0-533.7-1.9-688.4-4.5-82.4-1.4-427.7-.7-732.4-.1-259.3.5-504.3,1-541.8.1-80.6-1.9-738.2,3.8-744.8,3.8-.3,0-.5,0-.5-.2,0,0,.2-.2.5-.2,6.6,0,664.2-5.7,744.9-3.8,37.5.9,282.5.4,541.7-.1,172.8-.3,358.7-.7,502.3-.7h0Z"/>
        <path class="cls-35" d="M1773.5,964.9c109.5,0,194.4.2,230.1.8,154.6,2.6,684.1,4.5,688.3,4.5s.5,0,.5.2-.2.2-.5.2c-4.2,0-533.7-1.9-688.4-4.5-82.4-1.4-427.7-.7-732.4-.1-259.3.5-504.3,1-541.8.1-80.6-1.9-738.2,3.8-744.8,3.8-.3,0-.5,0-.5-.2,0,0,.2-.2.5-.2,6.6,0,664.2-5.7,744.9-3.8,37.5.9,282.5.4,541.7-.1,172.8-.3,358.7-.7,502.3-.7h0Z"/>
        <path class="cls-35" d="M519.1,1002.7c124.3,0,237.2.4,296.1,1.4,175.8,3.2,1859.7-1.2,1876.7-1.3.3,0,.5,0,.5.2,0,0-.2.2-.5.2-17,0-1701,4.5-1876.8,1.3-175.8-3.2-832.4,0-839,0h0c-.3,0-.5,0-.5-.2,0,0,.2-.2.5-.2,4.4,0,296.2-1.4,542.9-1.4h0Z"/>
        <path class="cls-35" d="M2691.9,975.3c.3,0,.5,0,.5.2,0,0-.2.2-.5.2-13,.3-318.2,6.4-330.7,5.8-6.5-.3-224.1-1.6-451.1-2.2-170-.5-465.5-.9-534.2,1.6-87.4,3.2-564.6,1.5-849.7.5-120.3-.4-207.2-.7-223.7-.5-55.9.6-323.7,0-326.4,0-.3,0-.5,0-.5-.2,0,0,.2-.2.5-.2h0c2.7,0,270.5.6,326.4,0,16.5-.2,103.4.1,223.7.5,285.1,1,762.2,2.6,849.6-.5,68.8-2.5,364.4-2.1,534.4-1.6,227,.6,444.7,1.9,451.2,2.2,12.4.6,327.3-5.7,330.5-5.8h0Z"/>
        <path class="cls-35" d="M1526.2,936c18.4,0,31.7,0,38.1.2,55.7,1.3,486.9,6.4,558.5,3.2,28.6-1.3,145-1.8,537.3,3,12.9.2,20.6.3,21.4.3s.5,0,.5.2-.2.2-.5.2c-.8,0-8.1,0-21.4-.3-392.3-4.8-508.6-4.2-537.1-3-71.6,3.2-503.1-1.9-558.7-3.2-53.1-1.3-573.2,3.2-604.6,4.5-29.5,1.2-484.6-2.4-500.2-3.2-12.4-.6-478.5,1.9-483.2,1.9-.3,0-.5,0-.5-.2,0,0,.2-.2.5-.2,19.2-.1,471-2.6,483.4-1.9,15.6.8,470.4,4.4,499.9,3.2,27.6-1.1,432.9-4.7,566.7-4.7h0Z"/>
        <path class="cls-35" d="M1087.2,924.6c59.2,0,708.2,1.3,751.1,1.9,41.4.6,845.5,1.9,853.6,1.9.3,0,.5,0,.5.2,0,0-.2.2-.5.2h0c-8.1,0-812.3-1.3-853.7-1.9-42.9-.7-691.9-1.9-751.1-1.9s-662.2,3.8-749,5.1c-82.8,1.3-353-1.3-355.7-1.3-.3,0-.5,0-.5-.2,0,0,.2-.2.5-.2h0c2.7,0,272.9,2.6,355.6,1.3,86.8-1.3,689.3-5.1,749.1-5.1h0Z"/>
        <path class="cls-35" d="M1512.8,897.4c195,0,484,.6,526.4,1.5,55.8,1.3,646.8,5.1,652.8,5.1.3,0,.5,0,.5.2s-.2.2-.5.2c-6,0-596.9-3.9-652.8-5.1-58.3-1.3-583.4-1.9-688.3-1.3-21.4.1-67.7.5-126.3,1.1-243.8,2.2-697.7,6.4-763,2.8-80.6-4.4-475,1.9-479,1.9-.3,0-.5,0-.6-.2s.2-.2.5-.2c4,0,398.5-6.4,479.3-1.9,65.2,3.6,519-.5,762.8-2.8,58.6-.5,104.9-1,126.3-1.1,28.6-.2,88.7-.3,162-.3h0Z"/>
        <path class="cls-35" d="M1550.1,886.2c100.8,0,242.7,1.1,357.4,2,95.9.7,178.6,1.4,207,1.2,80.7-.6,566.3,5.1,571.2,5.1.3,0,.5,0,.5.2,0,0-.2.2-.5.2-4.9,0-490.5-5.8-571.1-5.1-28.4.2-111.2-.4-207.1-1.2-178-1.4-421.8-3.3-475-.8-45.1,2.1-383.8,3.5-682.6,4.7-240.8,1-468.2,1.9-495.3,3-60.1,2.5-265.9-7-268-7.1-.3,0-.5,0-.4-.2,0,0,.3-.1.6-.1,2.1,0,207.7,9.6,267.7,7.1,27.2-1.1,254.7-2.1,495.5-3,298.8-1.2,637.5-2.6,682.5-4.7,19-.9,62.1-1.2,117.7-1.2h0Z"/>
        <path class="cls-35" d="M1477.6,862.4c51.9,0,147.1.4,246.8.9,166.1.7,354.3,1.6,362.7.5,14.6-1.9,580.8-.7,604.9-.7.3,0,.5,0,.5.2,0,0-.2.2-.5.2h0c-5.9,0-590.1-1.3-604.5.6-8.6,1.1-188.8.3-363.1-.5-122.6-.6-238.4-1.1-275.2-.8-16.6.1-54.7.5-107.4.9-224.5,2-691.6,6.3-717.1,4.2-31-2.5-642.3-.7-648.5-.6h0c-.3,0-.5,0-.5-.2,0,0,.2-.2.5-.2,6.2,0,617.6-1.9,648.7.6,25.4,2.1,492.4-2.2,716.8-4.2,52.7-.5,90.7-.8,107.4-.9,6.9,0,16.5,0,28.5,0h0Z"/>
        <path class="cls-35" d="M2233.5,844.9c40.5,0,66.9,0,69.4.2,12.4.6,377,4.4,380.7,4.5.3,0,.5,0,.5.2,0,0-.3.1-.5.2-15-.2-368.4-3.9-380.9-4.5-12.4-.6-606.9.6-612.9.6-6.7.1-674.6,14.1-751.1,16-76.6,1.9-947.4-11.4-956.2-11.5-.3,0-.5,0-.5-.2,0,0,.2-.2.6-.2,8.8.1,879.6,13.4,956.1,11.5,76.5-1.9,744.4-15.9,751.1-16,19.5,0,387.2-.8,543.7-.8h0Z"/>
        <path class="cls-35" d="M614.8,818.2c1.7,0,2.9,0,3.8,0,23.5.5,474.5,5.3,716.7,7.9,82.2.9,141.6,1.5,155.7,1.7,32.4.4,214.8-1.2,375.7-2.5,118.9-1,231.2-2,262.4-2,72.4,0,557.9,3.2,562.8,3.2.3,0,.5,0,.5.2s-.2.2-.5.2c-4.9,0-490.4-3.2-562.8-3.2s-143.5.9-262.4,2c-160.9,1.4-343.4,2.9-375.8,2.5-14.1-.2-73.5-.8-155.7-1.7-242.3-2.6-693.2-7.5-716.7-7.9-31-.6-636.1,10.8-642.3,10.9-.3,0-.5,0-.6-.2,0,0,.2-.2.5-.2,5.9-.1,579-10.9,638.6-10.9h0Z"/>
        <path class="cls-35" d="M-17.5,809.2h0c8.8,0,881.6,4.5,947.7,2.6,62.3-1.8,1017.9,1.1,1096.4,2.6,70.3,1.3,414.9-2.5,418.4-2.6l246.9-.6c.3,0,.5,0,.5.2,0,0-.2.2-.5.2l-246.9.6c-3.5,0-348.1,3.8-418.5,2.6-78.5-1.4-1034-4.4-1096.3-2.6-66.2,1.9-939-2.5-947.8-2.6-.3,0-.5,0-.5-.2,0,0,.2-.2.5-.2h0Z"/>
        <path class="cls-35" d="M1277.6,781.6c6.2,0,617.7,7.7,657.1,9.6,39.3,1.9,750.1-2.5,757.3-2.6h0c.3,0,.5,0,.5.2,0,0-.2.2-.5.2-7.2,0-718.1,4.5-757.5,2.6-39.3-1.9-650.7-9.5-656.9-9.6l-491.6,7.7-809.7-2.6c-.3,0-.5,0-.5-.2,0,0,.2-.2.5-.2h0l809.7,2.6,491.6-7.7h0Z"/>
        <path class="cls-35" d="M-15.4,769.4h0l592.1,9.6c9,0,900.5-8.3,968.7-7.7,13.9.1,50,.5,99.9,1.1,195.6,2.2,602.6,6.8,625.9,5.3,29-1.9,416.7-2.6,420.6-2.6.3,0,.5,0,.5.2,0,0-.2.2-.5.2-3.9,0-391.5.7-420.4,2.6-23.5,1.5-430.6-3.1-626.2-5.3-50-.6-86.1-1-99.9-1.1-68.2-.6-959.7,7.6-968.7,7.7l-592.2-9.6c-.3,0-.5,0-.5-.2,0,0,.3-.2.5-.2h0Z"/>
        <path class="cls-35" d="M1371.9,746.4c169.5,0,357.1.5,422.5,1.2,115.8,1.3,889.8,0,897.6,0h0c.3,0,.5,0,.5.2,0,0-.2.2-.5.2-7.8,0-781.8,1.3-897.6,0-120.3-1.3-654-1.9-728,0-78.5,2-855.7,5.8-893.5,3.2-37.2-2.5-194.9,0-196.5,0-.3,0-.5,0-.5-.2,0,0,.2-.2.5-.2,1.6,0,159.5-2.5,196.8,0,37.8,2.6,814.7-1.2,893.2-3.2,33.8-.9,163.4-1.2,305.7-1.2h0Z"/>
        <path class="cls-35" d="M1560,734.7c189.5,0,692.9,1.4,698.8,1.4l433.1.6c.3,0,.5,0,.5.2,0,0-.2.2-.5.2h0l-433.1-.6c-6.9,0-691.3-1.9-763.7-1.3-19.1.2-91.2.6-191,1.3-287.3,1.9-768.3,5-836.3,6.4-91,1.9-487.7-5.7-491.8-5.8-.3,0-.5,0-.5-.2,0,0,.3-.2.6-.1,4,0,400.6,7.7,491.6,5.8,68-1.4,549-4.5,836.3-6.4,99.8-.6,171.9-1.1,191-1.3,10.4,0,33.2-.1,64.9-.1h0Z"/>
        <path class="cls-35" d="M1665.1,706.3c144.3,0,276.4.3,290.4.9,31,1.3,723.1,3.2,730.1,3.2.3,0,.5,0,.5.2,0,0-.2.2-.5.2h0c-7,0-699.2-1.9-730.3-3.2-30.3-1.2-608.8-1.4-675.7.6-61.2,1.9-478,3.3-529.4,2.6-18.6-.3-71.7.2-133.2.7-90.2.8-192.5,1.7-216.3.5-39.3-1.9-414.6,1.3-418.4,1.3-.3,0-.5,0-.5-.2,0,0,.2-.2.5-.2,3.8,0,379.2-3.2,418.6-1.3,23.6,1.1,125.9.3,216.1-.5,61.5-.5,114.7-1,133.3-.7,51.4.7,468.1-.7,529.3-2.6,35.8-1.1,218.8-1.6,385.5-1.6h0Z"/>
        <path class="cls-35" d="M-23.8,690.6s0,0,0,0c6.4.1,640.9,11.5,700.8,9,27.3-1.2,242.2-1,469.6-.9,277.5.2,592,.4,628.8-1.7,66.2-3.8,897.7,3.8,906.1,3.8.3,0,.5,0,.5.2,0,0-.2.2-.5.2-8.4,0-839.7-7.7-905.8-3.8-36.9,2.1-351.5,1.9-629,1.7-227.4-.2-442.2-.3-469.5.9-60,2.5-694.6-8.9-701-9-.3,0-.5,0-.5-.2,0,0,.2-.2.5-.2h0Z"/>
        <path class="cls-35" d="M1673,685.4c.2,0,.4,0,.5,0,.1,0,0,.2-.3.2-8.2,1.1-141.1,2.7-281.8,4.4-110.5,1.4-224.9,2.8-277,3.9-95.5,2.1-511.9-4.4-668.7-6.8-35.4-.5-58.8-.9-61.5-.9s-.5,0-.5-.2.2-.2.5-.2c2.7,0,24.9.3,61.6.9,156.8,2.4,573.2,8.9,668.6,6.8,52.2-1.1,166.5-2.5,277.1-3.9,134.4-1.7,273.4-3.4,281.4-4.4,0,0,.1,0,.2,0h0Z"/>
        <path class="cls-35" d="M405.1,650.1c4.8,0,481.4,7.1,675.9,10.9,152.1,3,263.3,8.5,264.4,13.2.3,1.2-6.1,2.3-19.5,3.2-48.7,3.3-735.2.4-1104.1-1.1-137.3-.6-236.5-1-239.1-.8-.3,0-.6,0-.6-.1,0,0,0-.2.4-.2,2.3-.2,96.7.2,239.4.8,368.8,1.5,1055.3,4.4,1103.8,1.1,15.8-1.1,18.9-2.1,18.7-2.8-.9-3.8-93.6-9.6-263.4-12.9-194.4-3.8-671-10.8-675.8-10.9l-428.9,5.1c-.3,0-.5,0-.5-.2,0,0,.2-.2.5-.2l428.9-5.1h0Z"/>
        <path class="cls-35" d="M782.5,667.9c82.2,0,159.1.5,164.6.8,12.6.6,224.6,1.3,278.2.6,51.7-.6,81.4,0,81.7,0,.3,0,.5,0,.5.2,0,0-.3.2-.6.1-.3,0-29.9-.6-81.5,0-53.6.7-265.8,0-278.4-.6-10.6-.5-290-2.1-355.5,1.3-62.1,3.2-609.7-1.2-615.2-1.3-.3,0-.5,0-.5-.2,0,0,.2-.2.5-.2,5.5,0,553,4.5,615,1.3,31.8-1.6,113.9-2.1,191.3-2.1h0Z"/>
        <path class="cls-35" d="M125.3,660.2c128.9,0,305,.5,374,2.8,101.2,3.4,283,3.3,336.3,3.2h2.6c.3,0,.5,0,.5.2s-.2.2-.5.2h-2.6c-53.3.1-235.1.2-336.4-3.2-113.7-3.8-518.9-2.6-523-2.6h0c-.3,0-.5,0-.5-.2,0,0,.2-.2.5-.2,1.6,0,65.4-.2,149.1-.2h0Z"/>
        <path class="cls-35" d="M1891.5,671c103.7,0,300.9,1.3,396.6,1.9,96.9.7,198.7,1.5,279.3,2.2,102.3.9,120.9,1.2,124.3,1.4,0,0,0,0,0,0h0c.7,0,.7,0,.7.1,0,0-.2.2-.5.2-.2,0-.3,0-.5,0-8.7-.4-194.9-2.1-406.5-3.5-122.4-.8-411.8-2.7-455-1.6-72.4,1.9-479.3,3.8-483.4,3.8-.4,0-.5,0-.5-.2,0,0,.2-.2.5-.2,4.1,0,410.9-1.9,483.3-3.8,9.7-.3,31.8-.4,61.6-.4h0Z"/>
        <path class="cls-35" d="M997.2,647.6h0c4.5.2,569.1,16.1,594.1,15.4,22.8-.6,601,5.1,606.8,5.1l483.3-9.6c.3,0,.5,0,.6.1,0,0-.2.2-.5.2l-483.3,9.6c-5.9,0-584-5.8-606.7-5.1-25,.7-589.9-15.2-594.3-15.4-.3,0-.5,0-.4-.2,0,0,.3-.1.5-.1h0Z"/>
        <path class="cls-35" d="M2447.1,633.5l244.8,1.3c.3,0,.5,0,.5.2,0,0-.2.2-.5.2h0l-244.8-1.3c-6.3,0-637.3,1.3-751.1,1.9-34.9.2-149.7,0-294.9,0-328.6-.3-825.1-.7-874.6,2-70.4,3.8-539.4,1.3-544.1,1.3-.3,0-.5,0-.5-.2,0,0,.2-.2.5-.2,4.7,0,473.6,2.5,543.9-1.3,49.6-2.7,546.2-2.2,874.8-2,145.2.1,260,.2,294.9,0,113.8-.6,744.8-1.9,751.1-1.9h0Z"/>
        <path class="cls-35" d="M2685.7,618.7c.2,0,.4,0,.5.1,0,0-.1.2-.4.2-8.1.6-354.8,8.3-374.6,8.3s-30.5-.2-71.5-.6c-164.6-1.4-550-4.8-583.3-3.3-41.4,1.9-692.3,2.6-698.9,2.6l-975-3.8c-.3,0-.5,0-.5-.2,0,0,.2-.2.5-.2h0l975,3.8c6.6,0,657.4-.7,698.7-2.6,33.5-1.5,418.9,1.8,583.5,3.3,41,.4,68.1.6,71.4.6,17.4,0,367.3-7.8,374.4-8.3,0,0,0,0,.1,0h0Z"/>
        <path class="cls-35" d="M2430.4,608.5c.3,0,.5,0,.5.2,0,0-.2.2-.5.2-4.9,0-492.3,7.7-544,8.3-52.3.6-1026.4,1.3-1035.7,1.3-16.6,0-857.7-2.5-866.2-2.6-.3,0-.5,0-.5-.2s.2-.2.5-.2h0c8.5,0,849.6,2.6,866.2,2.6s983.4-.6,1035.6-1.3c51.7-.6,539.1-8.3,544-8.3h0Z"/>
        <path class="cls-35" d="M1710.5,595.7c59.7,0,106.1.2,127.8.6,97.2,1.9,835.7,2.6,843.1,2.6.3,0,.5,0,.5.2,0,0-.2.2-.5.2h0c-7.4,0-746-.7-843.2-2.6-96.8-1.9-685.3,1.2-757.3,2.6-61.4,1.2-709.1-.5-761.7-1.9-45.5-1.3-340.1,5.1-343,5.1-.3,0-.5,0-.6-.1,0,0,.2-.2.5-.2,3,0,297.7-6.4,343.2-5.1,52.5,1.5,700.1,3.1,761.5,1.9,55.9-1.1,422.8-3.2,629.6-3.2h0Z"/>
        <path class="cls-35" d="M-23.8,579.6c0,0,.2,0,.2,0,8.2,1.3,368.6,8.3,372.2,8.3l594.2-7.1,1029.4,3.8c4.6,0,456.3,1.9,472.8,1.9s236.3,2.5,238.5,2.6c.3,0,.5,0,.5.2,0,0-.3.2-.5.2-2.2,0-222-2.6-238.5-2.6s-468.3-1.9-472.9-1.9l-1029.4-3.8-594.2,7.1c-14.9-.3-364.3-7.1-372.7-8.4-.3,0-.4-.1-.2-.2,0,0,.3,0,.5,0h0Z"/>
        <path class="cls-35" d="M1873.9,557.2c20.7,0,803.9,5.7,811.8,5.8.3,0,.5,0,.5.2,0,0-.2.2-.5.2-7.9,0-791.1-5.8-811.8-5.8-36.6,0-891.7.6-966.6,1.3-74.5.6-607.7-.6-613-.6l-318,3.2c-.2,0-.5,0-.5-.2s.2-.2.5-.2l318-3.2c5.4,0,538.6,1.3,613,.6,74.9-.6,930.1-1.3,966.6-1.3h0Z"/>
        <path class="cls-35" d="M1538.7,545.9c210.6,0,520.5,2.2,580,3.5,84.8,1.9,413,5.1,416.3,5.1l156.9-1.3c.3,0,.5,0,.5.2,0,0-.2.2-.5.2l-156.9,1.3c-3.3,0-331.6-3.2-416.4-5.1-86.2-1.9-698.3-5.7-771.9-1.9-48.1,2.5-437,4.4-720.9,5.8-160.9.8-288,1.4-300.1,1.9-33.2,1.3-346.4-6.3-349.5-6.4-.3,0-.5,0-.5-.2,0,0,.2-.2.6-.1,3.2,0,316.3,7.7,349.3,6.4,12.1-.5,139.3-1.1,300.2-1.9,283.9-1.4,672.8-3.3,720.8-5.8,22.9-1.2,97.5-1.6,192.2-1.6h0Z"/>
        <path class="cls-35" d="M1945,958c62.1,0,725.6,4.4,732.3,4.5.3,0,.5,0,.5.2,0,0-.2.2-.5.2h0c-6.7,0-670.2-4.5-732.3-4.5s-690.4,7-696.7,7.1c-.3,0-.5,0-.5-.2,0,0,.2-.2.5-.2,6.3,0,634.7-7.1,696.7-7.1h0Z"/>
        <path class="cls-35" d="M886.3,965.7s.1,0,.2,0c2.6.3,64.5.8,130,1.4,95.1.8,202.8,1.7,217.2,2.5,7.2.4,29.1.6,54.3.9,66,.8,116.6,1.6,117.4,3.7.2.5-1.1,1.1-12.7,2-50.3,4.1-228.8,5-330.7,5.1-3.6,0-5.8,0-6.3,0-.2,0-.5,0-.5-.2,0,0,.2-.2.5-.2.5,0,2.7,0,6.3,0,101.8-.1,280.2-1,330.4-5.1,11-.9,12-1.5,11.9-1.7-.7-2-70.3-2.9-116.4-3.5-25.3-.3-47.2-.6-54.5-.9-14.4-.7-126.8-1.7-217.1-2.5-71.3-.6-127.6-1.1-130.3-1.4-.3,0-.4-.1-.3-.2,0,0,.3-.1.5-.1h0Z"/>
        <path class="cls-35" d="M304.4,973.3c44.5,0,85.8.2,104.9.7,68.2,1.9,644.8,1.3,650.6,1.3l328.5-1.9h0c.3,0,.5,0,.5.2,0,0-.2.2-.5.2l-328.5,1.9c-5.8,0-582.5.6-650.8-1.3-66.5-1.9-420.5.5-432.6,1.2-.1,0-.4,0-.6,0-.3,0-.5-.1-.4-.2.1-.2.3-.4,58.8-.9,37.8-.3,86.2-.6,132.8-.9,31.5-.1,86.5-.4,137.2-.4h0Z"/>
        <path class="cls-3" d="M-17.5,948.5s313.8-2.6,389.2-2.6,736.5,5.1,803.4,1.9c67-3.2,516.8-3.8,600.5-7.1,83.7-3.2-297.1-5.8-343.1-7.1-46-1.3-426.8-7.1-508.4-7.7-81.6-.6-636,1.9-700.9-.6-64.9-2.6-246.9-1.9-246.9-1.9l6.3,25Z"/>
        <path class="cls-41" d="M-13.3,944s150.6-1.3,190.4-1.9c39.8-.6,410.1.6,449.8.6s303.4,3.2,391.3,1.3c87.9-1.9,156.9-4.5,156.9-4.5l-136-5.8s-272,.6-326.4-1.3c-54.4-1.9-320.1,4.5-366.1,2.6-46-1.9-261.5-3.2-261.5-3.2l-108.8-.6v12.8h10.5Z"/>
        <path class="cls-54" d="M2691.9,868.4s-113,.6-150.6.6-405.9,1.3-433.1,0c-27.2-1.3-464.5-.6-487.5-2.6-23-1.9-385-1.3-401.7-1.3s-240.6,1.9-205-1.9c35.6-3.8,242.7-4.5,338.9-10.3,96.2-5.8,759.5-5.8,836.9-6.4,77.4-.6,334.8,1.9,349.4,1.9s152.7-2.6,152.7-2.6v22.4Z"/>
        <path class="cls-38" d="M2683.6,863.2s-284.5,0-338.9-1.3c-54.4-1.3-332.7,2.6-357.8,1.3-25.1-1.3-223.9-3.8-223.9-3.8,0,0-127.6,2.6-171.6,0-43.9-2.6,138.1-5.8,198.8-5.8s506.3-2.6,548.2-1.3c41.8,1.3,305.5,5.1,311.7,4.5,6.3-.6,41.8-1.3,41.8-1.3l-8.4,7.7Z"/>
        <path class="cls-29" d="M-13.3,833.1s148.5-1.3,213.4-1.9c64.9-.6,590-3.2,623.5-5.1,33.5-1.9,362-3.2,362-3.2,0,0,221.8-18,309.7-17.3,87.9.6,148.5-1.9,202.9-6.4,54.4-4.5-192.5-14.1-263.6-17.3-71.1-3.2-351.5-1.3-395.4-2.6-43.9-1.3-372.4-11.5-414.3-10.9-41.8.6-351.5,0-376.6-.6-25.1-.6-272-1.3-272-1.3v66.1l10.5.6Z"/>
        <path class="cls-39" d="M-23.8,826s81.6-1.9,173.7-3.2c92.1-1.3,255.3,0,274.1-.6,18.8-.6,498-5.8,546.1-7.7,48.1-1.9,175.8-4.5,230.2-6.4,54.4-1.9,67-1.3,110.9-5.8,43.9-4.5-64.9-6.4-106.7-7.1-41.8-.6-362-3.2-410.1-5.1-48.1-1.9-246.9-7.7-299.2-7.1-52.3.6-159-5.8-190.4-6.4-31.4-.6-177.8-2.6-200.9-1.9-23,.6-127.6,1.3-127.6,1.3v12.8l257.3,1.9s144.4,5.8,207.1,7.7c62.8,1.9,100.4,1.3,234.3,2.6,133.9,1.3,142.3,5.1,230.1,1.9,87.9-3.2-6.3,1.3-77.4,3.8-71.1,2.6-234.3,7.7-297.1,5.1-62.8-2.6-290.8,6.4-313.8,5.1-23-1.3-148.5,1.3-148.5,1.3l-92.1-.6v8.3Z"/>
        <path class="cls-63" d="M-23.8,685.6s535.6,1.9,606.8-2.6c71.1-4.5,631.9-1.9,692.5-3.8,60.7-1.9,83.7-3.8,98.3-7.1,14.6-3.2-347.3-18-410.1-21.8-62.8-3.8-458.5,12.1-562.8-3.8-8.4-1.3-123.4-5.8-207.1-9.6-83.7-3.8-217.6-25-217.6-25v73.8Z"/>
        <path class="cls-73" d="M-23.8,680.5s190.4-.6,226-1.3c35.6-.6,221.8,2.6,276.2.6,54.4-1.9,175.8-.6,226-3.2,50.2-2.6,190.4-3.2,223.9-1.9,33.5,1.3,50.2,1.3,127.6.6,77.4-.6-46-9.6-127.6-12.2-81.6-2.6-280.4,2.6-326.4,1.9-46-.6-249-6.4-297.1-9-48.1-2.6-165.3-7.7-194.6-11.5-29.3-3.8-125.5-11.5-133.9-11.5s0,48.1,0,47.5Z"/>
        <path class="cls-61" d="M2623.7,758.6s-513.4-6.4-584.5-5.1c-71.1,1.3-663.2.6-738.6-.6-75.3-1.3-198.8,1.3-282.4-1.9-83.7-3.2-192.5-10.9-46-11.5,146.5-.6,259.4-4.5,345.2-5.8,85.8-1.3,437.3-2.6,510.5-1.9,73.2.6,480.7,3.9,548.2,3.8,238.3,0,356.5,19.8,247.7,23Z"/>
        <path class="cls-10" d="M2304.9,745.2s-410.1,3.8-552.4,3.2c-142.3-.6-303.4.6-309.7-.6-6.3-1.3,154.8-7.1,234.3-7.1s688.4-2.6,627.7,4.5Z"/>
        <path class="cls-24" d="M2522.5,634.3c-12.2.2-213.4-.6-297.1.6-83.7,1.3-372.4,3.2-405.9,1.3-33.5-1.9-355.7,5.1-460.3,0-104.6-5.1-290.8-8.3-290.8-8.3,0,0,435.2-7.1,514.7-9,79.5-1.9,583.7-1.3,677.9.6,94.1,1.9,232.2,6.4,276.2,7.1,43.9.6,60.7,6.4-14.6,7.7Z"/>
      </g>
    </g>
  </g>
</svg>