<svg width="2640" height="3112" viewBox="0 0 2640 3112" fill="none" xmlns="http://www.w3.org/2000/svg">
<g clip-path="url(#clip0_478_10472)">
<path d="M1772.2 286.606L1956.46 143.676C1960.78 140.325 1961.57 134.106 1958.22 129.786L1949.45 118.487C1946.1 114.166 1939.88 113.381 1935.56 116.732L1751.3 259.662C1746.98 263.013 1746.19 269.232 1749.54 273.552L1758.31 284.851C1761.66 289.172 1767.88 289.957 1772.2 286.606Z" fill="#14141E"/>
<path d="M1798.35 343.159L1982.62 200.229C1986.94 196.878 1987.72 190.659 1984.37 186.339L1975.61 175.039C1972.26 170.719 1966.04 169.934 1961.72 173.285L1777.45 316.215C1773.13 319.566 1772.35 325.785 1775.7 330.105L1784.46 341.404C1787.82 345.724 1794.03 346.51 1798.35 343.159Z" fill="#14141E"/>
<path d="M1157.2 3018.4H1294.7V2344.1L1274.9 2324.3C1037.3 2086.7 423.501 1483.9 225.501 1289.2C506.001 1117.6 1497.1 513.7 1833.7 357.5L1747.9 246.4C1347.5 431.2 130.901 1185.8 78.1008 1217.7L3.30078 1263.9L66.0008 1325.5C73.7008 1333.2 858.001 2102.1 1157.2 2401.3V3018.4Z" fill="white"/>
<path d="M141.898 1277.1C141.898 1277.1 1386 509.3 1809.5 305.8L1833.7 357.5C1497.1 513.7 505.998 1117.6 225.498 1289.2C423.498 1483.9 1038.4 2086.7 1274.9 2324.3L1294.7 2344.1V3011.8H1254V2372.7C966.898 2086.7 141.898 1277.1 141.898 1277.1Z" fill="#DDEDEA"/>
<path d="M311.3 1477.3L1812.8 336.6L1775.4 277.2L269.5 1422.3L311.3 1477.3Z" fill="white"/>
<path d="M287.1 1445.4L1799.6 284.9L1754.5 291.5L269.5 1422.3L287.1 1445.4Z" fill="#DDEDEA"/>
<path d="M401.033 1471.99C434.54 1438.48 434.54 1384.15 401.033 1350.65C367.526 1317.14 313.2 1317.14 279.693 1350.65C246.186 1384.15 246.186 1438.48 279.693 1471.99C313.2 1505.49 367.526 1505.49 401.033 1471.99Z" fill="white"/>
<path d="M337.699 1326.6C318.999 1342 306.899 1366.2 306.899 1391.5C306.899 1438.8 345.399 1477.3 392.699 1477.3C439.999 1477.3 394.899 1477.3 395.999 1477.3C381.699 1489.4 361.899 1497.1 340.999 1497.1C293.699 1497.1 255.199 1458.6 255.199 1411.3C255.199 1364 291.499 1327.7 337.699 1326.6Z" fill="#E8E8E8"/>
<path d="M1224.3 2519C1299.02 2519 1359.6 2458.42 1359.6 2383.7C1359.6 2308.98 1299.02 2248.4 1224.3 2248.4C1149.58 2248.4 1089 2308.98 1089 2383.7C1089 2458.42 1149.58 2519 1224.3 2519Z" fill="white"/>
<path d="M1239.76 2452.5C1278.56 2445.17 1304.07 2407.77 1296.74 2368.97C1289.41 2330.17 1252.01 2304.65 1213.21 2311.99C1174.41 2319.32 1148.9 2356.72 1156.23 2395.52C1163.56 2434.32 1200.96 2459.83 1239.76 2452.5Z" fill="#DBDBDB"/>
<path d="M268.502 1302.42C282.632 1229.04 234.603 1158.11 161.227 1143.98C87.8514 1129.85 16.9138 1177.87 2.78383 1251.25C-11.3462 1324.63 36.6822 1395.56 110.058 1409.69C183.434 1423.82 254.372 1375.8 268.502 1302.42Z" fill="white"/>
<path d="M205.699 1277.1C205.699 1237.5 173.799 1205.6 134.199 1205.6C94.5992 1205.6 62.6992 1237.5 62.6992 1277.1C62.6992 1316.7 94.5992 1348.6 134.199 1348.6C173.799 1348.6 205.699 1316.7 205.699 1277.1Z" fill="#DBDBDB"/>
<path d="M982.301 3111.9H1876.6C1902.12 3111.9 1922.8 3091.22 1922.8 3065.7V3000.8C1922.8 2975.28 1902.12 2954.6 1876.6 2954.6H982.301C956.785 2954.6 936.101 2975.28 936.101 3000.8V3065.7C936.101 3091.22 956.785 3111.9 982.301 3111.9Z" fill="#2D6FBB"/>
<path d="M1423.4 3111.9H987.8C960.3 3111.9 937.2 3088.8 937.2 3061.3V2997.5C937.2 2974.4 955.9 2954.6 980.1 2954.6H1424.5V3111.9H1423.4Z" fill="#2256B0"/>
<path d="M1623.6 3053.6H1855.7C1867.85 3053.6 1877.7 3043.75 1877.7 3031.6V3001.9C1877.7 2989.75 1867.85 2979.9 1855.7 2979.9H1623.6C1611.45 2979.9 1601.6 2989.75 1601.6 3001.9V3031.6C1601.6 3043.75 1611.45 3053.6 1623.6 3053.6Z" fill="#3E84CC"/>
<path d="M2104.3 820.6C2098.8 814 2093.3 808.5 2087.8 801.9C1956.9 646.8 1954.7 457.6 1958 320.1C1959.1 271.7 1998.7 234.3 2036.1 203.5C2072.4 172.7 2116.4 139.7 2163.7 146.3C2307.8 169.4 2488.2 205.7 2618 360.8C2624.6 368.5 2633.4 379.5 2641.1 389.4L2636.7 392.7C2622.4 421.3 2525.6 523.6 2396.9 632.5C2268.2 740.3 2150.5 818.4 2119.7 827.2L2116.4 830.5C2112 826.1 2112 826.1 2110.9 825C2110.9 825 2108.7 822.8 2107.6 822.8C2107.6 822.8 2105.4 820.6 2105.4 819.5L2104.3 820.6Z" fill="#2D6FBB"/>
<path d="M2087.8 801.9C1956.9 646.8 1954.7 457.6 1958 320.1C1959.1 271.7 1998.7 234.3 2036.1 203.5C2072.4 172.7 2116.4 139.7 2163.7 146.3C2192.3 150.7 2220.9 156.2 2251.7 161.7C2219.8 172.7 2191.2 196.9 2165.9 221.1C2130.7 254.1 2093.3 292.6 2094.4 341C2097.7 465.3 2108.7 631.4 2214.3 772.2C2168.1 804.1 2132.9 823.9 2118.6 828.3L2115.3 831.6C2110.9 827.2 2110.9 827.2 2109.8 826.1C2109.8 826.1 2107.6 823.9 2106.5 823.9C2106.5 823.9 2104.3 821.7 2104.3 820.6C2098.8 814 2093.3 808.5 2087.8 801.9Z" fill="#2256B0"/>
<path d="M1958 319C1958 319 1956.9 319 1956.9 317.9C1956.9 317.9 1956.9 315.7 1956.9 314.6L1861.2 135.3C1848 111.1 1855.7 82.5 1877.7 64.9L1936 15.4C1958 -3.30002 1988.8 -5.50002 2009.7 13.2L2161.5 144.1C2161.5 144.1 2162.6 144.1 2163.7 144.1C2163.7 144.1 2163.7 145.2 2164.8 146.3L2167 148.5H2165.9C2162.6 160.6 2127.4 205.7 2075.7 248.6C2024 291.5 1974.5 319 1962.4 320.1H1961.3C1961.3 321.2 1959.1 317.9 1959.1 317.9L1958 319Z" fill="#262533"/>
<path d="M1955.8 316.8C1955.8 316.8 1955.8 314.6 1955.8 313.5L1860.1 134.2C1846.9 110 1854.6 81.4002 1876.6 63.8002L1890.9 51.7002C1892 58.3002 1895.3 66.0002 1898.6 71.5002L2010.8 240.9C2010.8 242 2010.8 243.1 2011.9 244.2C2011.9 244.2 2013 244.2 2014.1 245.3L2016.3 248.6H2017.4C2029.5 244.2 2075.7 213.4 2123 165C2132.9 155.1 2141.7 145.2 2150.5 135.3L2160.4 144.1C2160.4 144.1 2161.5 144.1 2162.6 144.1C2162.6 144.1 2162.6 145.2 2163.7 146.3L2165.9 148.5H2164.8C2161.5 160.6 2126.3 205.7 2074.6 248.6C2022.9 291.5 1973.4 319 1961.3 320.1H1960.2C1960.2 321.2 1958 317.9 1958 317.9C1958 317.9 1956.9 317.9 1956.9 316.8H1955.8Z" fill="#1D1D28"/>
<path d="M2093.49 145.846L2102.17 135.899C2106.16 131.321 2105.69 124.372 2101.11 120.379L1994.18 27.0972C1989.6 23.1036 1982.66 23.5773 1978.66 28.1553L1969.98 38.1023C1965.99 42.6803 1966.46 49.629 1971.04 53.6226L2077.97 146.904C2082.55 150.898 2089.5 150.424 2093.49 145.846Z" fill="#31313F"/>
<path d="M2436.3 453.234L2470.02 412.61C2483.61 396.25 2481.36 371.978 2465 358.396L2338.04 252.999C2321.68 239.417 2297.41 241.669 2283.83 258.028L2250.1 298.653C2236.52 315.012 2238.77 339.285 2255.13 352.867L2382.08 458.264C2398.44 471.846 2422.72 469.594 2436.3 453.234Z" fill="#3E84CC"/>
<path d="M2081.2 793.1C2185.7 735.9 2305.6 657.8 2426.6 548.9C2499.2 482.9 2560.8 416.9 2611.4 355.3C2613.6 357.5 2615.8 359.7 2616.9 361.9C2623.5 369.6 2632.3 380.6 2640 390.5L2635.6 393.8C2621.3 422.4 2524.5 524.7 2395.8 633.6C2267.1 741.4 2149.4 819.5 2118.6 828.3L2115.3 831.6C2110.9 827.2 2110.9 827.2 2109.8 826.1C2109.8 826.1 2107.6 823.9 2106.5 823.9C2106.5 823.9 2104.3 821.7 2104.3 820.6C2098.8 814 2093.3 808.5 2087.8 801.9C2085.6 798.6 2083.4 796.4 2081.2 793.1Z" fill="#3E84CC"/>
<path d="M1708.06 264.266L1797.55 374.386C1803.68 381.93 1814.76 383.075 1822.31 376.945L1840.23 362.376C1847.78 356.246 1848.92 345.161 1842.79 337.618L1753.3 227.497C1747.17 219.954 1736.08 218.808 1728.54 224.939L1710.61 239.507C1703.07 245.637 1701.93 256.722 1708.06 264.266Z" fill="#262533"/>
</g>
<defs>
<clipPath id="clip0_478_10472">
<rect width="2640" height="3111.9" fill="white"/>
</clipPath>
</defs>
</svg>
