<svg width="319" height="40" viewBox="0 0 319 40" fill="none" xmlns="http://www.w3.org/2000/svg">
<g clip-path="url(#clip0_219_2034)">
<path d="M31.5569 30.6937H5.6986V29.1058H7.89037C8.27392 23.9588 13.2039 22.0424 15.9436 17.8826C15.3409 17.8826 12.8203 17.8826 12.767 17.8826C11.2328 18.4301 8.93146 21.8234 8.93146 23.7946H4.93148L4.98627 22.1519L3.67121 23.247L0.164383 19.1952C0.164383 19.1952 0 18.9761 0 18.8119C0 18.6476 0.0547942 18.5381 0.0547942 18.5381L5.58901 11.0382L6.57378 8.08142L8.05323 7.53388L9.58746 5.39995L9.03952 1.67662C10.519 1.12907 11.9436 1.62186 12.6544 2.33368C12.7092 1.23858 12.5996 0.0339694 12.5996 0.0339694C15.2297 -0.239805 16.1597 1.18382 16.5981 2.77172C17.3104 2.82647 17.9679 2.93598 18.5707 3.04549C18.6803 2.71696 19.009 2.44319 19.3926 2.44319C19.8857 2.44319 20.2145 2.82647 20.2145 3.26451C20.2145 3.37402 20.2145 3.42878 20.2145 3.48353C21.3652 3.86681 22.4611 4.41436 23.4474 5.01667C23.6117 4.79765 23.8309 4.68814 24.1049 4.68814C24.598 4.68814 24.9268 5.07142 24.9268 5.50946C24.9268 5.72848 24.872 5.89275 24.7624 6.00226C25.6939 6.76883 26.461 7.69966 27.1734 8.68525C27.2829 8.63049 27.4473 8.57574 27.5569 8.57574C28.0501 8.57574 28.4336 8.95902 28.4336 9.39706C28.4336 9.72559 28.2692 9.99937 27.9953 10.1089C28.5432 11.0929 28.98 12.1896 29.3103 13.3394C29.3651 13.2847 29.4747 13.2847 29.5295 13.2847C30.0227 13.2847 30.3514 13.6679 30.3514 14.106C30.3514 14.544 30.0775 14.8726 29.7487 14.9273C29.9679 16.0772 30.1322 17.227 30.2418 18.4316C30.735 18.4316 31.1185 18.8149 31.1185 19.253C31.1185 19.7457 30.735 20.0743 30.2966 20.129C30.2966 21.2789 30.2418 22.5382 30.1322 23.7429C30.5706 23.7976 30.8994 24.1809 30.8994 24.6189C30.8994 25.057 30.5158 25.4403 30.0227 25.4403H29.9679C29.7487 26.6449 29.5295 27.848 29.2555 29.1088H31.5569V30.6937ZM27.6132 29.1606C30.7913 16.0756 27.0653 5.67373 16.9299 4.46912C16.9847 5.01667 16.9847 5.45471 16.9847 5.89275C16.9847 6.54981 16.9299 7.09736 16.9299 7.09736L15.3424 6.82358C15.3972 6.27603 15.5068 2.5527 14.1917 1.73289C14.1917 1.73289 14.1917 3.70255 13.7533 5.67373L12.2724 5.39995C12.2724 4.03108 11.6696 3.48353 10.8477 3.10025L11.2313 5.78324L10.2998 7.15211L10.7381 8.41148L7.83405 9.39706L7.01214 11.7515L1.9178 18.7586L3.83559 21.0583L5.97257 19.2514L6.46572 19.58V22.263H7.61639C8.10954 20.3465 9.69857 18.1016 11.178 17.0065L10.3561 16.0209L11.5616 14.9805L12.7123 16.4042C12.7123 16.4042 16.8218 16.4042 16.8218 16.3494C17.4246 15.0353 17.8081 13.4474 17.8081 11.5873H19.3971C19.3971 17.8293 16.2739 20.2918 12.385 24.1246C10.9604 25.5482 9.7001 27.0799 9.53571 29.1621L27.6132 29.1606ZM4.7671 17.0612C4.82189 17.773 4.7123 18.8681 4.32874 19.4157L3.17806 18.9777C3.56162 18.4301 3.7808 17.6635 3.7808 17.0065L4.7671 17.0612ZM11.0669 10.985L8.60117 12.2991L8.43679 10.2731L11.0121 9.99937L11.0669 10.985Z" fill="#002143"/>
<path d="M31.557 38.7949H5.69873V35.6191H31.5586L31.557 38.7949Z" fill="#EE7D11"/>
<path d="M49.3132 31.1324C47.231 31.1324 45.5872 30.6396 43.9981 29.9278C43.6694 28.5042 43.5598 26.5877 43.4502 24.6166L44.7105 24.3975C45.4228 27.0805 46.4091 29.7088 49.6952 29.7088C51.9966 29.7088 53.3664 28.2851 53.3664 26.1497C53.3664 20.5099 43.9981 21.7708 43.9981 15.255C43.9981 12.2982 46.4091 9.61523 50.683 9.61523C52.1077 9.61523 53.6419 9.99852 55.1762 10.5461C55.2857 11.6959 55.3953 13.01 55.4501 15.3097L54.2994 15.3645C53.7515 13.4481 52.8748 11.0936 50.0818 11.0936C47.9996 11.0936 46.9585 12.5172 46.9585 14.2146C46.9585 19.4164 56.4912 18.3213 56.4912 25.1094C56.4897 28.3399 53.5871 31.1324 49.3132 31.1324ZM64.928 30.9134C64.0513 30.8586 63.339 30.6944 62.9006 30.5301V35.6755C62.9006 37.5372 63.1198 37.7015 65.6403 37.9205V38.9608H57.9143V37.9205C59.8869 37.7015 60.0513 37.5372 60.0513 35.6755V21.0575C60.0513 19.1411 59.9965 19.0863 58.1335 18.9221V17.9912C59.7773 17.6627 61.3101 17.1699 62.8991 16.6223V18.703L65.858 17.1699C66.2415 16.9509 66.6251 16.8961 67.0087 16.8961C70.4059 16.8961 72.3237 19.8514 72.3237 22.6986C72.3237 27.2996 69.036 30.4206 64.928 30.9134ZM65.6388 18.9236C64.7621 18.9236 63.6114 19.5259 62.8991 19.9639V28.0661C63.5018 28.7232 64.4881 29.216 65.6936 29.216C67.2826 29.216 69.3648 28.0114 69.3648 23.9063C69.3648 20.4567 67.721 18.9236 65.6388 18.9236ZM82.7331 20.2924C82.4043 19.8544 81.966 19.7449 81.418 19.7449C80.7057 19.7449 79.829 20.5662 79.2262 22.2636V27.3558C79.2262 29.2175 79.4454 29.3818 81.8016 29.546V30.6411H74.3496V29.546C76.2126 29.3818 76.4317 29.2175 76.4317 27.3558V21.17C76.4317 19.3084 76.2674 19.3084 74.5687 18.9798V18.049C76.2126 17.7205 77.8016 17.392 79.2262 16.8444V20.1297H79.281C80.2673 18.3228 81.6372 16.8992 82.8959 16.8992C83.9918 16.8992 84.7589 17.7205 84.7589 18.5966C84.7605 19.8544 83.4454 20.9495 82.7331 20.2924ZM93.1972 30.6396H86.1851V29.5445C88.0481 29.3802 88.3221 29.216 88.3221 27.2448V21.3313C88.3221 19.1958 88.1577 19.1958 86.3495 18.9768V18.046C88.0481 17.7174 89.7452 17.3342 91.1151 16.8414V27.2433C91.1151 29.2129 91.2794 29.3787 93.1972 29.543V30.6396ZM89.5808 13.9424C88.5397 13.9424 87.7178 13.1211 87.7178 12.0807C87.7178 10.9856 88.5397 10.1643 89.5808 10.1643C90.6767 10.1643 91.4986 10.9856 91.4986 12.0807C91.4986 13.1196 90.6782 13.9424 89.5808 13.9424ZM109.963 30.6396H103.497V29.5445C105.031 29.3802 105.25 29.216 105.25 27.4638V22.0994C105.25 20.1282 104.374 18.9236 102.73 18.9236C101.689 18.9236 100.483 19.6901 99.6614 20.4567V27.4638C99.6614 29.216 99.8258 29.3802 101.36 29.5445V30.6396H94.6752V29.5445C96.5382 29.3802 96.8121 29.216 96.8121 27.4638V21.1685C96.8121 19.3069 96.7025 19.1973 95.0587 18.9783V18.0475C96.7025 17.719 98.2368 17.3904 99.6599 16.8429V19.0331C100.372 18.4308 102.454 16.8976 104.043 16.8976C106.509 16.8976 108.042 18.595 108.042 21.1123V27.4623C108.042 29.2145 108.316 29.3787 109.96 29.543V30.6396H109.963ZM125.576 17.6095C125.357 18.1022 124.754 19.0331 124.261 19.3069L122.672 19.1426C123.11 19.7449 123.439 20.9495 123.439 21.8803C123.439 25.2204 120.427 27.0273 117.687 27.0273C117.523 27.0273 117.084 26.9725 116.701 26.9725C116.043 27.1916 115.495 27.9581 115.495 28.4509C115.495 28.9437 115.989 29.546 117.304 29.546H120.591C122.509 29.546 125.084 30.4769 125.084 33.5416C125.084 37.0459 121.413 40.0027 117.141 40.0027C113.415 40.0027 111.442 37.703 111.442 35.8413C111.442 34.6367 112.045 33.7059 114.62 31.7347C113.689 31.4062 112.045 30.4753 112.155 28.7247C113.415 28.1772 114.565 27.1916 115.059 26.5893C113.579 26.0965 112.209 24.3443 112.209 22.3747C112.209 18.8156 115.387 16.8992 118.016 16.8992C119.167 16.8992 120.263 17.1729 121.194 17.6657C122.619 17.611 124.043 17.4467 125.358 17.2824L125.576 17.6095ZM121.249 32.2823C120.482 32.0085 119.441 31.9537 117.742 31.9537C115.386 31.9537 114.345 33.7059 114.345 35.02C114.345 36.8817 115.989 38.3053 118.454 38.3053C121.194 38.3053 122.728 36.4984 122.728 34.6915C122.728 33.5416 122.071 32.6108 121.249 32.2823ZM117.742 18.2118C116.591 18.2118 115.276 19.4164 115.276 21.7161C115.276 24.0158 116.482 25.6584 118.126 25.6584C119.331 25.6584 120.482 24.6181 120.482 22.0994C120.482 19.9639 119.441 18.2118 117.742 18.2118ZM137.081 23.0302C136.588 23.0849 132.807 23.3587 129.357 23.4682C129.466 27.0805 131.603 28.6137 133.74 28.6137C134.946 28.6137 135.823 28.2851 136.917 27.19L137.629 28.1756C135.821 30.4206 133.684 30.9666 132.698 30.9666C128.807 30.9666 126.561 28.0114 126.561 24.5071C126.561 20.2362 129.794 16.8976 133.027 16.8976C135.711 16.8976 137.847 19.1973 137.847 21.7708C137.848 22.5922 137.684 22.9207 137.081 23.0302ZM132.425 18.2665C131.165 18.2665 129.85 19.6354 129.521 21.9883L134.234 21.8788C134.836 21.8788 134.946 21.7146 134.946 21.167C134.946 19.6901 133.905 18.2665 132.425 18.2665ZM148.205 20.2924C147.821 19.9092 147.328 19.7449 146.889 19.7449C146.177 19.7449 145.246 20.5662 144.643 22.2636V27.3558C144.643 29.2175 144.862 29.3818 147.217 29.546V30.6411H139.711V29.546C141.629 29.3818 141.794 29.2175 141.794 27.3558V21.17C141.794 19.3084 141.684 19.3084 139.931 18.9798V18.049C141.684 17.7205 143.218 17.392 144.643 16.8444V20.1297H144.698C145.629 18.3228 146.999 16.8992 148.314 16.8992C149.355 16.8992 150.177 17.7205 150.177 18.5966C150.177 19.8544 148.807 20.9495 148.205 20.2924Z" fill="#002143"/>
<path d="M169.53 30.6382H168.051V20.948H158.025V30.6382H156.491V11.1484H158.025V19.7434H168.051V11.1484H169.53V30.6382Z" fill="#002143"/>
<path d="M183.831 23.6865H174.41C174.463 28.2297 176.764 29.6533 179.34 29.6533C181.038 29.6533 182.024 29.3248 182.846 28.8867L183.175 30.0366C182.518 30.4199 181.148 30.8579 179.12 30.8579C175.23 30.8579 172.93 28.0106 172.93 24.1246C172.93 19.6894 175.396 16.8984 178.848 16.8984C183.066 16.8984 183.889 20.786 183.889 22.8104C183.886 23.139 183.886 23.4128 183.831 23.6865ZM182.353 22.5367C182.353 20.2917 181.312 18.0468 178.629 18.0468C175.997 18.0468 174.738 20.4545 174.519 22.5367H182.353Z" fill="#002143"/>
<path d="M193.969 30.638L193.749 28.8311C193.092 29.8715 191.667 30.9118 189.749 30.9118C187.119 30.9118 185.804 29.1596 185.804 27.1885C185.804 24.0127 188.599 22.3153 193.638 22.3153V21.9867C193.638 20.3441 193.364 18.0991 190.352 18.1539C189.31 18.1539 188.16 18.4277 187.174 19.03L186.736 17.9896C187.886 17.2778 189.366 16.8945 190.571 16.8945C194.078 16.8945 195.172 19.249 195.172 21.932V27.4607C195.172 28.5011 195.172 29.5962 195.337 30.6365L193.969 30.638ZM193.64 23.4666C191.066 23.4119 187.285 23.7952 187.285 27.0257C187.285 28.9421 188.544 29.7087 189.859 29.7087C191.886 29.7087 193.145 28.5041 193.53 27.0805C193.583 26.8067 193.638 26.5329 193.638 26.3139L193.64 23.4666Z" fill="#002143"/>
<path d="M200.708 30.6385H199.229V10.875H200.708V30.6385Z" fill="#002143"/>
<path d="M210.681 18.3215H206.955V27.1355C206.955 28.8329 207.557 29.709 208.874 29.709C209.477 29.709 209.915 29.6542 210.298 29.4899L210.461 30.6398C209.97 30.7493 209.42 30.8588 208.653 30.8588C207.668 30.8588 206.845 30.585 206.297 29.9827C205.751 29.3257 205.475 28.2306 205.475 26.8085V18.3215H203.229V17.1716H205.475V14.8171L206.955 14.2148V17.1716H210.681V18.3215Z" fill="#002143"/>
<path d="M223.775 30.6385H222.294V22.372C222.294 20.0723 221.417 18.1011 218.9 18.1011C217.09 18.1011 215.556 19.3057 215.119 21.0031C214.956 21.3317 214.956 21.715 214.956 22.2078V30.6385H213.422V10.875H214.956V19.251C215.886 17.6631 217.474 16.8418 219.285 16.8418C220.652 16.8418 223.776 17.6083 223.776 22.153V30.6385H223.775Z" fill="#002143"/>
<path d="M235.666 18.8133C235.005 18.4848 234.075 18.1015 232.761 18.1015C229.309 18.1015 227.609 20.894 227.609 23.9603C227.609 27.4646 229.693 29.6548 232.65 29.6548C234.02 29.6548 234.952 29.2715 235.772 28.943L236.156 30.0381C235.498 30.4214 234.131 30.8594 232.431 30.8594C228.653 30.8594 226.131 28.1217 226.131 24.0151C226.131 19.9084 228.816 16.8984 232.871 16.8984C234.296 16.8984 235.609 17.227 236.212 17.6103L235.666 18.8133Z" fill="#002143"/>
<path d="M246.624 30.638L246.404 28.8311C245.746 29.8715 244.323 30.9118 242.405 30.9118C239.773 30.9118 238.46 29.1596 238.46 27.1885C238.46 24.0127 241.254 22.3153 246.292 22.3153V21.9867C246.292 20.3441 246.019 18.0991 243.008 18.1539C241.964 18.1539 240.815 18.4277 239.83 19.03L239.39 17.9896C240.541 17.2778 242.022 16.8945 243.226 16.8945C246.734 16.8945 247.827 19.249 247.827 21.932V27.4607C247.827 28.5011 247.827 29.5962 247.993 30.6365L246.624 30.638ZM246.294 23.4666C243.72 23.4119 239.941 23.7952 239.941 27.0257C239.941 28.9421 241.198 29.7087 242.515 29.7087C244.542 29.7087 245.799 28.5041 246.183 27.0805C246.239 26.8067 246.292 26.5329 246.292 26.3139L246.294 23.4666Z" fill="#002143"/>
<path d="M257.035 18.3201C256.814 18.3201 256.595 18.3201 256.432 18.3201C254.514 18.3201 253.201 19.8533 252.87 21.8792C252.817 22.2625 252.817 22.6458 252.817 23.029V30.6384H251.283V20.9483C251.283 19.7437 251.283 18.4296 251.227 17.1703H252.596L252.65 19.5795C253.307 18.1011 254.733 16.8965 256.485 16.8965C256.651 16.8965 256.816 16.8965 257.035 16.9512V18.3201Z" fill="#002143"/>
<path d="M269.087 23.6865H259.667C259.72 28.2297 262.022 29.6533 264.595 29.6533C266.296 29.6533 267.28 29.3248 268.104 28.8867L268.431 30.0366C267.773 30.4199 266.404 30.8579 264.376 30.8579C260.487 30.8579 258.188 28.0106 258.188 24.1246C258.188 19.6894 260.652 16.8984 264.104 16.8984C268.321 16.8984 269.145 20.786 269.145 22.8104C269.143 23.139 269.143 23.4128 269.087 23.6865ZM267.609 22.5367C267.609 20.2917 266.568 18.0468 263.885 18.0468C261.253 18.0468 259.993 20.4545 259.773 22.5367H267.609Z" fill="#002143"/>
<path d="M280.924 30.7203H279.39V11.8086H280.924V30.7203Z" fill="#002143"/>
<path d="M304.156 30.7203H302.675L302.073 21.7436C301.855 18.9283 301.636 15.7403 301.745 13.2444C300.922 15.6354 300.211 17.7602 299.172 20.469L295.17 30.7219H294.184L290.459 20.7884C289.418 18.0263 288.598 15.7951 287.939 13.3509C287.886 15.9532 287.721 18.9815 287.502 21.9565L286.956 30.7219H285.475L286.899 11.8101H288.599L292.651 22.3291C293.584 24.7718 294.185 26.5787 294.788 28.6503C295.281 26.632 295.939 24.8783 296.925 22.3809L301.033 11.8086H302.841L304.156 30.7203Z" fill="#002143"/>
<path d="M318.621 30.7203H308.646V11.8086H318.181V13.0315H310.181V20.2028H317.744V21.3725H310.181V29.5538H318.621V30.7203Z" fill="#002143"/>
</g>
<defs>
<clipPath id="clip0_219_2034">
<rect width="318.621" height="40" fill="white"/>
</clipPath>
</defs>
</svg>
