<?xml version="1.0" encoding="UTF-8"?>
<svg id="Appointment_book" data-name="Appointment book" xmlns="http://www.w3.org/2000/svg" viewBox="0 0 1499.583 1080.606">
  <rect width="1499.583" height="1043.117" fill="#e2e8ea" stroke-width="0"/>
  <rect y="1041.451" width="1499.583" height="39.156" fill="#cadbd6" stroke-width="0"/>
  <rect y="1041.034" width="1499.583" height="7.498" fill="#f0f2f1" stroke-width="0"/>
  <polygon points="459.951 1012.292 69.956 1012.292 0 925.05 0 910.654 425.149 910.654 459.951 1012.292" fill="#8da3aa" stroke-width="0"/>
  <polygon points="102.399 982.3 50.814 982.3 71.383 1008.127 121.45 1008.127 102.399 982.3" fill="#cadbd6" stroke-width="0"/>
  <polygon points="101.152 982.3 52.21 982.3 67.448 1001.462 115.31 1001.462 101.152 982.3" fill="#fff" stroke-width="0"/>
  <polygon points="159.464 982.3 107.88 982.3 126.77 1008.127 176.836 1008.127 159.464 982.3" fill="#cadbd6" stroke-width="0"/>
  <polygon points="158.211 982.3 109.269 982.3 123.261 1001.462 171.123 1001.462 158.211 982.3" fill="#fff" stroke-width="0"/>
  <polygon points="216.529 982.3 164.945 982.3 182.156 1008.127 232.223 1008.127 216.529 982.3" fill="#cadbd6" stroke-width="0"/>
  <polygon points="215.27 982.3 166.328 982.3 179.074 1001.462 226.937 1001.462 215.27 982.3" fill="#fff" stroke-width="0"/>
  <polygon points="273.595 982.3 222.011 982.3 237.543 1008.127 287.609 1008.127 273.595 982.3" fill="#cadbd6" stroke-width="0"/>
  <polygon points="272.329 982.3 223.387 982.3 234.887 1001.462 282.75 1001.462 272.329 982.3" fill="#fff" stroke-width="0"/>
  <polygon points="330.66 982.3 279.076 982.3 292.929 1008.127 342.996 1008.127 330.66 982.3" fill="#cadbd6" stroke-width="0"/>
  <polygon points="329.387 982.3 280.446 982.3 290.701 1001.462 338.563 1001.462 329.387 982.3" fill="#fff" stroke-width="0"/>
  <polygon points="387.725 982.3 336.141 982.3 348.316 1008.127 398.383 1008.127 387.725 982.3" fill="#cadbd6" stroke-width="0"/>
  <polygon points="386.446 982.3 337.504 982.3 346.514 1001.462 394.376 1001.462 386.446 982.3" fill="#fff" stroke-width="0"/>
  <polygon points="444.791 982.3 393.207 982.3 403.702 1008.127 453.769 1008.127 444.791 982.3" fill="#cadbd6" stroke-width="0"/>
  <polygon points="443.505 982.3 394.563 982.3 402.327 1001.462 450.189 1001.462 443.505 982.3" fill="#fff" stroke-width="0"/>
  <polygon points="78.813 949.809 24.979 949.809 47.206 977.718 99.401 977.718 78.813 949.809" fill="#cadbd6" stroke-width="0"/>
  <polygon points="77.632 950.226 26.271 950.226 42.833 971.054 93.021 971.054 77.632 950.226" fill="#fff" stroke-width="0"/>
  <polygon points="137.973 949.809 84.139 949.809 104.552 977.718 156.746 977.718 137.973 949.809" fill="#cadbd6" stroke-width="0"/>
  <polygon points="136.787 950.226 85.426 950.226 100.634 971.054 150.822 971.054 136.787 950.226" fill="#fff" stroke-width="0"/>
  <polygon points="197.133 949.809 143.298 949.809 161.897 977.718 214.092 977.718 197.133 949.809" fill="#cadbd6" stroke-width="0"/>
  <polygon points="195.942 950.226 144.581 950.226 158.435 971.054 208.623 971.054 195.942 950.226" fill="#fff" stroke-width="0"/>
  <polygon points="256.292 949.809 202.458 949.809 219.243 977.718 271.437 977.718 256.292 949.809" fill="#cadbd6" stroke-width="0"/>
  <polygon points="255.097 950.226 203.735 950.226 216.236 971.054 266.424 971.054 255.097 950.226" fill="#fff" stroke-width="0"/>
  <polygon points="315.452 949.809 261.618 949.809 276.588 977.718 328.783 977.718 315.452 949.809" fill="#cadbd6" stroke-width="0"/>
  <polygon points="314.251 950.226 262.89 950.226 274.037 971.054 324.225 971.054 314.251 950.226" fill="#fff" stroke-width="0"/>
  <polygon points="374.612 949.809 320.778 949.809 333.934 977.718 386.128 977.718 374.612 949.809" fill="#cadbd6" stroke-width="0"/>
  <polygon points="373.406 950.226 322.045 950.226 331.838 971.054 382.026 971.054 373.406 950.226" fill="#fff" stroke-width="0"/>
  <polygon points="433.771 949.809 379.937 949.809 391.279 977.718 443.474 977.718 433.771 949.809" fill="#cadbd6" stroke-width="0"/>
  <polygon points="432.561 950.226 381.2 950.226 389.639 971.054 439.827 971.054 432.561 950.226" fill="#fff" stroke-width="0"/>
  <polygon points="75.417 945.227 21.382 945.227 0 918.385 0 915.236 53.294 915.236 75.417 945.227" fill="#cadbd6" stroke-width="0"/>
  <polygon points="68.773 938.146 16.554 938.146 0 917.327 0 915.652 52.152 915.652 68.773 938.146" fill="#fff" stroke-width="0"/>
  <polygon points="114.699 915.236 58.9 915.236 80.836 945.227 134.873 945.227 114.699 915.236" fill="#cadbd6" stroke-width="0"/>
  <polygon points="113.558 915.652 60.071 915.652 76.496 938.146 128.716 938.146 113.558 915.652" fill="#fff" stroke-width="0"/>
  <polygon points="176.104 915.236 120.305 915.236 140.292 945.227 194.329 945.227 176.104 915.236" fill="#cadbd6" stroke-width="0"/>
  <polygon points="174.962 915.652 121.475 915.652 136.438 938.146 188.658 938.146 174.962 915.652" fill="#fff" stroke-width="0"/>
  <polygon points="237.51 915.236 181.711 915.236 199.748 945.227 253.785 945.227 237.51 915.236" fill="#cadbd6" stroke-width="0"/>
  <polygon points="236.366 915.652 182.88 915.652 196.38 938.146 248.6 938.146 236.366 915.652" fill="#fff" stroke-width="0"/>
  <polygon points="298.916 915.236 243.117 915.236 259.204 945.227 313.241 945.227 298.916 915.236" fill="#cadbd6" stroke-width="0"/>
  <polygon points="297.77 915.652 244.284 915.652 256.322 938.146 308.542 938.146 297.77 915.652" fill="#fff" stroke-width="0"/>
  <polygon points="360.321 915.236 304.522 915.236 318.661 945.227 372.697 945.227 360.321 915.236" fill="#cadbd6" stroke-width="0"/>
  <polygon points="359.174 915.652 305.688 915.652 316.264 938.146 368.484 938.146 359.174 915.652" fill="#fff" stroke-width="0"/>
  <polygon points="421.727 915.236 365.928 915.236 378.117 945.227 432.153 945.227 421.727 915.236" fill="#cadbd6" stroke-width="0"/>
  <polygon points="420.578 915.652 367.092 915.652 376.206 938.146 428.426 938.146 420.578 915.652" fill="#fff" stroke-width="0"/>
  <polygon points="968.324 910.654 531.634 910.654 554.981 1012.292 944.977 1012.292 968.324 910.654" fill="#8da3aa" stroke-width="0"/>
  <polygon points="604.663 982.3 553.079 982.3 558.872 1008.127 608.938 1008.127 604.663 982.3" fill="#cadbd6" stroke-width="0"/>
  <polygon points="603.359 982.3 554.417 982.3 558.692 1001.462 606.554 1001.462 603.359 982.3" fill="#fff" stroke-width="0"/>
  <polygon points="661.729 982.3 610.145 982.3 614.258 1008.127 664.325 1008.127 661.729 982.3" fill="#cadbd6" stroke-width="0"/>
  <polygon points="660.418 982.3 611.476 982.3 614.505 1001.462 662.367 1001.462 660.418 982.3" fill="#fff" stroke-width="0"/>
  <polygon points="718.794 982.3 667.21 982.3 669.645 1008.127 719.712 1008.127 718.794 982.3" fill="#cadbd6" stroke-width="0"/>
  <polygon points="717.477 982.3 668.535 982.3 670.318 1001.462 718.181 1001.462 717.477 982.3" fill="#fff" stroke-width="0"/>
  <polygon points="775.859 982.3 724.275 982.3 725.031 1008.127 775.098 1008.127 775.859 982.3" fill="#cadbd6" stroke-width="0"/>
  <polygon points="774.538 982.3 725.596 982.3 726.134 1001.462 773.997 1001.462 774.538 982.3" fill="#fff" stroke-width="0"/>
  <polygon points="832.925 982.3 781.341 982.3 780.418 1008.127 830.485 1008.127 832.925 982.3" fill="#cadbd6" stroke-width="0"/>
  <polygon points="831.6 982.3 782.658 982.3 781.95 1001.462 829.813 1001.462 831.6 982.3" fill="#fff" stroke-width="0"/>
  <polygon points="889.99 982.3 838.406 982.3 835.805 1008.127 885.871 1008.127 889.99 982.3" fill="#cadbd6" stroke-width="0"/>
  <polygon points="888.659 982.3 839.717 982.3 837.764 1001.462 885.626 1001.462 888.659 982.3" fill="#fff" stroke-width="0"/>
  <polygon points="947.056 982.3 895.471 982.3 891.191 1008.127 941.258 1008.127 947.056 982.3" fill="#cadbd6" stroke-width="0"/>
  <polygon points="945.717 982.3 896.776 982.3 893.577 1001.462 941.439 1001.462 945.717 982.3" fill="#fff" stroke-width="0"/>
  <polygon points="599.511 949.809 545.677 949.809 551.937 977.718 604.131 977.718 599.511 949.809" fill="#cadbd6" stroke-width="0"/>
  <polygon points="598.287 950.226 546.926 950.226 551.572 971.054 601.76 971.054 598.287 950.226" fill="#fff" stroke-width="0"/>
  <polygon points="658.671 949.809 604.837 949.809 609.282 977.718 661.477 977.718 658.671 949.809" fill="#cadbd6" stroke-width="0"/>
  <polygon points="657.442 950.226 606.081 950.226 609.373 971.054 659.561 971.054 657.442 950.226" fill="#fff" stroke-width="0"/>
  <polygon points="717.831 949.809 663.997 949.809 666.628 977.718 718.822 977.718 717.831 949.809" fill="#cadbd6" stroke-width="0"/>
  <polygon points="716.597 950.226 665.236 950.226 667.174 971.054 717.362 971.054 716.597 950.226" fill="#fff" stroke-width="0"/>
  <polygon points="776.988 949.809 723.154 949.809 723.971 977.718 776.165 977.718 776.988 949.809" fill="#cadbd6" stroke-width="0"/>
  <polygon points="775.751 950.226 724.39 950.226 724.975 971.054 775.162 971.054 775.751 950.226" fill="#fff" stroke-width="0"/>
  <polygon points="836.145 949.809 782.31 949.809 781.313 977.718 833.508 977.718 836.145 949.809" fill="#cadbd6" stroke-width="0"/>
  <polygon points="834.905 950.226 783.544 950.226 782.775 971.054 832.963 971.054 834.905 950.226" fill="#fff" stroke-width="0"/>
  <polygon points="895.304 949.809 841.47 949.809 838.659 977.718 890.853 977.718 895.304 949.809" fill="#cadbd6" stroke-width="0"/>
  <polygon points="894.06 950.226 842.699 950.226 840.576 971.054 890.764 971.054 894.06 950.226" fill="#fff" stroke-width="0"/>
  <polygon points="954.464 949.809 900.63 949.809 896.004 977.718 948.199 977.718 954.464 949.809" fill="#cadbd6" stroke-width="0"/>
  <polygon points="953.215 950.226 901.854 950.226 898.377 971.054 948.565 971.054 953.215 950.226" fill="#fff" stroke-width="0"/>
  <polygon points="593.759 915.236 537.96 915.236 544.687 945.227 598.724 945.227 593.759 915.236" fill="#cadbd6" stroke-width="0"/>
  <polygon points="592.607 915.652 539.12 915.652 544.138 938.146 596.357 938.146 592.607 915.652" fill="#fff" stroke-width="0"/>
  <polygon points="655.165 915.236 599.366 915.236 604.143 945.227 658.18 945.227 655.165 915.236" fill="#cadbd6" stroke-width="0"/>
  <polygon points="654.011 915.652 600.524 915.652 604.08 938.146 656.299 938.146 654.011 915.652" fill="#fff" stroke-width="0"/>
  <polygon points="716.57 915.236 660.771 915.236 663.599 945.227 717.636 945.227 716.57 915.236" fill="#cadbd6" stroke-width="0"/>
  <polygon points="715.415 915.652 661.928 915.652 664.022 938.146 716.241 938.146 715.415 915.652" fill="#fff" stroke-width="0"/>
  <polygon points="777.974 915.236 722.175 915.236 723.053 945.227 777.09 945.227 777.974 915.236" fill="#cadbd6" stroke-width="0"/>
  <polygon points="776.817 915.652 723.331 915.652 723.962 938.146 776.181 938.146 776.817 915.652" fill="#fff" stroke-width="0"/>
  <polygon points="839.377 915.236 783.578 915.236 782.506 945.227 836.543 945.227 839.377 915.236" fill="#cadbd6" stroke-width="0"/>
  <polygon points="838.22 915.652 784.733 915.652 783.903 938.146 836.122 938.146 838.22 915.652" fill="#fff" stroke-width="0"/>
  <polygon points="900.783 915.236 844.983 915.236 841.962 945.227 895.999 945.227 900.783 915.236" fill="#cadbd6" stroke-width="0"/>
  <polygon points="899.624 915.652 846.138 915.652 843.845 938.146 896.064 938.146 899.624 915.652" fill="#fff" stroke-width="0"/>
  <polygon points="962.188 915.236 906.389 915.236 901.418 945.227 955.455 945.227 962.188 915.236" fill="#cadbd6" stroke-width="0"/>
  <polygon points="961.028 915.652 907.542 915.652 903.786 938.146 956.006 938.146 961.028 915.652" fill="#fff" stroke-width="0"/>
  <polygon points="1499.583 910.654 1499.583 925.516 1430.003 1012.292 1040.007 1012.292 1074.81 910.654 1499.583 910.654" fill="#8da3aa" stroke-width="0"/>
  <polygon points="1106.928 982.3 1055.344 982.3 1046.36 1008.127 1096.427 1008.127 1106.928 982.3" fill="#cadbd6" stroke-width="0"/>
  <polygon points="1105.572 982.3 1056.63 982.3 1049.941 1001.462 1097.804 1001.462 1105.572 982.3" fill="#fff" stroke-width="0"/>
  <polygon points="1163.993 982.3 1112.409 982.3 1101.747 1008.127 1151.814 1008.127 1163.993 982.3" fill="#cadbd6" stroke-width="0"/>
  <polygon points="1162.63 982.3 1113.689 982.3 1105.755 1001.462 1153.617 1001.462 1162.63 982.3" fill="#fff" stroke-width="0"/>
  <polygon points="1221.059 982.3 1169.475 982.3 1157.134 1008.127 1207.2 1008.127 1221.059 982.3" fill="#cadbd6" stroke-width="0"/>
  <polygon points="1219.689 982.3 1170.747 982.3 1161.568 1001.462 1209.43 1001.462 1219.689 982.3" fill="#fff" stroke-width="0"/>
  <polygon points="1278.124 982.3 1226.54 982.3 1212.52 1008.127 1262.587 1008.127 1278.124 982.3" fill="#cadbd6" stroke-width="0"/>
  <polygon points="1276.748 982.3 1227.806 982.3 1217.381 1001.462 1265.243 1001.462 1276.748 982.3" fill="#fff" stroke-width="0"/>
  <polygon points="1335.19 982.3 1283.605 982.3 1267.907 1008.127 1317.973 1008.127 1335.19 982.3" fill="#cadbd6" stroke-width="0"/>
  <polygon points="1333.807 982.3 1284.865 982.3 1273.194 1001.462 1321.057 1001.462 1333.807 982.3" fill="#fff" stroke-width="0"/>
  <polygon points="1392.255 982.3 1340.671 982.3 1323.293 1008.127 1373.36 1008.127 1392.255 982.3" fill="#cadbd6" stroke-width="0"/>
  <polygon points="1390.866 982.3 1341.924 982.3 1329.008 1001.462 1376.87 1001.462 1390.866 982.3" fill="#fff" stroke-width="0"/>
  <polygon points="1449.32 982.3 1397.736 982.3 1378.68 1008.127 1428.746 1008.127 1449.32 982.3" fill="#cadbd6" stroke-width="0"/>
  <polygon points="1447.924 982.3 1398.983 982.3 1384.821 1001.462 1432.683 1001.462 1447.924 982.3" fill="#fff" stroke-width="0"/>
  <polygon points="1120.204 949.809 1066.37 949.809 1056.662 977.718 1108.856 977.718 1120.204 949.809" fill="#cadbd6" stroke-width="0"/>
  <polygon points="1118.941 950.226 1067.58 950.226 1060.31 971.054 1110.498 971.054 1118.941 950.226" fill="#fff" stroke-width="0"/>
  <polygon points="1179.364 949.809 1125.53 949.809 1114.007 977.718 1166.202 977.718 1179.364 949.809" fill="#cadbd6" stroke-width="0"/>
  <polygon points="1178.096 950.226 1126.735 950.226 1118.111 971.054 1168.299 971.054 1178.096 950.226" fill="#fff" stroke-width="0"/>
  <polygon points="1238.523 949.809 1184.689 949.809 1171.353 977.718 1223.547 977.718 1238.523 949.809" fill="#cadbd6" stroke-width="0"/>
  <polygon points="1237.251 950.226 1185.89 950.226 1175.912 971.054 1226.1 971.054 1237.251 950.226" fill="#fff" stroke-width="0"/>
  <polygon points="1297.683 949.809 1243.849 949.809 1228.698 977.718 1280.893 977.718 1297.683 949.809" fill="#cadbd6" stroke-width="0"/>
  <polygon points="1296.406 950.226 1245.045 950.226 1233.713 971.054 1283.901 971.054 1296.406 950.226" fill="#fff" stroke-width="0"/>
  <polygon points="1356.843 949.809 1303.009 949.809 1286.044 977.718 1338.238 977.718 1356.843 949.809" fill="#cadbd6" stroke-width="0"/>
  <polygon points="1355.561 950.226 1304.2 950.226 1291.514 971.054 1341.702 971.054 1355.561 950.226" fill="#fff" stroke-width="0"/>
  <polygon points="1416.003 949.809 1362.168 949.809 1343.389 977.718 1395.584 977.718 1416.003 949.809" fill="#cadbd6" stroke-width="0"/>
  <polygon points="1414.715 950.226 1363.354 950.226 1349.315 971.054 1399.503 971.054 1414.715 950.226" fill="#fff" stroke-width="0"/>
  <polygon points="1475.162 949.809 1421.328 949.809 1400.735 977.718 1452.929 977.718 1475.162 949.809" fill="#cadbd6" stroke-width="0"/>
  <polygon points="1473.87 950.226 1422.509 950.226 1407.116 971.054 1457.304 971.054 1473.87 950.226" fill="#fff" stroke-width="0"/>
  <polygon points="1134.22 915.236 1078.421 915.236 1067.989 945.227 1122.026 945.227 1134.22 915.236" fill="#cadbd6" stroke-width="0"/>
  <polygon points="1133.056 915.652 1079.57 915.652 1071.718 938.146 1123.937 938.146 1133.056 915.652" fill="#fff" stroke-width="0"/>
  <polygon points="1195.626 915.236 1139.827 915.236 1127.445 945.227 1181.482 945.227 1195.626 915.236" fill="#cadbd6" stroke-width="0"/>
  <polygon points="1194.46 915.652 1140.974 915.652 1131.66 938.146 1183.879 938.146 1194.46 915.652" fill="#fff" stroke-width="0"/>
  <polygon points="1257.032 915.236 1201.232 915.236 1186.901 945.227 1240.938 945.227 1257.032 915.236" fill="#cadbd6" stroke-width="0"/>
  <polygon points="1255.865 915.652 1202.378 915.652 1191.602 938.146 1243.821 938.146 1255.865 915.652" fill="#fff" stroke-width="0"/>
  <polygon points="1318.437 915.236 1262.638 915.236 1246.357 945.227 1300.394 945.227 1318.437 915.236" fill="#cadbd6" stroke-width="0"/>
  <polygon points="1317.269 915.652 1263.782 915.652 1251.544 938.146 1303.763 938.146 1317.269 915.652" fill="#fff" stroke-width="0"/>
  <polygon points="1379.843 915.236 1324.044 915.236 1305.813 945.227 1359.85 945.227 1379.843 915.236" fill="#cadbd6" stroke-width="0"/>
  <polygon points="1378.673 915.652 1325.186 915.652 1311.486 938.146 1363.705 938.146 1378.673 915.652" fill="#fff" stroke-width="0"/>
  <polygon points="1441.249 915.236 1385.449 915.236 1365.269 945.227 1419.306 945.227 1441.249 915.236" fill="#cadbd6" stroke-width="0"/>
  <polygon points="1440.077 915.652 1386.59 915.652 1371.428 938.146 1423.647 938.146 1440.077 915.652" fill="#fff" stroke-width="0"/>
  <polygon points="1499.583 915.236 1499.583 919.089 1478.76 945.227 1424.725 945.227 1446.856 915.236 1499.583 915.236" fill="#cadbd6" stroke-width="0"/>
  <polygon points="1499.583 915.652 1499.583 918.039 1483.588 938.146 1431.369 938.146 1447.994 915.652 1499.583 915.652" fill="#fff" stroke-width="0"/>
</svg>