<?xml version="1.0" encoding="utf-8"?>
<!-- Generator: Adobe Illustrator 24.1.1, SVG Export Plug-In . SVG Version: 6.00 Build 0)  -->
<svg version="1.1" id="Layer_1" xmlns="http://www.w3.org/2000/svg" xmlns:xlink="http://www.w3.org/1999/xlink" x="0px" y="0px"
	 viewBox="0 0 1838 705" style="enable-background:new 0 0 1838 705;" xml:space="preserve">
<style type="text/css">
	.st0{fill:#CADBD6;}
	.st1{fill:#8DA3AA;}
	.st2{fill:#FFFFFF;}
	.st3{clip-path:url(#SVGID_2_);}
	.st4{fill:#D3F5FE;}
	.st5{fill:#F3FDFF;}
	.st6{fill:#B2E0EA;}
	.st7{fill:#9BD3DD;}
	.st8{opacity:0.5;fill:#ABCE26;enable-background:new    ;}
	.st9{fill:#8AB118;}
	.st10{fill:#ABCE26;}
	.st11{fill:#333231;}
	.st12{fill:#CC3A3A;}
	.st13{fill:none;}
</style>
<g id="Layer_1_1_">
	<rect x="722" class="st0" width="329.2" height="705"/>
	<rect x="740.7" y="25.3" class="st1" width="291.8" height="657.5"/>
	<rect x="722" class="st2" width="329.2" height="2.4"/>
	<rect class="st0" width="329.2" height="705"/>
	<rect x="18.7" y="25.3" class="st1" width="291.8" height="657.5"/>
	<rect class="st2" width="329.2" height="2.4"/>
	<rect x="1504.6" class="st0" width="329.2" height="705"/>
	<rect x="1523.3" y="25.3" class="st1" width="291.8" height="657.5"/>
	<rect x="1504.6" class="st2" width="329.2" height="2.4"/>
	<g>
		<defs>
			<path id="SVGID_1_" d="M866,233.3H747.5V31.9H866V233.3z M1023,31.9H899.2v201.4H1023V31.9L1023,31.9z M866,249.2H747.5v201.4
				H866V249.2z M1023,249.2H899.2v201.4H1023V249.2z M866,466.5H747.5v201.4H866V466.5L866,466.5z M1023,466.5H899.2v201.4H1023
				V466.5L1023,466.5z M144.1,233.3H25.6V31.9h118.5V233.3z M301.1,31.9H177.3v201.4h123.8V31.9L301.1,31.9z M144.1,249.2H25.6
				v201.4h118.5V249.2z M301.1,249.2H177.3v201.4h123.8V249.2z M144.1,466.5H25.6v201.4h118.5V466.5L144.1,466.5z M301.1,466.5
				H177.3v201.4h123.8V466.5L301.1,466.5z M1648.6,233.3h-118.5V31.9h118.5V233.3z M1805.6,31.9h-123.8v201.4h123.8V31.9
				L1805.6,31.9z M1648.6,249.2h-118.5v201.4h118.5V249.2z M1805.6,249.2h-123.8v201.4h123.8V249.2z M1648.6,466.5h-118.5v201.4
				h118.5V466.5L1648.6,466.5z M1805.6,466.5h-123.8v201.4h123.8V466.5L1805.6,466.5z"/>
		</defs>
		<clipPath id="SVGID_2_">
			<use xlink:href="#SVGID_1_"  style="overflow:visible;"/>
		</clipPath>
		<g class="st3">
			<g>
				<g>
					<path class="st4" d="M-13.2-267.8v487c0-18.1,14.4-29,32.2-24.6c3.8,0.9,7.4,2.5,10.8,4.5c0-0.6,0-1.3,0-1.9
						c0-32.4,25.9-52.2,57.8-44.9c4.3,1,8.5,2.4,12.6,4.3c16-27.4,48.2-41.5,85.4-34.1c32.4,6.5,61.1,27.8,78.7,55.6
						c4.9-2.3,10.8-3.1,17.1-2c9.9,1.7,18.8,7.8,24.6,15.9c14-11.3,33.1-16.5,54.2-13.3c28.2,4.3,52.9,22.6,66.6,46.9
						c5.1-2.8,11.2-4,17.9-3.1c7.9,1,15.2,4.8,20.7,10.3c12.3-15.6,32.1-24.5,54.7-22.9c6.8-10.8,19.4-17.3,33.9-15.9
						c9.5,0.9,18.2,5.2,25,11.4c10.2-14.3,27.7-22.8,47.5-21.2c19.8,1.6,37.2,12.8,47.5,28.7c19.6-14.4,44.6-22.4,71.8-21
						c54.7,2.7,100.4,41.7,111.7,92.8c7.6,0.4,14.6,3.1,20.3,7.5c5.6-29.9,32.1-52.1,63.9-52.2c35.3,0,64,27.2,64.9,62
						c7.3-4.3,15.8-6.8,24.7-7c4.8-0.1,9.5,0.4,13.9,1.6c-0.1-1.4-0.2-2.7-0.2-4.1c0-28.8,23.5-52.8,52.5-54.1
						c5.8-0.3,11.3,0.4,16.5,1.9c3.9-13.3,16.2-23.5,30.7-24.4c14.3-0.8,26.4,7.8,30.5,20.4c3.2-1.6,6.8-2.5,10.5-2.8
						c12.8-0.9,23.6,7.1,26.5,18.7c7.4-6.1,16.5-10.1,26.5-10.9c20.1-1.6,37,10.3,42.2,28.2c0.8-0.2,1.7-0.3,2.5-0.4
						c6.3-0.6,12.1,1.1,16.7,4.3c5.8-30.8,32.4-56.3,64.4-60c15.6-1.8,29.9,1.9,41.1,9.5c10-13.8,25.4-23.8,42.7-26.2
						c5.2-0.7,10.1-0.7,14.9,0c1.6-7.3,7.9-13.4,15.5-14.5c8.1-1.2,14.7,3.8,15.8,11.4c8.2-9.7,19.6-16.7,32.3-18.7
						c5.9-0.9,11.5-0.7,16.7,0.5c13.6-18.9,34.2-33,57.3-37.1c31.3-5.6,58,8.7,68.7,34.1c5.4-3,11.2-5.2,17.2-6.4
						c28.6-5.8,51.7,12.4,51.7,41.2c0,1,0,2,0,3c10.8,2.3,19,10.2,21.6,21.4c5.7-3.4,11.8-6,18.2-7.5c18.4-4.2,34.4,1.7,43.4,14.3
						c4.7-3.4,10.1-6,15.6-7.4c20.3-5,36.7,7.4,36.7,28v222.8l0,0v-749.6H-13.2z"/>
					<path class="st5" d="M22.8,421h31.4v23.2h17.2l19.2-14v21.3h25.9v36.1h41.9v-46.2l41.9,25.5v36.7h3.7l-1.9-83.2h5.3v-8.9h3.9
						l3.1-53.8l3.1,53.8h20.3v8.9h20l-0.7,31.1h17.3v74.9h20.9v-18.3h14.1v-94.4l30.1-40.2l30.1,40.2v27.8h6.2l25.2-11.2v11.2h11.5
						v46.2h21.9V337.6H451V299h3.8v38.6h16.6v39.6l15.8,13.9v24.4h37.1v41.3h10.1v16.9h19.5v-27.2l14.6-16.2v-14.7h7V411H621v4.6h7
						v39.2h15.5v-63.7h7v-4.6H696v4.6h7v110.6h14.2v-86.1h7V411h45.5v4.6h7v41.3h19.6v-88.8h25.5v-17.2h25.5v-18.8h25.5v88.5h42.9
						l-1.4,61.1h12.3v-8l36-26.2v-26.3H994v23.2h17.2l19.2-14v21.3h25.9v36.1h41.9v-46.2l41.9,25.5v36.7h3.7l-1.9-83.2h5.3v-8.9h3.9
						l3.1-53.8l3.1,53.8h20.3v8.9h20l-0.7,31.1h17.3v74.9h20.9v-18.3h14.1v-94.4l30.1-40.2l30.1,40.2v27.8h6.2l25.2-11.2v11.2h11.5
						v46.2h21.9V337.8h16.6v-38.6h3.8v38.6h16.6v39.6l15.8,13.9v24.4h37.1V457h10.1v16.9h19.5v-27.2l14.6-16.2v-14.7h7v-4.6h45.5
						v4.6h7V455h15.5v-63.7h7v-4.6h45.5v4.6h7v110.6h14.2v-86.1h7v-4.6h45.5v4.6h7v41.3h19.6v-88.8h25.5v-17.2h25.5v-18.8h25.5v88.5
						h42.9l-1.4,61.1h20.2V259.1c0-20.6-16.4-33-36.7-28c-5.6,1.4-10.9,3.9-15.6,7.4c-9-12.5-25.1-18.5-43.4-14.3
						c-6.4,1.5-12.5,4.1-18.2,7.5c-2.6-11.2-10.8-19.1-21.6-21.4c0-1,0-2,0-3c0-28.8-23.1-47.1-51.7-41.2c-6,1.2-11.8,3.4-17.2,6.4
						c-10.8-25.4-37.4-39.7-68.7-34.1c-23.1,4.1-43.7,18.3-57.3,37.1c-5.2-1.2-10.8-1.5-16.7-0.5c-12.7,2-24.1,9-32.3,18.7
						c-1.1-7.6-7.7-12.6-15.8-11.4c-7.5,1.1-13.9,7.3-15.5,14.5c-4.7-0.7-9.7-0.7-14.9,0c-17.3,2.4-32.7,12.4-42.7,26.2
						c-11.2-7.6-25.5-11.3-41.1-9.5c-32,3.7-58.7,29.2-64.4,60c-4.5-3.2-10.4-4.9-16.7-4.3c-0.9,0-1.7,0.2-2.5,0.4
						c-5.2-17.9-22.1-29.8-42.2-28.2c-10,0.8-19.1,4.8-26.5,10.9c-3-11.6-13.7-19.6-26.5-18.7c-3.7,0.3-7.3,1.2-10.5,2.8
						c-4.1-12.6-16.2-21.2-30.5-20.4c-14.5,0.8-26.8,11-30.7,24.4c-5.2-1.4-10.7-2.1-16.5-1.9c-29,1.3-52.5,25.3-52.5,54.1
						c0,1.4,0,2.8,0.2,4.1c-4.4-1.1-9.1-1.7-13.9-1.6c-9,0.2-17.4,2.8-24.7,7c-0.9-34.8-29.6-62.1-64.9-62
						c-31.8,0.1-58.2,22.4-63.9,52.2c-5.6-4.4-12.6-7.2-20.3-7.5c-11.3-51.1-57-90.1-111.7-92.8c-27.2-1.3-52.2,6.6-71.8,21
						c-10.2-15.9-27.7-27.1-47.5-28.7s-37.3,6.9-47.5,21.2c-6.8-6.2-15.5-10.5-25-11.4c-14.5-1.4-27.1,5-33.9,15.9
						c-22.5-1.7-42.4,7.3-54.7,22.9c-5.6-5.5-12.8-9.3-20.7-10.3c-6.6-0.9-12.8,0.4-17.9,3.1c-13.8-24.2-38.5-42.6-66.6-46.9
						c-21.1-3.2-40.2,2.1-54.2,13.3c-5.8-8.1-14.7-14.2-24.6-15.9c-6.3-1.1-12.2-0.3-17.1,2c-17.5-27.8-46.3-49.1-78.7-55.6
						c-37.2-7.4-69.4,6.7-85.4,34.1c-4.1-1.8-8.3-3.3-12.6-4.3c-32-7.3-57.8,12.6-57.8,44.9c0,0.6,0,1.3,0,1.9
						c-3.4-2-7-3.6-10.8-4.5c-17.8-4.4-32.2,6.5-32.2,24.6v254.4l36-26.2v-26.3L22.8,421z"/>
					<path class="st6" d="M914.1,481.6l1.4-61.1h-42.9V332h-25.5v18.8h-25.5V368h-25.5v88.8h-19.6v-41.3h-7v-4.6H724v4.6h-7v86.1
						h-14.2V391h-7v-4.6h-45.5v4.6h-7v63.7h-15.5v-39.2h-7v-4.6h-45.5v4.6h-7v14.7l-14.6,16.2v27.2h-19.5v-16.9h-10.1v-41.3H487V391
						l-15.8-13.9v-39.6h-16.6v-38.6h-3.8v38.6h-16.6v150.1h-21.9v-46.2h-11.5v-11.2l-25.2,11.2h-6.2v-27.8l-30.1-40.2l-30.1,40.2
						V508h-14.1v18.3h-20.9v-74.9h-17.3l0.7-31.1h-20v-8.9h-20.3l-3.1-53.8l-3.1,53.8h-3.9v8.9h-5.3l1.9,83.2h-3.7v-36.7l-41.9-25.5
						v46.2h-41.9v-36.1H90.4v-21.3l-19.2,14h14.2v130.5h35.2v40.8h5v-41.3h7v-4.6h45.5v4.6h7v86.1h7.2V541.6h8.6V536h56.2v5.6h8.6
						v71.7h8.5v-39.2h7v-4.6h45.5v4.6h7v14.7l14.6,16.2v27.2h38.3v-16.9h10.1V574h37.1v-24.4l15.8-13.9v-39.6h37v150.1h21.9V600H520
						v-11.2l25.2,11.2h6.2v-83.6l37.9-50.6l37.9,50.6V685h12.4v-92.7h19.3l-1.1-34.1h22v-9.8h33.4v9.8h5.8l-2.8,86.6
						c0.2,0.3,0.4,0.5,0.6,0.8c0,0,0.1,0.2,0.2,0.3c0.4,0.7,0.9,1.3,1.3,2.1c0.1,0.2,0.2,0.4,0.3,0.6c0.3,0.5,0.6,1.1,0.9,1.6
						c0.1,0.3,0.3,0.5,0.4,0.8c0.3,0.5,0.6,1.1,0.8,1.6c0,0,0,0,0,0.1v-27.1l41.9-25.5v46.2h41.9v-36.1h13.9V454.1l71.4,72.4V600
						l36.4,26.5v-145h-12.3L914.1,481.6z"/>
					<polygon class="st6" points="22.8,447.3 -13.2,473.5 -13.2,518.8 22.8,463.9 					"/>
					<path class="st7" d="M-13.2,842.1L-13.2,842.1c1.1-19.3,17-30.7,36.6-25.9c5.6,1.4,10.9,3.9,15.6,7.4c4.1-5.7,9.6-10,16.1-12.6
						c-3.3-5.1-5.3-11.4-5.6-18.8l0,0c0-0.5,0-1,0-1.6c0-26.7,21.6-154.8,48.3-154.8s0.9,0,1.4,0.1c0.1,0,0.3,0,0.4,0
						c0.3,0,0.6,0.2,1,0.3c0.2,0,0.3,0.1,0.5,0.2c0.3,0.1,0.6,0.3,0.9,0.4c0.2,0,0.3,0.2,0.5,0.2c0.3,0.2,0.7,0.4,1,0.6
						c0.1,0,0.2,0.1,0.4,0.2c0.5,0.3,0.9,0.7,1.4,1.1c0,0,0.2,0.2,0.3,0.3c0.4,0.3,0.7,0.7,1.1,1c0.1,0.2,0.3,0.3,0.4,0.5
						c0.3,0.3,0.6,0.7,0.9,1c0.2,0.2,0.3,0.4,0.5,0.6c0.3,0.4,0.6,0.8,0.9,1.1c0.1,0.2,0.3,0.4,0.4,0.6c0.4,0.5,0.8,1.1,1.1,1.6
						c0,0,0.1,0.2,0.2,0.2c0.4,0.7,0.9,1.3,1.3,2.1c0.1,0.2,0.2,0.4,0.3,0.6c0.3,0.5,0.6,1.1,0.9,1.6c0.1,0.3,0.3,0.5,0.4,0.8
						c0.3,0.5,0.6,1.1,0.9,1.6c0.1,0.3,0.3,0.5,0.4,0.8c0.3,0.6,0.6,1.2,0.9,1.8c0.1,0.2,0.2,0.5,0.3,0.7c0.4,0.9,0.8,1.8,1.2,2.7
						c0,0,0,0,0,0.1c0.4,0.9,0.8,1.8,1.1,2.7c0.1,0.3,0.2,0.6,0.3,0.9c0.3,0.7,0.6,1.4,0.8,2.1c0,0.2,0.1,0.3,0.2,0.5l0,0
						c6.1,15.6,11.4,35.5,15.6,55.1c6.8-24.3,15.5-44.4,25-44.4s0.8,0,1.1,0.1c0.1,0,0.2,0,0.4,0c0.3,0,0.5,0.1,0.8,0.2
						c0.1,0,0.3,0,0.4,0.1c0.2,0,0.5,0.2,0.7,0.3c0.1,0,0.3,0.1,0.4,0.2c0.3,0.2,0.5,0.3,0.8,0.5c0,0,0.2,0.1,0.3,0.2
						c0.4,0.3,0.7,0.5,1.1,0.9c0,0,0.1,0.1,0.2,0.2c0.3,0.3,0.6,0.5,0.9,0.8c0.1,0.1,0.2,0.3,0.4,0.4c0.2,0.3,0.5,0.5,0.7,0.8
						c0.1,0.1,0.3,0.3,0.4,0.5c0.2,0.3,0.5,0.6,0.7,0.9c0.1,0.2,0.2,0.3,0.3,0.5c0.3,0.4,0.6,0.8,0.9,1.3c0,0,0,0.1,0.1,0.2
						c0.3,0.5,0.7,1.1,1,1.7c0,0.2,0.2,0.3,0.3,0.5c0.3,0.4,0.5,0.9,0.8,1.3c0.1,0.2,0.2,0.4,0.3,0.6c0.2,0.4,0.5,0.9,0.7,1.3
						c0.1,0.2,0.2,0.4,0.3,0.7c0.2,0.5,0.5,1,0.7,1.5c0,0.2,0.2,0.4,0.3,0.6c0.3,0.7,0.7,1.4,1,2.2l0,0c0.3,0.7,0.6,1.4,0.9,2.2
						c0,0.2,0.2,0.5,0.3,0.7c0.2,0.6,0.5,1.1,0.7,1.7c0,0.1,0,0.2,0.1,0.4l0,0c5.8,15,10.8,34.9,14.4,53.4
						c12-22.3,37.1-34.4,66.3-29.2c23.1,4.1,43.7,18.3,57.3,37.1c2.3-0.5,4.6-0.9,7-1c6.7-37.2,19.4-83.9,33.9-83.9s0.8,0,1.1,0.1
						c0.1,0,0.2,0,0.4,0c0.3,0,0.5,0.1,0.8,0.2c0.1,0,0.3,0,0.4,0.1c0.2,0,0.5,0.2,0.7,0.3c0.1,0,0.3,0.1,0.4,0.2
						c0.3,0.2,0.5,0.3,0.8,0.5c0,0,0.2,0.1,0.3,0.2c0.4,0.3,0.7,0.5,1.1,0.9c0,0,0.1,0.1,0.2,0.2c0.3,0.3,0.6,0.5,0.9,0.8
						c0.1,0.1,0.2,0.3,0.4,0.4c0.2,0.3,0.5,0.5,0.7,0.8c0.1,0.1,0.3,0.3,0.4,0.5c0.2,0.3,0.5,0.6,0.7,0.9c0.1,0.2,0.2,0.3,0.3,0.5
						c0.3,0.4,0.6,0.8,0.9,1.3c0,0,0,0.1,0.1,0.2c0.3,0.5,0.7,1.1,1,1.7c0,0.2,0.2,0.3,0.3,0.5c0.3,0.4,0.5,0.9,0.8,1.3
						c0.1,0.2,0.2,0.4,0.3,0.6c0.2,0.4,0.5,0.9,0.7,1.3c0.1,0.2,0.2,0.4,0.3,0.7c0.2,0.5,0.5,1,0.7,1.5c0,0.2,0.2,0.4,0.3,0.6
						c0.3,0.7,0.7,1.4,1,2.2l0,0c0.3,0.7,0.6,1.4,0.9,2.2c0,0.2,0.2,0.5,0.3,0.7c0.2,0.6,0.5,1.1,0.7,1.7c0,0.1,0,0.2,0.1,0.4l0,0
						c8.4,21.4,14.9,53.2,18.3,76.2c1.4,2,2.4,4.2,2.9,6.5c4.7-0.7,9.7-0.7,14.9,0c0.4,0,0.8,0.1,1.1,0.2V736
						c-3.1-0.8-5.5-3.7-5.5-7.1s0.5-3.1,1.4-4.3l-7.1-1.9l-5.2-30.9l18.3-18l0,0c0-0.1,0,0,0,0l0,0l0,0l18.3,18l-5.2,30.9l-7.2,1.9
						c0.9,1.2,1.4,2.7,1.4,4.3c0,3.4-2.3,6.3-5.5,7.1v46.5c9,2,17.4,6.1,24.6,11.7h20.8v4.3h-2.6v1.8c1.9,0,3.6,0.9,4.8,2.1
						c9.3-3.9,20-5.5,31.3-4.2c13.8,1.6,26.7,7.3,37.2,15.7c5.6-11.7,16.2-20.5,29.1-23.8c3.3-33.4,19.3-114.8,38.4-114.8
						c19.1,0,0.8,0,1.1,0.1c0.1,0,0.2,0,0.4,0c0.3,0,0.5,0.1,0.8,0.2c0.1,0,0.3,0,0.4,0.1c0.2,0,0.5,0.2,0.7,0.3
						c0.1,0,0.3,0.1,0.4,0.2c0.3,0.2,0.5,0.3,0.8,0.5c0,0,0.2,0.1,0.3,0.2c0.4,0.3,0.7,0.5,1.1,0.9c0,0,0.1,0.1,0.2,0.2
						c0.3,0.3,0.6,0.5,0.9,0.8c0.1,0.1,0.2,0.3,0.4,0.4c0.2,0.3,0.5,0.5,0.7,0.8c0.1,0.1,0.3,0.3,0.4,0.5c0.2,0.3,0.5,0.6,0.7,0.9
						c0.1,0.2,0.2,0.3,0.3,0.5c0.3,0.4,0.6,0.8,0.9,1.3c0,0,0,0.1,0.1,0.2c0.3,0.5,0.7,1.1,1,1.7c0,0.2,0.2,0.3,0.3,0.5
						c0.3,0.4,0.5,0.9,0.8,1.3c0.1,0.2,0.2,0.4,0.3,0.6c0.2,0.4,0.5,0.9,0.7,1.3c0.1,0.2,0.2,0.4,0.3,0.7c0.2,0.5,0.5,1,0.7,1.5
						c0,0.2,0.2,0.4,0.3,0.6c0.3,0.7,0.7,1.4,1,2.2l0,0c0.3,0.7,0.6,1.4,0.9,2.2c0,0.2,0.2,0.5,0.3,0.7c0.2,0.6,0.4,1.1,0.7,1.7
						c0,0.1,0.1,0.2,0.1,0.4l0,0c12.4,31.8,20.9,86.4,20.9,101.4s-6.1,21.3-15.6,26.2c9.1,1.2,17.4,5,24.2,10.7
						c2.4-9.6,10.2-16.6,20-18.4c-7.8-6.1-12.6-14.9-13-26.9l0,0c0-0.5,0-1,0-1.6c0-26.7,21.6-154.8,48.3-154.8s0.9,0,1.4,0.1
						c0.1,0,0.3,0,0.4,0c0.3,0,0.6,0.2,1,0.3c0.2,0,0.3,0.1,0.5,0.2c0.3,0.1,0.6,0.3,0.9,0.4c0.2,0,0.3,0.2,0.5,0.2
						c0.3,0.2,0.7,0.4,1,0.6c0.1,0,0.2,0.1,0.4,0.2c0.5,0.3,0.9,0.7,1.4,1.1c0,0,0.2,0.2,0.3,0.3c0.4,0.3,0.7,0.7,1.1,1
						c0.2,0.2,0.3,0.3,0.4,0.5c0.3,0.3,0.6,0.7,0.9,1c0.2,0.2,0.3,0.4,0.5,0.6c0.3,0.4,0.6,0.8,0.9,1.1c0.1,0.2,0.3,0.4,0.4,0.6
						c0.2,0.3,0.4,0.5,0.6,0.8l2.8-86.6h-5.8V548h-33.4v9.8h-22l1.1,34.1h-19.3v92.7h-12.4V516l-37.9-50.6L550.7,516v83.6h-6.2
						l-25.2-11.2v11.2h-11.5v46.2h-21.9V495.7h-37v39.6l-15.8,13.9v24.4H396v41.3h-10.1v16.9h-38.3v-27.2L333,588.4v-14.7h-7v-4.6
						h-45.5v4.6h-7v39.2H265v-71.7h-8.6v-5.6h-56.2v5.6h-8.6v118.6h-7.2v-86.1h-7v-4.6h-45.5v4.6h-7V615h-5v-40.8H84.8V464.9
						c-0.1,0-0.1-21.2-0.1-21.2H53.3v-23.2H21.9v42.9l-36,54.8v325.5l0,0v-2.2L-13.2,842.1z"/>
					<polygon class="st7" points="880.8,695.9 870,693.6 873.8,719.1 880.8,721 					"/>
					<polygon class="st7" points="898.8,693.6 888,695.9 888,721 894.9,719.1 					"/>
					<path class="st7" d="M890,526.5l-71.4-72.4v156.1h-13.9v36.1h-41.9v-46.2l-41.9,25.5v27.1c0.1,0.2,0.2,0.5,0.4,0.7
						c0.3,0.6,0.6,1.2,0.9,1.9c0.1,0.2,0.2,0.5,0.3,0.7c0.4,0.9,0.8,1.8,1.2,2.7l0,0c0.4,0.9,0.8,1.8,1.2,2.7
						c0.1,0.3,0.2,0.6,0.3,0.9c0.3,0.7,0.6,1.4,0.8,2.1c0,0.2,0.1,0.3,0.2,0.5l0,0C741.6,704.3,752,772,752,790.5
						s-3.6,19.4-9.8,25.6c1.9,2.9,3.5,6,4.5,9.4c5.2-1.4,10.7-2.1,16.5-1.9c9,0.4,17.5,3,25,7.3c6.3-33.1,35.4-58.2,70.4-58.2
						s16.3,1.4,23.8,4.1v-40.5c-3.1-0.8-5.5-3.7-5.5-7.1s0.5-3.1,1.4-4.3l-7.1-1.9l-5.2-30.9l18.3-18l0,0c0-0.1,0,0,0,0l0,0l0,0
						l18.3,18l-5.2,30.9l-7.2,1.9c0.9,1.2,1.4,2.7,1.4,4.3c0,3.4-2.3,6.3-5.5,7.1v42c6.7,2.8,13,6.6,18.5,11.3
						c3.2-9.2,11.6-16,21.7-16.7V626.6l-36.4-26.5v-73.5L890,526.5z"/>
					<polygon class="st7" points="429.9,693.6 419.1,695.9 419.1,721 426,719.1 					"/>
					<polygon class="st7" points="411.9,695.9 401.1,693.6 404.9,719.1 411.9,721 					"/>
					<polygon class="st6" points="1853.8,481.6 1855.2,420.4 1812.2,420.4 1812.2,332 1786.8,332 1786.8,350.8 1761.3,350.8 
						1761.3,368 1735.8,368 1735.8,456.8 1716.2,456.8 1716.2,415.5 1709.2,415.5 1709.2,410.9 1663.7,410.9 1663.7,415.5 
						1656.7,415.5 1656.7,501.6 1642.5,501.6 1642.5,390.9 1635.5,390.9 1635.5,386.4 1590.1,386.4 1590.1,390.9 1583.1,390.9 
						1583.1,454.6 1567.6,454.6 1567.6,415.5 1560.6,415.5 1560.6,410.9 1515.1,410.9 1515.1,415.5 1508.2,415.5 1508.2,430.2 
						1493.6,446.4 1493.6,473.6 1474.1,473.6 1474.1,456.8 1464,456.8 1464,415.5 1426.8,415.5 1426.8,391.1 1411,377.1 1411,337.5 
						1394.4,337.5 1394.4,299 1390.6,299 1390.6,337.5 1374,337.5 1374,487.6 1352.1,487.6 1352.1,441.4 1340.6,441.4 1340.6,430.2 
						1315.4,441.4 1309.3,441.4 1309.3,413.6 1279.1,373.4 1249,413.6 1249,508 1234.9,508 1234.9,526.4 1214,526.4 1214,451.5 
						1196.7,451.5 1197.4,420.4 1177.4,420.4 1177.4,411.5 1157.1,411.5 1154,357.7 1150.9,411.5 1147,411.5 1147,420.4 
						1141.7,420.4 1143.7,503.6 1139.9,503.6 1139.9,466.9 1098,441.4 1098,487.6 1056.1,487.6 1056.1,451.5 1030.2,451.5 
						1030.2,430.2 1011,444.2 1025.3,444.2 1025.3,465.4 1025.4,574.8 1060.5,574.8 1060.5,615.5 1065.5,615.5 1065.5,574.3 
						1072.4,574.3 1072.4,569.7 1117.9,569.7 1117.9,574.3 1124.9,574.3 1124.9,660.3 1132.1,660.3 1132.1,541.7 1140.8,541.7 
						1140.8,536.1 1196.9,536.1 1196.9,541.7 1205.5,541.7 1205.5,613.4 1214,613.4 1214,574.3 1221,574.3 1221,569.7 1266.5,569.7 
						1266.5,574.3 1273.5,574.3 1273.5,589 1288.1,605.2 1288.1,632.4 1326.3,632.4 1326.3,615.5 1336.4,615.5 1336.4,574.3 
						1373.6,574.3 1373.6,549.8 1389.4,535.9 1389.4,496.3 1426.4,496.3 1426.4,646.4 1448.3,646.4 1448.3,600.2 1459.8,600.2 
						1459.8,589 1485,600.2 1491.1,600.2 1491.1,516.5 1529,466 1566.9,516.5 1566.9,685.1 1579.2,685.1 1579.2,592.5 1598.6,592.5 
						1597.5,558.3 1619.5,558.3 1619.5,548.6 1641.7,548.6 1648.6,548.6 1652.9,548.6 1652.9,558.3 1658.7,558.3 1655.3,662.4 
						1660.5,662.4 1660.5,625.7 1702.4,600.2 1702.4,646.4 1744.3,646.4 1744.3,610.3 1758.2,610.3 1758.2,454.2 1829.6,526.5 
						1829.6,600 1874,632.3 1874,481.6 1874,481.6 					"/>
					<polygon class="st6" points="926.4,481.6 926.4,518.8 962.4,463.9 962.4,447.3 926.4,473.5 					"/>
					<polygon class="st7" points="1825.7,721 1832.7,719.1 1836.6,693.6 1825.7,695.9 					"/>
					<polygon class="st7" points="1818.6,695.9 1807.8,693.6 1811.6,719.1 1818.6,721 					"/>
					<path class="st7" d="M1829.6,600v-73.5l-71.4-72.4v156.1h-13.9v36.1h-41.9v-46.2l-41.9,25.5v36.7h-5.2l3.4-104.1h-5.8v-9.8
						h-33.4v9.8h-22l1.1,34.1h-19.3V685h-12.4V516.4l-37.9-50.6l-37.9,50.6V600h-6.2l-25.2-11.2V600h-11.5v46.2h-21.9V496.1h-37
						v39.6l-15.8,13.9V574h-37.1v41.3h-10.1v16.9H1288V605l-14.6-16.2v-14.7h-7v-4.6h-45.5v4.6h-7v39.2h-8.5v-71.7h-8.6V536h-56.2
						v5.6h-8.6v118.6h-7.2v-86.1h-7v-4.6h-45.5v4.6h-7v41.3h-5v-40.8h-35.1V465.3c-0.1,0-0.1-21.2-0.1-21.2h-31.4v-23.2h-31.4v42.9
						l-36,54.8v254.1c0.6,0,1.2,0,1.8,0c4.6,0,8.8,1.2,12.5,3.4c13-12.8,30.9-20.7,50.6-20.7s23.8,3.1,33.9,8.4
						c5.9-5.2,13.7-8.4,22.2-8.4c16.8,0,30.8,12.4,33.2,28.6c6-2.1,12.1-3.7,18.5-4.9c5.2-29.6,15.4-68.2,27.1-68.2s0.6,0,0.9,0
						c0,0,0.2,0,0.3,0c0.2,0,0.4,0,0.6,0.2c0.1,0,0.2,0,0.3,0.1c0.2,0,0.4,0.2,0.6,0.3c0.1,0,0.2,0.1,0.3,0.2
						c0.2,0.1,0.4,0.3,0.6,0.4c0,0,0.2,0,0.2,0.1c0.3,0.2,0.6,0.4,0.9,0.7c0,0,0.1,0.1,0.2,0.2c0.2,0.2,0.5,0.4,0.7,0.6
						c0,0,0.2,0.2,0.3,0.3c0.2,0.2,0.4,0.4,0.6,0.6c0,0,0.1,0.1,0.2,0.2c6.8-23.6,15.4-42.6,24.7-42.6s0.8,0,1.2,0.1
						c0.1,0,0.2,0,0.4,0c0.3,0,0.5,0.1,0.8,0.2c0.1,0,0.3,0,0.4,0.2c0.3,0,0.5,0.2,0.8,0.3c0.1,0,0.3,0.1,0.4,0.2
						c0.3,0.2,0.6,0.3,0.8,0.5c0,0,0.2,0.1,0.3,0.2c0.4,0.3,0.7,0.6,1.1,0.9c0,0,0.1,0.1,0.2,0.2c0.3,0.3,0.6,0.5,0.9,0.8
						c0.1,0.1,0.2,0.3,0.4,0.4c0.2,0.3,0.5,0.5,0.7,0.8c0.1,0.2,0.3,0.3,0.4,0.5c0.2,0.3,0.5,0.6,0.7,0.9c0.1,0.2,0.2,0.3,0.3,0.5
						c0.3,0.4,0.6,0.9,0.9,1.3c0,0,0,0.1,0.1,0.2c0.4,0.5,0.7,1.1,1.1,1.7c0,0.2,0.2,0.3,0.3,0.5c0.3,0.4,0.5,0.9,0.8,1.3
						c0.1,0.2,0.2,0.4,0.3,0.6c0.2,0.4,0.5,0.9,0.7,1.3c0.1,0.2,0.2,0.4,0.3,0.7c0.2,0.5,0.5,1,0.7,1.5c0,0.2,0.2,0.4,0.3,0.6
						c0.3,0.7,0.7,1.5,1,2.2l0,0c0.3,0.7,0.6,1.5,0.9,2.2c0,0.2,0.2,0.5,0.3,0.7c0.2,0.6,0.5,1.1,0.7,1.7c0,0.1,0.1,0.2,0.1,0.4l0,0
						c10.2,26.2,17.8,67.5,20.3,90.5c10.1-9.6,23.3-16,37.9-17.2c19.8-1.6,37.3,6.9,47.5,21.2c6.8-6.2,15.5-10.5,25-11.4
						c14.5-1.4,27.1,5,33.9,15.9c2.2-0.2,4.3-0.2,6.5-0.2v-0.5h4.2v-58.3c-3.1-0.8-5.5-3.7-5.5-7.1s0.5-3.1,1.4-4.3l-7.1-1.9
						l-5.2-30.9l18.3-18l0,0c0-0.1,0,0,0,0l0,0l0,0l18.3,18l-5.2,30.9l-7.2,1.9c0.9,1.2,1.4,2.7,1.4,4.3c0,3.4-2.3,6.3-5.5,7.1v58.3
						h3.5v1.7c0.4,0,0.9,0.2,1.3,0.3c-0.2-1.4-0.3-2.9-0.4-4.4l0,0c0-0.5,0-1,0-1.6c0-26.7,21.6-154.8,48.3-154.8s0.9,0,1.4,0.1
						c0.1,0,0.3,0,0.4,0c0.3,0,0.6,0.2,1,0.3c0.2,0,0.3,0.1,0.5,0.2c0.3,0.1,0.6,0.3,0.9,0.4c0.2,0,0.3,0.2,0.5,0.2
						c0.3,0.2,0.7,0.4,1,0.6c0.1,0,0.2,0.1,0.4,0.2c0.5,0.3,0.9,0.7,1.4,1.1c0,0,0.2,0.2,0.3,0.3c0.4,0.3,0.7,0.7,1.1,1
						c0.2,0.2,0.3,0.3,0.5,0.5c0.3,0.3,0.6,0.7,0.9,1c0.2,0.2,0.3,0.4,0.5,0.6c0.3,0.4,0.6,0.8,0.9,1.1c0.1,0.2,0.3,0.4,0.4,0.6
						c0.4,0.5,0.7,1,1.1,1.6c0,0,0.1,0.2,0.2,0.3c0.4,0.7,0.9,1.3,1.3,2.1c0.1,0.2,0.2,0.4,0.3,0.6c0.3,0.5,0.6,1.1,0.9,1.6
						c0.1,0.3,0.3,0.5,0.4,0.8c0.3,0.5,0.6,1.1,0.8,1.6c0.1,0.3,0.3,0.6,0.4,0.8c0.3,0.6,0.6,1.2,0.9,1.9c0.1,0.2,0.2,0.5,0.3,0.7
						c0.4,0.9,0.8,1.8,1.2,2.7l0,0c0.4,0.9,0.8,1.8,1.2,2.7c0.1,0.3,0.2,0.6,0.3,0.9c0.3,0.7,0.6,1.4,0.8,2.1c0,0.2,0.1,0.3,0.2,0.5
						l0,0c14,36,24,95.5,25.6,119.7c1.3-1.1,2.5-2.1,3.8-3.1c4.9-37,19.7-105.9,37.3-105.9s0.8,0,1.1,0.1c0.1,0,0.2,0,0.4,0
						c0.3,0,0.5,0.1,0.8,0.2c0.1,0,0.3,0,0.4,0.1c0.2,0,0.5,0.2,0.7,0.3c0.1,0,0.3,0.1,0.4,0.2c0.3,0.2,0.5,0.3,0.8,0.5
						c0,0,0.2,0.1,0.3,0.2c0.4,0.3,0.7,0.5,1.1,0.9c0,0,0.1,0.1,0.2,0.2c0.3,0.3,0.6,0.5,0.9,0.8c0.1,0.1,0.2,0.3,0.4,0.4
						c0.2,0.3,0.5,0.5,0.7,0.8c0.1,0.1,0.3,0.3,0.4,0.5c0.2,0.3,0.5,0.6,0.7,0.9c0.1,0.2,0.2,0.3,0.3,0.5c0.3,0.4,0.6,0.8,0.9,1.3
						c0,0,0,0.1,0.1,0.2c0.3,0.5,0.7,1.1,1,1.7c0,0.2,0.2,0.3,0.3,0.5c0.3,0.4,0.5,0.9,0.8,1.3c0.1,0.2,0.2,0.4,0.3,0.6
						c0.2,0.4,0.5,0.9,0.7,1.3c0.1,0.2,0.2,0.4,0.3,0.7c0.2,0.5,0.5,1,0.7,1.5c0,0.2,0.2,0.4,0.3,0.6c0.3,0.7,0.7,1.4,1,2.2
						c0,0,0,0,0,0.1c0.3,0.7,0.6,1.4,0.9,2.1c0,0.2,0.2,0.5,0.3,0.7c0.2,0.6,0.4,1.1,0.7,1.7c0,0.1,0,0.2,0.1,0.4l0,0
						c7.3,18.6,13.2,45,16.8,66.7c8.4,2.4,16.1,6.3,22.6,11.6c5.8-8.1,14.7-14.2,24.6-15.9c6.3-1.1,12.2-0.3,17.1,2
						c17.5-27.8,46.3-49.1,78.7-55.6c12.8-2.6,24.9-2.6,36.1-0.4c7.8-29.4,18.2-54.6,29.5-54.6s0.9,0,1.3,0.1c0.1,0,0.3,0,0.4,0
						c0.3,0,0.6,0.1,0.9,0.2c0.2,0,0.3,0.1,0.5,0.2c0.3,0.1,0.6,0.2,0.8,0.4c0.1,0,0.3,0.1,0.4,0.2c0.3,0.2,0.6,0.4,0.9,0.6
						c0.1,0,0.2,0.1,0.3,0.2c0.4,0.3,0.8,0.6,1.2,1c0,0,0.2,0.2,0.3,0.2c0.3,0.3,0.7,0.6,1,0.9c0.1,0.1,0.3,0.3,0.4,0.4
						c0.3,0.3,0.5,0.6,0.8,0.9c0.1,0.2,0.3,0.3,0.4,0.5c0.3,0.3,0.6,0.7,0.8,1.1c0.1,0.2,0.3,0.3,0.4,0.5c0.3,0.5,0.7,1,1,1.5
						c0,0,0.1,0.1,0.2,0.2c0.4,0.6,0.8,1.2,1.2,1.9c0.1,0.2,0.2,0.4,0.3,0.5c0.3,0.5,0.6,1,0.9,1.5c0.1,0.2,0.3,0.5,0.4,0.7
						c0.3,0.5,0.5,1,0.8,1.5c0.1,0.3,0.3,0.5,0.4,0.8c0.3,0.6,0.6,1.1,0.8,1.7c0.1,0.2,0.2,0.4,0.3,0.6c0.4,0.8,0.8,1.6,1.1,2.5
						c0,0,0,0,0,0.1c0.4,0.8,0.7,1.6,1.1,2.5c0.1,0.3,0.2,0.5,0.3,0.8c0.3,0.6,0.5,1.3,0.8,1.9c0,0.1,0.1,0.3,0.2,0.4l0,0
						c6.3,16.1,11.6,37.3,15.7,57.4c17.8-2.9,33.4,2.7,43.2,14.2v-15c-3.1-0.8-5.5-3.7-5.5-7.1s0.5-3.1,1.4-4.3l-7.1-1.9l-5.2-30.9
						l18.3-18l0,0c0-0.1,0,0,0,0l0,0l0,0l18.3,18l-5.2,30.9l-7.2,1.9c0.9,1.2,1.4,2.7,1.4,4.3c0,3.4-2.3,6.3-5.5,7.1v20.2
						c4.5,7.2,7,16.1,7,26.2c0,0.6,0,1.3,0,1.9c3.4-2,7-3.6,10.8-4.5c17.8-4.4,32.2,6.5,32.2,24.6v37.4l0,0V631.4l-44.3-32.3
						L1829.6,600z"/>
					<polygon class="st7" points="1349.7,695.9 1338.9,693.6 1342.7,719.1 1349.7,721 					"/>
					<polygon class="st7" points="1367.7,693.6 1356.9,695.9 1356.9,721 1363.8,719.1 					"/>
					<path class="st8" d="M409.3,836.7v-42h4.2v-12.5c-0.4,0-0.8-0.1-1.1-0.2c-5.2-0.7-10.1-0.7-14.9,0c-0.5-2.3-1.5-4.5-2.9-6.5
						c1.6,11.2,2.5,20.3,2.5,25.2c0,20-15.1,29.7-34.5,31v10.5h43.7v-5.5H409.3L409.3,836.7z"/>
					<path class="st8" d="M561.9,801.9L561.9,801.9c0-0.4,0-0.8,0-1.3c0-2.4,0.2-5.9,0.6-10.1c-12.8,3.3-23.4,12.1-29.1,23.8
						c-10.6-8.4-23.4-14.1-37.2-15.7c-11.3-1.3-22,0.3-31.3,4.2c1.2,1.2,2,2.9,2,4.8c0,3.8-3,6.8-6.8,6.9v23.6h4.2v3.9h-28v-3.9h4.2
						v-23.6c-3.7-0.1-6.8-3.2-6.8-6.9s3-6.8,6.8-6.9v-1.8h-2.6v-4.3h3.9c-7.2-5.6-15.6-9.7-24.6-11.7v11.7h3.5v42h3.6v5.5h171.8
						v-10.5c-19-1.3-33.8-10.6-34.4-29.7H561.9z"/>
					<path class="st8" d="M319.2,801.9L319.2,801.9c0-0.4,0-0.8,0-1.3c0-7.1,1.9-22.9,5.2-41c-2.4,0.1-4.8,0.5-7,1
						c-13.6-18.9-34.2-33-57.3-37.1c-29.2-5.2-54.4,6.9-66.3,29.2c4.1,20.9,6.5,40,6.5,48c0,20-15.1,29.7-34.5,31v10.5h188v-10.5
						c-19-1.3-33.8-10.6-34.4-29.7L319.2,801.9z"/>
					<path class="st8" d="M878.2,836.7v-42h4.2v-17.8c-7.4-2.6-15.4-4.1-23.8-4.1c-35,0-64.1,25-70.4,58.2c-7.4-4.3-15.9-6.9-25-7.3
						c-5.8-0.3-11.3,0.4-16.5,1.9c-1-3.4-2.5-6.5-4.5-9.4c-7.8,7.8-19.5,12-32.9,12.9v13.1h165.9v-5.5h2.9L878.2,836.7z"/>
					<path class="st8" d="M904.7,789.6c-5.5-4.6-11.7-8.4-18.5-11.3v16.3h3.5v42h3.6v5.5h229.2v-8.2c-14.9-1-26.6-8.4-27.1-23.4l0,0
						c0-0.3,0-0.7,0-1c0-5.3,1.3-16.9,3.7-30.3c-6.3,1.2-12.5,2.8-18.5,4.9c-2.4-16.2-16.3-28.6-33.2-28.6s-16.3,3.2-22.2,8.4
						c-10.1-5.4-21.6-8.4-33.9-8.4c-19.7,0-37.6,7.9-50.6,20.7c-3.7-2.1-7.9-3.4-12.5-3.4s-1.2,0-1.8,0
						c-10.1,0.7-18.5,7.5-21.7,16.7V789.6z"/>
					<path class="st8" d="M1456.3,790.6c0,24.8-18.7,36.8-42.7,38.4v13.1h79.1v-10.5c-19-1.3-33.8-10.6-34.4-29.7l0,0
						c0-0.4,0-0.8,0-1.3c0-4,0.6-10.7,1.7-19c-1.3,1-2.6,2-3.8,3.1C1456.4,787,1456.4,789,1456.3,790.6L1456.3,790.6z"/>
					<path class="st8" d="M1824,794.6h3.5v42h3.6v5.5h42.8v-37.4c0-18.1-14.4-29-32.2-24.6c-3.8,0.9-7.4,2.5-10.8,4.5
						c0-0.6,0-1.3,0-1.9c0-10.1-2.5-19-7-26.2L1824,794.6L1824,794.6z"/>
					<path class="st8" d="M1362.3,836.7v5.5h40v-13.1c-22-1.5-39.5-11.7-42.3-32.5c-0.4,0-0.9-0.2-1.3-0.3v40.3L1362.3,836.7
						L1362.3,836.7z"/>
					<path class="st8" d="M1785.1,794.9c0,22.7-17.1,33.8-39.1,35.2v12h67.1v-5.5h2.9v-42h4.2v-43.3c-9.8-11.5-25.4-17.1-43.2-14.2
						c5,25,8,48.3,8,57.8H1785.1z"/>
					<path class="st8" d="M1197.3,799.8c0,20.4-15.4,30.3-35.1,31.6v10.7h182v-5.5h2.9v-41.5c-2.1,0-4.3,0-6.5,0.2
						c-6.8-10.8-19.4-17.3-33.9-15.9c-9.5,0.9-18.2,5.2-25,11.4c-10.2-14.3-27.7-22.8-47.5-21.2c-14.5,1.2-27.8,7.6-37.9,17.2
						C1196.9,792.3,1197.2,796.8,1197.3,799.8L1197.3,799.8z M1247.5,807.7c0,3.8-3,6.8-6.8,6.9v23.6h4.2v3.9h-28v-3.9h4.2v-23.6
						c-3.7-0.1-6.8-3.2-6.8-6.9s3-6.8,6.8-6.9V799h-2.6v-4.3h24.7v4.3h-2.6v1.8c3.7,0.1,6.8,3.2,6.8,6.9H1247.5z"/>
					<path class="st8" d="M1536.2,800.6c0,20-15.1,29.7-34.5,31v10.5h233.8v-12c-21.6-1.4-38.4-12-39.1-33.8l0,0c0-0.5,0-1,0-1.5
						c0-13.2,5.7-53.1,14.8-87.3c-11.1-2.2-23.3-2.2-36.1,0.4c-32.4,6.5-61.1,27.8-78.7,55.6c-4.9-2.3-10.8-3.1-17.1-2
						c-9.9,1.7-18.8,7.8-24.6,15.9c-6.5-5.2-14.2-9.2-22.6-11.6c2.6,15.4,4.1,28.5,4.1,34.7V800.6z"/>
					<path class="st9" d="M194.4,783.8c0,21.6-17.5,31.2-39,31.2s-11.1-0.7-15.9-2.1c-2.6,3.4-5.7,6.2-9.4,8.5
						c6.3,6.2,15.7,9.5,26.5,10.3v-5.2h9.1v5.2c19.4-1.3,34.5-11,34.5-31s-2.4-27-6.5-48c-3.6-18.5-8.6-38.5-14.4-53.4
						C188.5,730.8,194.5,771.3,194.4,783.8L194.4,783.8z"/>
					<path class="st9" d="M175.1,689.9c0.2,0.5,0.5,1,0.7,1.5C175.6,690.9,175.3,690.4,175.1,689.9z"/>
					<path class="st9" d="M176.1,692c0.3,0.7,0.7,1.4,1,2.2C176.8,693.5,176.4,692.7,176.1,692z"/>
					<path class="st9" d="M171.7,683.9c0.3,0.5,0.7,1.1,1,1.7C172.4,685,172,684.5,171.7,683.9z"/>
					<path class="st9" d="M174.1,688c0.2,0.4,0.5,0.9,0.7,1.3C174.6,688.9,174.3,688.4,174.1,688z"/>
					<path class="st9" d="M173,686c0.3,0.4,0.5,0.9,0.8,1.3C173.5,686.8,173.3,686.4,173,686z"/>
					<path class="st9" d="M177.2,694.3c0.3,0.7,0.6,1.4,0.9,2.2C177.8,695.8,177.5,695,177.2,694.3z"/>
					<path class="st9" d="M163.7,676.2c0.2,0,0.5,0.2,0.7,0.3C164.2,676.4,163.9,676.3,163.7,676.2z"/>
					<path class="st9" d="M170.7,682.4c0.3,0.4,0.6,0.8,0.9,1.3C171.3,683.3,171,682.8,170.7,682.4z"/>
					<path class="st9" d="M164.8,676.8c0.3,0.2,0.5,0.3,0.8,0.5C165.3,677.1,165.1,676.9,164.8,676.8z"/>
					<path class="st9" d="M161,675.7c0.4,0,0.8,0,1.1,0.1C161.7,675.8,161.3,675.7,161,675.7z"/>
					<path class="st9" d="M162.5,675.9c0.3,0,0.5,0.1,0.8,0.2C163,676.1,162.8,675.9,162.5,675.9z"/>
					<path class="st9" d="M178.4,697.1c0.2,0.6,0.5,1.1,0.7,1.7C178.9,698.2,178.6,697.7,178.4,697.1z"/>
					<path class="st9" d="M169.6,681c0.2,0.3,0.5,0.6,0.7,0.9C170.1,681.6,169.8,681.3,169.6,681z"/>
					<path class="st9" d="M165.9,677.5c0.4,0.3,0.7,0.5,1.1,0.9C166.6,678.1,166.3,677.8,165.9,677.5z"/>
					<path class="st9" d="M168.5,679.7c0.2,0.3,0.5,0.5,0.7,0.8C169,680.2,168.7,680,168.5,679.7z"/>
					<path class="st9" d="M167.3,678.5c0.3,0.3,0.6,0.5,0.9,0.8C167.9,679,167.6,678.7,167.3,678.5z"/>
					<path class="st10" d="M146.4,790.6c0,9.1-2.5,16.5-6.9,22.3c4.9,1.4,10.2,2.1,15.9,2.1c21.6,0,39-9.6,39-31.2
						s-6-53.1-15.2-84.6l0,0c0-0.1,0-0.2-0.1-0.4c-0.2-0.6-0.5-1.1-0.7-1.7c0-0.2-0.2-0.5-0.3-0.7c-0.3-0.7-0.6-1.5-0.9-2.2l0,0
						c-0.3-0.7-0.7-1.5-1-2.2c0-0.2-0.2-0.4-0.3-0.6c-0.2-0.5-0.5-1-0.7-1.5c-0.1-0.2-0.2-0.4-0.3-0.7c-0.2-0.4-0.5-0.9-0.7-1.3
						c-0.1-0.2-0.2-0.4-0.3-0.6c-0.3-0.5-0.5-0.9-0.8-1.3c0-0.2-0.2-0.3-0.3-0.5c-0.3-0.6-0.7-1.1-1-1.7c0,0,0-0.1-0.1-0.2
						c-0.3-0.4-0.6-0.9-0.9-1.3c-0.1-0.2-0.2-0.3-0.3-0.5c-0.2-0.3-0.5-0.6-0.7-0.9c-0.1-0.2-0.3-0.3-0.4-0.5
						c-0.2-0.3-0.5-0.5-0.7-0.8c-0.1-0.1-0.2-0.3-0.4-0.4c-0.3-0.3-0.6-0.6-0.9-0.8c0,0-0.1-0.1-0.2-0.2c-0.4-0.3-0.7-0.6-1.1-0.9
						c0,0-0.2-0.1-0.3-0.2c-0.3-0.2-0.5-0.4-0.8-0.5c-0.1,0-0.3-0.1-0.4-0.2c-0.2-0.1-0.5-0.2-0.7-0.3c-0.1,0-0.3-0.1-0.4-0.1
						c-0.3,0-0.5-0.2-0.8-0.2c-0.1,0-0.2,0-0.4,0c-0.4,0-0.8-0.1-1.1-0.1c-9.5,0-18.2,20.1-25,44.4
						C142.6,750.2,146.5,779.4,146.4,790.6L146.4,790.6z"/>
					<path class="st9" d="M363,677.5c0.4,0.3,0.7,0.5,1.1,0.9C363.7,678.1,363.4,677.8,363,677.5z"/>
					<path class="st9" d="M359.6,675.9c0.3,0,0.5,0.1,0.8,0.2C360.1,676.1,359.9,675.9,359.6,675.9z"/>
					<path class="st9" d="M361.9,676.8c0.3,0.2,0.5,0.3,0.8,0.5C362.4,677.1,362.2,676.9,361.9,676.8z"/>
					<path class="st9" d="M358.1,675.7c0.4,0,0.8,0,1.1,0.1C358.8,675.8,358.4,675.7,358.1,675.7z"/>
					<path class="st9" d="M360.8,676.2c0.2,0,0.5,0.2,0.7,0.3C361.3,676.4,361,676.3,360.8,676.2z"/>
					<path class="st9" d="M374.3,694.3c0.3,0.7,0.6,1.4,0.9,2.2C374.9,695.8,374.6,695,374.3,694.3z"/>
					<path class="st9" d="M375.5,697.1c0.2,0.6,0.5,1.1,0.7,1.7C376,698.2,375.7,697.7,375.5,697.1z"/>
					<path class="st9" d="M372.2,689.9c0.2,0.5,0.5,1,0.7,1.5C372.7,690.9,372.4,690.4,372.2,689.9z"/>
					<path class="st9" d="M373.2,692c0.3,0.7,0.7,1.4,1,2.2C373.9,693.5,373.5,692.7,373.2,692z"/>
					<path class="st9" d="M368.8,683.9c0.3,0.5,0.7,1.1,1,1.7C369.5,685,369.1,684.5,368.8,683.9z"/>
					<path class="st9" d="M367.8,682.4c0.3,0.4,0.6,0.8,0.9,1.3C368.4,683.3,368.1,682.8,367.8,682.4z"/>
					<path class="st9" d="M370.1,686c0.3,0.4,0.5,0.9,0.8,1.3C370.7,686.9,370.4,686.4,370.1,686z"/>
					<path class="st9" d="M365.6,679.7c0.2,0.3,0.5,0.5,0.7,0.8C366.1,680.2,365.8,680,365.6,679.7z"/>
					<path class="st9" d="M364.4,678.5c0.3,0.3,0.6,0.5,0.9,0.8C365,679,364.7,678.7,364.4,678.5z"/>
					<path class="st9" d="M371.2,688c0.2,0.4,0.5,0.9,0.7,1.3C371.7,688.9,371.4,688.4,371.2,688z"/>
					<path class="st9" d="M366.7,681c0.2,0.3,0.5,0.6,0.7,0.9C367.2,681.6,366.9,681.3,366.7,681z"/>
					<path class="st9" d="M391.5,783.8c0,21.6-17.5,31.2-39,31.2s-26.5-4.1-33.3-13c0.6,19.1,15.5,28.5,34.4,29.7v-5.2h9.1v5.2
						c19.4-1.3,34.5-11,34.5-31s-0.9-14-2.5-25.2c-3.4-23-10-54.8-18.3-76.2c9.2,31.5,15.2,72,15.2,84.6L391.5,783.8z"/>
					<path class="st10" d="M319.1,800.6c0,0.4,0,0.9,0,1.3l0,0c6.9,8.9,19.2,13,33.3,13c21.6,0,39-9.6,39-31.2s-6-53.1-15.2-84.6
						l0,0c0-0.1,0-0.2-0.1-0.4c-0.2-0.6-0.5-1.1-0.7-1.7c0-0.2-0.2-0.5-0.3-0.7c-0.3-0.7-0.6-1.5-0.9-2.2l0,0
						c-0.3-0.7-0.7-1.5-1-2.2c0-0.2-0.2-0.4-0.3-0.6c-0.2-0.5-0.5-1-0.7-1.5c-0.1-0.2-0.2-0.4-0.3-0.7c-0.2-0.4-0.5-0.9-0.7-1.3
						c-0.1-0.2-0.2-0.4-0.3-0.6c-0.2-0.4-0.5-0.9-0.8-1.3c0-0.2-0.2-0.3-0.3-0.5c-0.3-0.6-0.7-1.1-1-1.7c0,0,0-0.1-0.1-0.2
						c-0.3-0.4-0.6-0.9-0.9-1.3c-0.1-0.2-0.2-0.3-0.3-0.5c-0.2-0.3-0.5-0.6-0.7-0.9c-0.1-0.2-0.3-0.3-0.4-0.5
						c-0.2-0.3-0.5-0.5-0.7-0.8c-0.1-0.1-0.2-0.3-0.4-0.4c-0.3-0.3-0.6-0.6-0.9-0.8c0,0-0.1-0.1-0.2-0.2c-0.4-0.3-0.7-0.6-1.1-0.9
						c0,0-0.2-0.1-0.3-0.2c-0.3-0.2-0.5-0.4-0.8-0.5c-0.1,0-0.3-0.1-0.4-0.2c-0.2-0.1-0.5-0.2-0.7-0.3c-0.1,0-0.3-0.1-0.4-0.1
						c-0.3,0-0.5-0.2-0.8-0.2c-0.1,0-0.2,0-0.4,0c-0.4,0-0.8-0.1-1.1-0.1c-14.5,0-27.1,46.7-33.9,83.9
						C321,777.6,319.1,793.5,319.1,800.6L319.1,800.6z"/>
					<path class="st9" d="M605.8,677.5c0.4,0.3,0.7,0.5,1.1,0.9C606.5,678.1,606.2,677.8,605.8,677.5z"/>
					<path class="st9" d="M609.4,681c0.2,0.3,0.5,0.6,0.7,0.9C609.9,681.6,609.6,681.3,609.4,681z"/>
					<path class="st9" d="M615.9,692c0.3,0.7,0.7,1.4,1,2.2C616.6,693.5,616.2,692.7,615.9,692z"/>
					<path class="st9" d="M604.7,676.8c0.3,0.2,0.5,0.3,0.8,0.5C605.2,677.1,605,676.9,604.7,676.8z"/>
					<path class="st9" d="M607.1,678.5c0.3,0.3,0.6,0.5,0.9,0.8C607.7,679,607.4,678.7,607.1,678.5z"/>
					<path class="st9" d="M600.9,675.7c0.4,0,0.8,0,1.1,0.1C601.6,675.8,601.2,675.7,600.9,675.7z"/>
					<path class="st9" d="M603.5,676.2c0.2,0,0.5,0.2,0.7,0.3C604,676.4,603.7,676.3,603.5,676.2z"/>
					<path class="st9" d="M595.2,815c-14.1,0-26.5-4.1-33.3-13c0.6,19.1,15.5,28.5,34.4,29.7v-5.2h9.1v5.2c7-0.5,13.5-2,18.9-4.8
						c9.5-4.9,15.6-13.5,15.6-26.2s-8.5-69.6-20.9-101.4c9.2,31.5,15.2,72,15.2,84.6C634.2,805.5,616.7,815.1,595.2,815L595.2,815z"
						/>
					<path class="st9" d="M602.3,675.9c0.3,0,0.5,0.1,0.8,0.2C602.8,676.1,602.6,675.9,602.3,675.9z"/>
					<path class="st9" d="M608.3,679.7c0.2,0.3,0.5,0.5,0.7,0.8C608.8,680.2,608.5,680,608.3,679.7z"/>
					<path class="st9" d="M618.2,697.1c0.2,0.6,0.4,1.1,0.7,1.7C618.7,698.2,618.5,697.7,618.2,697.1z"/>
					<path class="st9" d="M613.9,688c0.2,0.4,0.5,0.9,0.7,1.3C614.4,688.9,614.1,688.4,613.9,688z"/>
					<path class="st9" d="M615,689.9c0.2,0.5,0.5,1,0.7,1.5C615.5,690.9,615.2,690.4,615,689.9z"/>
					<path class="st9" d="M612.8,686c0.3,0.4,0.5,0.9,0.8,1.3C613.3,686.8,613.1,686.4,612.8,686z"/>
					<path class="st9" d="M610.5,682.4c0.3,0.4,0.6,0.8,0.9,1.3C611.1,683.3,610.8,682.8,610.5,682.4z"/>
					<path class="st9" d="M617,694.3c0.3,0.7,0.6,1.4,0.9,2.2C617.6,695.8,617.3,695,617,694.3z"/>
					<path class="st9" d="M611.5,683.9c0.3,0.5,0.7,1.1,1,1.7C612.2,685,611.8,684.5,611.5,683.9z"/>
					<path class="st10" d="M561.9,801.9L561.9,801.9c6.9,8.9,19.2,13,33.3,13c21.6,0,39-9.6,39-31.2s-6-53.1-15.2-84.6l0,0
						c0-0.1-0.1-0.2-0.1-0.4c-0.2-0.6-0.4-1.1-0.7-1.7c0-0.2-0.2-0.5-0.3-0.7c-0.3-0.7-0.6-1.5-0.9-2.2l0,0c-0.3-0.7-0.7-1.5-1-2.2
						c0-0.2-0.2-0.4-0.3-0.6c-0.2-0.5-0.5-1-0.7-1.5c-0.1-0.2-0.2-0.4-0.3-0.7c-0.2-0.4-0.5-0.9-0.7-1.3c-0.1-0.2-0.2-0.4-0.3-0.6
						c-0.3-0.5-0.5-0.9-0.8-1.3c0-0.2-0.2-0.3-0.3-0.5c-0.3-0.6-0.7-1.1-1-1.7c0,0,0-0.1-0.1-0.2c-0.3-0.4-0.6-0.9-0.9-1.3
						c-0.1-0.2-0.2-0.3-0.3-0.5c-0.2-0.3-0.5-0.6-0.7-0.9c-0.1-0.2-0.3-0.3-0.4-0.5c-0.2-0.3-0.5-0.5-0.7-0.8
						c-0.1-0.1-0.2-0.3-0.4-0.4c-0.3-0.3-0.6-0.6-0.9-0.8c0,0-0.1-0.1-0.2-0.2c-0.4-0.3-0.7-0.6-1.1-0.9c0,0-0.2-0.1-0.3-0.2
						c-0.3-0.2-0.5-0.4-0.8-0.5c-0.1,0-0.3-0.1-0.4-0.2c-0.2-0.1-0.5-0.2-0.7-0.3c-0.1,0-0.3-0.1-0.4-0.1c-0.3,0-0.5-0.2-0.8-0.2
						c-0.1,0-0.2,0-0.4,0c-0.4,0-0.8-0.1-1.1-0.1c-19.1,0-35,81.4-38.4,114.8c-0.4,4.2-0.6,7.7-0.6,10.1S562,801.4,561.9,801.9
						L561.9,801.9z"/>
					<path class="st9" d="M1778.6,775.8c0,24.5-19.8,35.4-44.3,35.4s-30.1-4.7-37.9-14.8c0.7,21.7,17.6,32.3,39.1,33.8v-5.9h10.4
						v5.9c22-1.5,39.1-12.5,39.1-35.2s-3-32.8-8-57.8c-4-20.1-9.4-41.3-15.7-57.4C1771.8,715.6,1778.6,761.5,1778.6,775.8
						L1778.6,775.8z"/>
					<path class="st9" d="M1760.4,677.4c0.3,0.6,0.5,1.3,0.8,1.9C1760.9,678.7,1760.7,678,1760.4,677.4z"/>
					<path class="st9" d="M1743.8,653.7c0.3,0.1,0.6,0.2,0.8,0.4C1744.3,654,1744,653.8,1743.8,653.7z"/>
					<path class="st9" d="M1759.1,674.1c0.4,0.8,0.7,1.6,1.1,2.5C1759.9,675.8,1759.5,674.9,1759.1,674.1z"/>
					<path class="st9" d="M1755.6,667c0.3,0.5,0.5,1,0.8,1.5C1756.1,668,1755.9,667.5,1755.6,667z"/>
					<path class="st9" d="M1745.1,654.3c0.3,0.2,0.6,0.4,0.9,0.6C1745.7,654.7,1745.4,654.5,1745.1,654.3z"/>
					<path class="st9" d="M1757.9,671.6c0.4,0.8,0.8,1.6,1.1,2.5C1758.6,673.3,1758.3,672.4,1757.9,671.6z"/>
					<path class="st9" d="M1750.4,659.1c0.3,0.3,0.6,0.7,0.8,1.1C1750.9,659.8,1750.7,659.5,1750.4,659.1z"/>
					<path class="st9" d="M1740.7,653.1c0.4,0,0.9,0,1.3,0.1C1741.6,653.2,1741.1,653.1,1740.7,653.1z"/>
					<path class="st9" d="M1742.4,653.3c0.3,0,0.6,0.1,0.9,0.2C1743,653.5,1742.7,653.3,1742.4,653.3z"/>
					<path class="st9" d="M1751.7,660.6c0.3,0.5,0.7,1,1,1.5C1752.4,661.6,1752,661.1,1751.7,660.6z"/>
					<path class="st9" d="M1752.8,662.3c0.4,0.6,0.8,1.2,1.2,1.9C1753.6,663.5,1753.2,662.9,1752.8,662.3z"/>
					<path class="st9" d="M1746.3,655.1c0.4,0.3,0.8,0.6,1.2,1C1747.1,655.7,1746.7,655.4,1746.3,655.1z"/>
					<path class="st9" d="M1747.8,656.3c0.3,0.3,0.7,0.6,1,0.9C1748.5,656.9,1748.1,656.6,1747.8,656.3z"/>
					<path class="st9" d="M1749.2,657.6c0.3,0.3,0.5,0.6,0.8,0.9C1749.7,658.2,1749.5,657.9,1749.2,657.6z"/>
					<path class="st9" d="M1756.8,669.2c0.3,0.6,0.6,1.1,0.8,1.7C1757.3,670.3,1757.1,669.8,1756.8,669.2z"/>
					<path class="st9" d="M1754.3,664.8c0.3,0.5,0.6,1,0.9,1.5C1754.9,665.8,1754.6,665.3,1754.3,664.8z"/>
					<path class="st10" d="M1696.4,794.9c0,0.5,0,1,0,1.5l0,0c7.8,10.1,21.8,14.8,37.9,14.8c24.5,0,44.3-10.9,44.3-35.4
						s-6.8-60.3-17.3-96l0,0c0-0.1-0.1-0.3-0.2-0.4c-0.3-0.6-0.5-1.3-0.8-1.9c-0.1-0.3-0.2-0.5-0.3-0.8c-0.3-0.8-0.7-1.7-1.1-2.5
						c0,0,0,0,0-0.1c-0.4-0.8-0.7-1.7-1.1-2.5c-0.1-0.2-0.2-0.4-0.3-0.6c-0.3-0.6-0.5-1.1-0.8-1.7c-0.1-0.3-0.3-0.5-0.4-0.8
						c-0.3-0.5-0.5-1-0.8-1.5c-0.1-0.2-0.3-0.5-0.4-0.7c-0.3-0.5-0.6-1-0.9-1.5c-0.1-0.2-0.2-0.4-0.3-0.5c-0.4-0.7-0.8-1.3-1.2-1.9
						c0,0-0.1-0.1-0.2-0.2c-0.3-0.5-0.7-1-1-1.5c-0.1-0.2-0.3-0.3-0.4-0.5c-0.3-0.4-0.5-0.7-0.8-1.1c-0.1-0.2-0.3-0.3-0.4-0.5
						c-0.3-0.3-0.5-0.6-0.8-0.9c-0.1-0.1-0.3-0.3-0.4-0.4c-0.3-0.3-0.7-0.6-1-0.9c0,0-0.2-0.2-0.3-0.2c-0.4-0.4-0.8-0.7-1.2-1
						c-0.1,0-0.2-0.1-0.3-0.2c-0.3-0.2-0.6-0.4-0.9-0.6c-0.1,0-0.3-0.2-0.4-0.2c-0.3-0.1-0.6-0.3-0.8-0.4c-0.2,0-0.3-0.1-0.5-0.2
						c-0.3,0-0.6-0.2-0.9-0.2c-0.1,0-0.3,0-0.4,0c-0.4,0-0.9-0.1-1.3-0.1c-11.3,0-21.7,25.1-29.5,54.6
						c-9.1,34.2-14.8,74.1-14.8,87.3L1696.4,794.9z"/>
					<path class="st9" d="M1498.7,675.9c0.3,0,0.5,0.1,0.8,0.2C1499.2,676.1,1499,675.9,1498.7,675.9z"/>
					<path class="st9" d="M1506.8,682.4c0.3,0.4,0.6,0.8,0.9,1.3C1507.4,683.3,1507.1,682.8,1506.8,682.4z"/>
					<path class="st9" d="M1509.2,686c0.3,0.4,0.5,0.9,0.8,1.3C1509.8,686.8,1509.5,686.4,1509.2,686z"/>
					<path class="st9" d="M1497.2,675.7c0.4,0,0.8,0,1.1,0.1C1497.9,675.8,1497.5,675.7,1497.2,675.7z"/>
					<path class="st9" d="M1502.1,677.5c0.4,0.3,0.7,0.5,1.1,0.9C1502.8,678.1,1502.5,677.8,1502.1,677.5z"/>
					<path class="st9" d="M1503.4,678.5c0.3,0.3,0.6,0.5,0.9,0.8C1504,679,1503.7,678.7,1503.4,678.5z"/>
					<path class="st9" d="M1501,676.8c0.3,0.2,0.5,0.3,0.8,0.5C1501.5,677.1,1501.3,676.9,1501,676.8z"/>
					<path class="st9" d="M1504.6,679.7c0.2,0.3,0.5,0.5,0.7,0.8C1505.1,680.2,1504.8,680,1504.6,679.7z"/>
					<path class="st9" d="M1507.9,683.9c0.3,0.5,0.7,1.1,1,1.7C1508.6,685,1508.2,684.5,1507.9,683.9z"/>
					<path class="st9" d="M1499.9,676.2c0.2,0,0.5,0.2,0.7,0.3C1500.4,676.4,1500.1,676.3,1499.9,676.2z"/>
					<path class="st9" d="M1511.3,689.9c0.2,0.5,0.5,1,0.7,1.5C1511.8,690.9,1511.5,690.4,1511.3,689.9z"/>
					<path class="st9" d="M1512.3,692c0.3,0.7,0.7,1.4,1,2.2C1513,693.5,1512.6,692.7,1512.3,692z"/>
					<path class="st9" d="M1513.3,694.3c0.3,0.7,0.6,1.4,0.9,2.1C1513.9,695.7,1513.6,695,1513.3,694.3z"/>
					<path class="st9" d="M1510.3,688c0.2,0.4,0.5,0.9,0.7,1.3C1510.8,688.9,1510.5,688.4,1510.3,688z"/>
					<path class="st9" d="M1505.7,681c0.2,0.3,0.5,0.6,0.7,0.9C1506.2,681.6,1505.9,681.3,1505.7,681z"/>
					<path class="st9" d="M1514.5,697.1c0.2,0.6,0.4,1.1,0.7,1.7C1515,698.2,1514.8,697.7,1514.5,697.1z"/>
					<path class="st9" d="M1530.6,783.8c0,21.6-17.5,31.2-39,31.2s-26.5-4.1-33.3-13c0.6,19.1,15.5,28.5,34.4,29.7v-5.2h9.1v5.2
						c19.4-1.3,34.5-11,34.5-31s-1.5-19.3-4.1-34.7c-3.7-21.7-9.6-48.1-16.8-66.7C1524.6,730.8,1530.6,771.3,1530.6,783.8
						L1530.6,783.8z"/>
					<path class="st10" d="M1458.2,800.6c0,0.4,0,0.9,0,1.3l0,0c6.9,8.9,19.2,13,33.3,13c21.6,0,39-9.6,39-31.2s-6-53.1-15.2-84.6
						l0,0c0-0.1-0.1-0.2-0.1-0.4c-0.2-0.6-0.4-1.1-0.7-1.7c0-0.2-0.2-0.5-0.3-0.7c-0.3-0.7-0.6-1.4-0.9-2.1c0,0,0,0,0-0.1
						c-0.3-0.7-0.7-1.5-1-2.2c0-0.2-0.2-0.4-0.3-0.6c-0.2-0.5-0.5-1-0.7-1.5c-0.1-0.2-0.2-0.5-0.3-0.7c-0.2-0.4-0.5-0.9-0.7-1.3
						c-0.1-0.2-0.2-0.4-0.3-0.6c-0.2-0.5-0.5-0.9-0.8-1.3c0-0.2-0.2-0.3-0.3-0.5c-0.3-0.6-0.7-1.1-1-1.7c0,0,0-0.1-0.1-0.2
						c-0.3-0.4-0.6-0.9-0.9-1.3c-0.1-0.2-0.2-0.3-0.3-0.5c-0.2-0.3-0.5-0.6-0.7-0.9c-0.1-0.2-0.3-0.3-0.4-0.5
						c-0.2-0.3-0.5-0.5-0.7-0.8c-0.1-0.1-0.2-0.3-0.4-0.4c-0.3-0.3-0.6-0.6-0.9-0.8c0,0-0.1-0.1-0.2-0.2c-0.4-0.3-0.7-0.6-1.1-0.9
						c0,0-0.2-0.1-0.3-0.2c-0.3-0.2-0.5-0.4-0.8-0.5c-0.1,0-0.3-0.1-0.4-0.2c-0.2-0.1-0.5-0.2-0.7-0.3c-0.1,0-0.3-0.1-0.4-0.1
						c-0.3,0-0.5-0.2-0.8-0.2c-0.1,0-0.2,0-0.4,0c-0.4,0-0.8-0.1-1.1-0.1c-17.6,0-32.5,68.9-37.3,105.9
						C1458.9,789.8,1458.3,796.5,1458.2,800.6L1458.2,800.6z"/>
					<path class="st9" d="M99.9,636.1c0.3,0,0.6,0.2,1,0.3C100.6,636.3,100.3,636.2,99.9,636.1z"/>
					<path class="st9" d="M101.3,636.5c0.3,0.1,0.6,0.3,0.9,0.4C101.9,636.7,101.6,636.6,101.3,636.5z"/>
					<path class="st9" d="M102.7,637.2c0.3,0.2,0.7,0.4,1,0.6C103.4,637.6,103,637.4,102.7,637.2z"/>
					<path class="st9" d="M98,635.9c0.5,0,0.9,0,1.4,0.1C98.9,636,98.5,635.9,98,635.9z"/>
					<path class="st9" d="M104.1,638c0.5,0.3,0.9,0.7,1.4,1.1C105.1,638.7,104.6,638.4,104.1,638z"/>
					<path class="st9" d="M105.7,639.4c0.4,0.3,0.7,0.7,1.1,1C106.4,640,106.1,639.7,105.7,639.4z"/>
					<path class="st9" d="M119.5,662.4c0.3,0.7,0.6,1.4,0.8,2.1C120,663.8,119.7,663.1,119.5,662.4z"/>
					<path class="st9" d="M107.2,640.9c0.3,0.3,0.6,0.7,0.9,1C107.8,641.6,107.5,641.2,107.2,640.9z"/>
					<path class="st9" d="M116.7,656c0.4,0.9,0.8,1.8,1.2,2.7C117.5,657.8,117.1,656.9,116.7,656z"/>
					<path class="st9" d="M115.5,653.5c0.3,0.6,0.6,1.2,0.9,1.8C116.1,654.7,115.8,654.1,115.5,653.5z"/>
					<path class="st9" d="M118,658.8c0.4,0.9,0.8,1.8,1.1,2.7C118.7,660.6,118.3,659.7,118,658.8z"/>
					<path class="st9" d="M114.2,651c0.3,0.5,0.6,1.1,0.9,1.6C114.8,652.1,114.5,651.5,114.2,651z"/>
					<path class="st9" d="M108.6,642.4c0.3,0.4,0.6,0.8,0.9,1.1C109.2,643.1,108.9,642.7,108.6,642.4z"/>
					<path class="st9" d="M112.9,648.6c0.3,0.5,0.6,1.1,0.9,1.6C113.5,649.6,113.2,649.1,112.9,648.6z"/>
					<path class="st9" d="M109.9,644.1c0.4,0.5,0.8,1.1,1.1,1.6C110.6,645.1,110.3,644.6,109.9,644.1z"/>
					<path class="st9" d="M111.2,646c0.4,0.7,0.9,1.3,1.3,2.1C112.1,647.4,111.6,646.7,111.2,646z"/>
					<path class="st9" d="M92.4,829.1v-6.4h11.3v6.4c10.1-0.7,19.2-3.2,26.4-7.7c3.7-2.3,6.9-5.1,9.4-8.5c4.4-5.8,6.9-13.2,6.9-22.3
						s-3.8-40.5-10.3-70.6c-4.2-19.6-9.5-39.5-15.6-55.1c11.5,39,18.8,89.2,18.8,104.8c0,26.7-21.6,38.6-48.3,38.6
						s-32.8-5.1-41.3-16.1c0.2,7.4,2.2,13.7,5.6,18.8C62.6,822.2,76.3,827.9,92.4,829.1L92.4,829.1z"/>
					<path class="st10" d="M91,808.4c26.7,0,48.3-11.9,48.3-38.6s-7.4-65.7-18.8-104.8l0,0c0-0.2-0.1-0.3-0.2-0.5
						c-0.3-0.7-0.6-1.4-0.8-2.1c-0.1-0.3-0.2-0.6-0.3-0.9c-0.4-0.9-0.8-1.8-1.1-2.7c0,0,0,0,0-0.1c-0.4-0.9-0.8-1.8-1.2-2.7
						c-0.1-0.2-0.2-0.5-0.3-0.7c-0.3-0.6-0.6-1.2-0.9-1.8c-0.1-0.3-0.3-0.6-0.4-0.8c-0.3-0.5-0.6-1.1-0.9-1.6
						c-0.1-0.3-0.3-0.5-0.4-0.8c-0.3-0.6-0.6-1.1-0.9-1.6c-0.1-0.2-0.2-0.4-0.3-0.6c-0.4-0.7-0.9-1.4-1.3-2.1c0,0-0.1-0.2-0.2-0.2
						c-0.4-0.6-0.7-1.1-1.1-1.6c-0.1-0.2-0.3-0.4-0.4-0.6c-0.3-0.4-0.6-0.8-0.9-1.1c-0.2-0.2-0.3-0.4-0.5-0.6
						c-0.3-0.3-0.6-0.7-0.9-1c-0.1-0.2-0.3-0.3-0.4-0.5c-0.4-0.4-0.7-0.7-1.1-1c0,0-0.2-0.2-0.3-0.3c-0.4-0.4-0.9-0.7-1.4-1.1
						c-0.1,0-0.2-0.2-0.4-0.2c-0.3-0.2-0.7-0.4-1-0.6c-0.2,0-0.3-0.2-0.5-0.2c-0.3-0.2-0.6-0.3-0.9-0.4c-0.2,0-0.3-0.1-0.5-0.2
						c-0.3-0.1-0.6-0.2-1-0.3c-0.1,0-0.3,0-0.4,0c-0.5,0-0.9-0.1-1.4-0.1c-26.7,0-48.3,128.1-48.3,154.8s0,1.1,0,1.6l0,0
						c8.5,11,23.8,16.1,41.3,16.1L91,808.4z"/>
					<path class="st9" d="M719.9,651c0.3,0.5,0.6,1.1,0.8,1.6C720.4,652.1,720.1,651.5,719.9,651z"/>
					<path class="st9" d="M716.8,645.7c-0.2-0.3-0.4-0.5-0.6-0.8s-0.4-0.5-0.6-0.8C716,644.6,716.3,645.1,716.8,645.7L716.8,645.7z"
						/>
					<path class="st9" d="M718.6,648.6c0.3,0.5,0.6,1.1,0.9,1.6C719.2,649.6,718.9,649.1,718.6,648.6z"/>
					<path class="st9" d="M716.9,646c0.4,0.7,0.9,1.3,1.3,2.1C717.8,647.4,717.3,646.7,716.9,646z"/>
					<path class="st9" d="M714.3,642.4c0.3,0.4,0.6,0.8,0.9,1.1C714.9,643.1,714.6,642.7,714.3,642.4z"/>
					<path class="st9" d="M703.7,635.9c0.5,0,0.9,0,1.4,0.1C704.6,636,704.2,635.9,703.7,635.9z"/>
					<path class="st9" d="M721.2,653.5c0.3,0.6,0.6,1.2,0.9,1.9C721.8,654.8,721.5,654.2,721.2,653.5z"/>
					<path class="st9" d="M723.7,658.8c0.4,0.9,0.8,1.8,1.2,2.7C724.5,660.6,724.1,659.7,723.7,658.8z"/>
					<path class="st9" d="M722.4,656c0.4,0.9,0.8,1.8,1.2,2.7C723.2,657.8,722.8,656.9,722.4,656z"/>
					<path class="st9" d="M705.6,636.1c0.3,0,0.6,0.2,1,0.3C706.3,636.3,706,636.2,705.6,636.1z"/>
					<path class="st9" d="M707.1,636.5c0.3,0.1,0.6,0.3,0.9,0.4C707.7,636.7,707.4,636.6,707.1,636.5z"/>
					<path class="st9" d="M708.4,637.2c0.3,0.2,0.7,0.4,1,0.6C709.1,637.6,708.7,637.4,708.4,637.2z"/>
					<path class="st9" d="M709.8,638c0.5,0.3,0.9,0.7,1.4,1.1C710.8,638.7,710.3,638.4,709.8,638z"/>
					<path class="st9" d="M711.4,639.4c0.4,0.3,0.7,0.7,1.1,1C712.1,640,711.8,639.7,711.4,639.4z"/>
					<path class="st9" d="M713,640.9c0.3,0.3,0.6,0.7,0.9,1C713.6,641.6,713.3,641.2,713,640.9z"/>
					<path class="st9" d="M725.2,662.4c0.3,0.7,0.6,1.4,0.8,2.1C725.7,663.8,725.4,663.1,725.2,662.4z"/>
					<path class="st9" d="M698.1,822.7h11.3v6.4c13.4-0.9,25.2-5,32.9-12.9c6.1-6.2,9.8-14.6,9.8-25.6c0-18.6-10.5-86.2-25.8-125.6
						c11.5,39,18.8,89.2,18.8,104.8c0,26.7-21.6,38.6-48.3,38.6s-32.8-5.1-41.3-16.1c0.4,12,5.3,20.8,13,26.9
						c7.6,5.9,18,9.2,29.6,9.9V822.7L698.1,822.7z"/>
					<path class="st10" d="M696.7,808.4c26.7,0,48.3-11.9,48.3-38.6s-7.4-65.7-18.8-104.8l0,0c0-0.2-0.1-0.3-0.2-0.5
						c-0.3-0.7-0.6-1.4-0.8-2.1c-0.1-0.3-0.2-0.6-0.3-0.9c-0.4-0.9-0.8-1.8-1.2-2.7l0,0c-0.4-0.9-0.8-1.8-1.2-2.7
						c-0.1-0.2-0.2-0.5-0.3-0.7c-0.3-0.6-0.6-1.2-0.9-1.9c-0.1-0.2-0.2-0.5-0.4-0.7c0,0,0,0,0-0.1c-0.3-0.5-0.6-1.1-0.8-1.6
						c-0.1-0.3-0.3-0.5-0.4-0.8c-0.3-0.6-0.6-1.1-0.9-1.6c-0.1-0.2-0.2-0.4-0.3-0.6c-0.4-0.7-0.9-1.4-1.3-2.1c0,0-0.1-0.2-0.2-0.3
						c-0.4-0.6-0.7-1.1-1.1-1.6c-0.1-0.2-0.3-0.4-0.4-0.6c-0.3-0.4-0.6-0.8-0.9-1.1c-0.2-0.2-0.3-0.4-0.5-0.6
						c-0.3-0.3-0.6-0.7-0.9-1c-0.2-0.2-0.3-0.3-0.4-0.5c-0.4-0.4-0.7-0.7-1.1-1c0,0-0.2-0.2-0.3-0.3c-0.4-0.4-0.9-0.7-1.4-1.1
						c-0.1,0-0.2-0.2-0.4-0.2c-0.3-0.2-0.7-0.4-1-0.6c-0.2,0-0.3-0.2-0.5-0.2c-0.3-0.2-0.6-0.3-0.9-0.4c-0.2,0-0.3-0.1-0.5-0.2
						c-0.3-0.1-0.6-0.2-1-0.3c-0.1,0-0.3,0-0.4,0c-0.5,0-0.9-0.1-1.4-0.1c-26.7,0-48.3,128.1-48.3,154.8s0,1.1,0,1.6l0,0
						c8.5,11,23.8,16.1,41.3,16.1L696.7,808.4z"/>
					<path class="st9" d="M1429.4,662.4c0.3,0.7,0.6,1.4,0.8,2.1C1429.9,663.8,1429.6,663.1,1429.4,662.4z"/>
					<path class="st9" d="M1427.9,658.8c0.4,0.9,0.8,1.8,1.2,2.7C1428.7,660.6,1428.3,659.7,1427.9,658.8z"/>
					<path class="st9" d="M1421.1,646c0.4,0.7,0.9,1.3,1.3,2.1C1422,647.4,1421.5,646.7,1421.1,646z"/>
					<path class="st9" d="M1412.6,637.2c0.3,0.2,0.7,0.4,1,0.6C1413.3,637.6,1412.9,637.4,1412.6,637.2z"/>
					<path class="st9" d="M1419.8,644.1c0.4,0.5,0.7,1,1.1,1.6C1420.5,645.1,1420.2,644.6,1419.8,644.1z"/>
					<path class="st9" d="M1424.1,651c0.3,0.5,0.6,1.1,0.8,1.6C1424.6,652.1,1424.3,651.5,1424.1,651z"/>
					<path class="st9" d="M1422.7,648.6c0.3,0.5,0.6,1.1,0.9,1.6C1423.3,649.6,1423,649.1,1422.7,648.6z"/>
					<path class="st9" d="M1425.4,653.5c0.3,0.6,0.6,1.2,0.9,1.9C1426,654.8,1425.7,654.2,1425.4,653.5z"/>
					<path class="st9" d="M1426.6,656c0.4,0.9,0.8,1.8,1.2,2.7C1427.4,657.8,1427,656.9,1426.6,656z"/>
					<path class="st9" d="M1409.7,636.1c0.3,0,0.6,0.2,1,0.3C1410.4,636.3,1410.1,636.2,1409.7,636.1z"/>
					<path class="st9" d="M1415.6,639.4c0.4,0.3,0.7,0.7,1.1,1C1416.3,640,1416,639.7,1415.6,639.4z"/>
					<path class="st9" d="M1414,638c0.5,0.3,0.9,0.7,1.4,1.1C1415,638.7,1414.5,638.4,1414,638z"/>
					<path class="st9" d="M1411.2,636.5c0.3,0.1,0.6,0.3,0.9,0.4C1411.8,636.7,1411.5,636.6,1411.2,636.5z"/>
					<path class="st9" d="M1407.9,635.9c0.5,0,0.9,0,1.4,0.1C1408.8,636,1408.4,635.9,1407.9,635.9z"/>
					<path class="st9" d="M1418.5,642.4c0.3,0.4,0.6,0.8,0.9,1.1C1419.1,643.1,1418.8,642.7,1418.5,642.4z"/>
					<path class="st9" d="M1417.1,640.9c0.3,0.3,0.6,0.7,0.9,1C1417.7,641.6,1417.4,641.2,1417.1,640.9z"/>
					<path class="st9" d="M1402.3,829.1v-6.4h11.3v6.4c24-1.6,42.7-13.6,42.7-38.4s0-3.6-0.2-5.9c-1.6-24.2-11.6-83.7-25.6-119.7
						c11.5,39,18.8,89.2,18.8,104.8c0,26.7-21.6,38.6-48.3,38.6s-32.8-5.1-41.3-16.1c0,1.5,0.2,3,0.4,4.4
						c2.8,20.8,20.3,31,42.3,32.5L1402.3,829.1z"/>
					<path class="st10" d="M1400.9,808.4c26.7,0,48.3-11.9,48.3-38.6s-7.4-65.7-18.8-104.8l0,0c0-0.2-0.1-0.3-0.2-0.5
						c-0.3-0.7-0.6-1.4-0.8-2.1c-0.1-0.3-0.2-0.6-0.3-0.9c-0.4-0.9-0.8-1.8-1.2-2.7l0,0c-0.4-0.9-0.8-1.8-1.2-2.7
						c-0.1-0.2-0.2-0.5-0.3-0.7c-0.3-0.6-0.6-1.2-0.9-1.9c-0.1-0.3-0.3-0.6-0.4-0.8c-0.3-0.5-0.6-1.1-0.8-1.6
						c-0.1-0.3-0.3-0.5-0.4-0.8c-0.3-0.6-0.6-1.1-0.9-1.6c-0.1-0.2-0.2-0.4-0.3-0.6c-0.4-0.7-0.9-1.4-1.3-2.1c0,0-0.1-0.2-0.2-0.3
						c-0.4-0.6-0.7-1.1-1.1-1.6c-0.1-0.2-0.3-0.4-0.4-0.6c-0.3-0.4-0.6-0.8-0.9-1.1c-0.2-0.2-0.3-0.4-0.5-0.6
						c-0.3-0.3-0.6-0.7-0.9-1c-0.2-0.2-0.3-0.3-0.5-0.5c-0.4-0.4-0.7-0.7-1.1-1c0,0-0.2-0.2-0.3-0.3c-0.4-0.4-0.9-0.7-1.4-1.1
						c-0.1,0-0.2-0.2-0.4-0.2c-0.3-0.2-0.7-0.4-1-0.6c-0.2,0-0.3-0.2-0.5-0.2c-0.3-0.2-0.6-0.3-0.9-0.4c-0.2,0-0.3-0.1-0.5-0.2
						c-0.3-0.1-0.6-0.2-1-0.3c-0.1,0-0.3,0-0.4,0c-0.5,0-0.9-0.1-1.4-0.1c-26.7,0-48.3,128.1-48.3,154.8s0,1.1,0,1.6l0,0
						C1368.2,803.3,1383.5,808.4,1400.9,808.4L1400.9,808.4z"/>
					<path class="st9" d="M1156.5,814.2c-1.3,7.6-5.8,12.8-12.1,16c2.7,0.6,5.5,1,8.5,1.2v-5.3h9.3v5.3
						c19.8-1.3,35.1-11.2,35.1-31.6s-0.3-7.4-0.9-13c-2.6-23-10.1-64.3-20.3-90.5c9.4,32.1,15.5,73.4,15.5,86.2
						c0,20.4-15.3,30.3-35,31.6L1156.5,814.2z"/>
					<path class="st9" d="M1159,672.6c0.3,0,0.5,0.1,0.8,0.2C1159.5,672.8,1159.3,672.6,1159,672.6z"/>
					<path class="st9" d="M1168.3,680.7c0.4,0.5,0.7,1.1,1.1,1.7C1169,681.8,1168.7,681.2,1168.3,680.7z"/>
					<path class="st9" d="M1170.8,684.9c0.2,0.4,0.5,0.9,0.7,1.3C1171.3,685.7,1171,685.3,1170.8,684.9z"/>
					<path class="st9" d="M1169.7,682.9c0.3,0.4,0.5,0.9,0.8,1.3C1170.2,683.7,1170,683.3,1169.7,682.9z"/>
					<path class="st9" d="M1171.9,686.9c0.2,0.5,0.5,1,0.7,1.5C1172.4,687.9,1172.1,687.4,1171.9,686.9z"/>
					<path class="st9" d="M1175.2,694.2c0.2,0.6,0.5,1.1,0.7,1.7C1175.7,695.3,1175.4,694.7,1175.2,694.2z"/>
					<path class="st9" d="M1172.9,689c0.3,0.7,0.7,1.5,1,2.2C1173.6,690.4,1173.2,689.7,1172.9,689z"/>
					<path class="st9" d="M1173.9,691.3c0.3,0.7,0.6,1.5,0.9,2.2C1174.5,692.7,1174.2,692,1173.9,691.3z"/>
					<path class="st9" d="M1167.3,679.2c0.3,0.4,0.6,0.9,0.9,1.3C1167.9,680,1167.6,679.6,1167.3,679.2z"/>
					<path class="st9" d="M1157.5,672.4c0.4,0,0.8,0,1.2,0.1C1158.3,672.5,1157.9,672.4,1157.5,672.4z"/>
					<path class="st9" d="M1160.2,672.9c0.3,0,0.5,0.2,0.8,0.3C1160.8,673.1,1160.5,673,1160.2,672.9z"/>
					<path class="st9" d="M1162.5,674.2c0.4,0.3,0.7,0.6,1.1,0.9C1163.2,674.8,1162.9,674.5,1162.5,674.2z"/>
					<path class="st9" d="M1161.4,673.5c0.3,0.2,0.6,0.3,0.8,0.5C1161.9,673.8,1161.6,673.6,1161.4,673.5z"/>
					<path class="st9" d="M1166.2,677.8c0.2,0.3,0.5,0.6,0.7,0.9C1166.7,678.4,1166.4,678.1,1166.2,677.8z"/>
					<path class="st9" d="M1165.1,676.5c0.2,0.3,0.5,0.5,0.7,0.8C1165.6,677,1165.3,676.7,1165.1,676.5z"/>
					<path class="st9" d="M1163.8,675.3c0.3,0.3,0.6,0.5,0.9,0.8C1164.4,675.8,1164.1,675.5,1163.8,675.3z"/>
					<path class="st10" d="M1133.5,715.9c0,0.1,0.2,0.2,0.3,0.4c0.2,0.3,0.5,0.7,0.7,1c0,0,0,0.1,0.1,0.2c0.3,0.4,0.5,0.9,0.8,1.3
						c0,0.1,0.1,0.2,0.2,0.4c0.2,0.3,0.4,0.7,0.6,1c0,0.2,0.2,0.3,0.3,0.5c0.2,0.3,0.4,0.7,0.5,1c0,0.2,0.2,0.4,0.3,0.5
						c0.2,0.4,0.4,0.8,0.6,1.2c0,0.1,0.1,0.3,0.2,0.4c0.3,0.6,0.5,1.1,0.8,1.7l0,0c0.2,0.6,0.5,1.1,0.7,1.7c0,0.2,0.1,0.4,0.2,0.5
						c0.2,0.4,0.4,0.9,0.5,1.3c0,0,0,0.2,0.1,0.3l0,0c9.8,25.1,16.4,68.1,16.4,80s-0.2,3.2-0.4,4.7c19.7-1.4,35-11.3,35-31.6
						s-6.1-54.1-15.5-86.2l0,0c0-0.1-0.1-0.2-0.1-0.4c-0.2-0.6-0.5-1.2-0.7-1.7c0-0.2-0.2-0.5-0.3-0.7c-0.3-0.8-0.6-1.5-0.9-2.2l0,0
						c-0.3-0.8-0.7-1.5-1-2.2c0-0.2-0.2-0.4-0.3-0.6c-0.2-0.5-0.5-1-0.7-1.5c-0.1-0.2-0.2-0.5-0.3-0.7c-0.2-0.5-0.5-0.9-0.7-1.3
						c-0.1-0.2-0.2-0.4-0.3-0.6c-0.3-0.5-0.5-0.9-0.8-1.3c0-0.2-0.2-0.3-0.3-0.5c-0.4-0.6-0.7-1.2-1.1-1.7c0,0,0-0.1-0.1-0.2
						c-0.3-0.5-0.6-0.9-0.9-1.3c-0.1-0.2-0.2-0.3-0.3-0.5c-0.2-0.3-0.5-0.6-0.7-0.9c-0.1-0.2-0.3-0.3-0.4-0.5
						c-0.2-0.3-0.5-0.6-0.7-0.8c-0.1-0.1-0.2-0.3-0.4-0.4c-0.3-0.3-0.6-0.6-0.9-0.8c0,0-0.1-0.1-0.2-0.2c-0.4-0.3-0.7-0.6-1.1-0.9
						c0,0-0.2-0.1-0.3-0.2c-0.3-0.2-0.6-0.4-0.8-0.5c-0.1,0-0.3-0.1-0.4-0.2c-0.2-0.1-0.5-0.2-0.8-0.3c-0.1,0-0.3-0.1-0.4-0.2
						c-0.3,0-0.5-0.2-0.8-0.2c-0.1,0-0.2,0-0.4,0c-0.4,0-0.8-0.1-1.2-0.1c-9.3,0-17.9,19-24.7,42.6c0,0,0,0.1,0.1,0.2
						c0.2,0.2,0.4,0.5,0.6,0.7L1133.5,715.9z"/>
					<path class="st9" d="M1129.1,711.8c0.2,0.1,0.4,0.3,0.6,0.4C1129.5,712.1,1129.3,711.9,1129.1,711.8z"/>
					<path class="st9" d="M1127.3,711.1c0.2,0,0.4,0,0.6,0.2C1127.7,711.3,1127.5,711.2,1127.3,711.1z"/>
					<path class="st9" d="M1128.3,711.4c0.2,0,0.4,0.2,0.6,0.3C1128.7,711.7,1128.5,711.5,1128.3,711.4z"/>
					<path class="st9" d="M1132,714.2c0.2,0.2,0.4,0.4,0.6,0.6C1132.4,714.6,1132.2,714.4,1132,714.2z"/>
					<path class="st9" d="M1130,712.4c0.3,0.2,0.6,0.4,0.9,0.7C1130.6,712.9,1130.3,712.6,1130,712.4z"/>
					<path class="st9" d="M1126.2,711c0.3,0,0.6,0,0.9,0C1126.8,711,1126.5,711,1126.2,711z"/>
					<path class="st9" d="M1131,713.2c0.2,0.2,0.5,0.4,0.7,0.6C1131.5,713.6,1131.2,713.4,1131,713.2z"/>
					<path class="st9" d="M1129.7,829.9v4.1c5.4-0.4,10.4-1.6,14.6-3.7c6.4-3.2,10.8-8.5,12.1-16c0.3-1.5,0.4-3.1,0.4-4.7
						c0-11.8-6.7-54.9-16.4-80c7.3,24.8,12,56.7,12,66.7c0,17-13.8,24.6-30.8,24.6s-20.8-3.2-26.3-10.2c0.5,15,12.2,22.4,27.1,23.4
						V830h7.2L1129.7,829.9z"/>
					<path class="st9" d="M1134.4,717.3c-0.2-0.4-0.5-0.7-0.7-1C1133.9,716.6,1134.2,717,1134.4,717.3z"/>
					<path class="st9" d="M1135.4,718.7c-0.3-0.5-0.5-0.9-0.8-1.3C1134.9,717.8,1135.1,718.3,1135.4,718.7z"/>
					<path class="st9" d="M1137,721.7c-0.2-0.3-0.4-0.7-0.5-1C1136.7,721,1136.9,721.4,1137,721.7z"/>
					<path class="st9" d="M1140.3,729.2c-0.2-0.4-0.4-0.9-0.5-1.3C1140,728.3,1140.2,728.8,1140.3,729.2z"/>
					<path class="st9" d="M1133.5,715.9c-0.2-0.3-0.4-0.5-0.6-0.7C1133.1,715.4,1133.3,715.7,1133.5,715.9z"/>
					<path class="st9" d="M1136.2,720.2c-0.2-0.4-0.4-0.7-0.6-1C1135.8,719.5,1136,719.9,1136.2,720.2z"/>
					<path class="st9" d="M1139.6,727.3c-0.2-0.6-0.5-1.1-0.7-1.7C1139.1,726.2,1139.4,726.7,1139.6,727.3z"/>
					<path class="st9" d="M1138.8,725.5c-0.3-0.6-0.5-1.2-0.8-1.7C1138.3,724.4,1138.5,724.9,1138.8,725.5z"/>
					<path class="st9" d="M1137.8,723.4c-0.2-0.4-0.4-0.8-0.6-1.2C1137.4,722.6,1137.6,723,1137.8,723.4z"/>
					<path class="st10" d="M1095.4,809.5c0,0.3,0,0.7,0,1l0,0c5.4,7,15.1,10.2,26.3,10.2c17,0,30.8-7.6,30.8-24.6s-4.7-41.8-12-66.7
						l0,0c0-0.1,0-0.2-0.1-0.3c-0.2-0.4-0.4-0.9-0.5-1.3c0-0.2-0.1-0.4-0.2-0.5c-0.2-0.6-0.5-1.1-0.7-1.7l0,0
						c-0.3-0.6-0.5-1.2-0.8-1.7c0-0.2-0.1-0.3-0.2-0.4c-0.2-0.4-0.4-0.8-0.6-1.2c0-0.2-0.2-0.4-0.3-0.5c-0.2-0.3-0.4-0.7-0.5-1
						c0-0.2-0.2-0.3-0.3-0.5c-0.2-0.4-0.4-0.7-0.6-1c0-0.1-0.1-0.3-0.2-0.4c-0.3-0.5-0.5-0.9-0.8-1.3c0,0,0-0.1-0.1-0.2
						c-0.2-0.4-0.5-0.7-0.7-1c0-0.1-0.2-0.2-0.3-0.4c-0.2-0.3-0.4-0.5-0.6-0.7c0,0,0-0.1-0.1-0.2c0,0-0.1-0.1-0.2-0.2
						c-0.2-0.2-0.4-0.4-0.6-0.6c0-0.1-0.2-0.2-0.3-0.3c-0.2-0.2-0.5-0.4-0.7-0.6c0,0-0.1-0.1-0.2-0.2c-0.3-0.2-0.6-0.5-0.9-0.7
						c0,0-0.2,0-0.2-0.1c-0.2-0.1-0.4-0.3-0.6-0.4c-0.1,0-0.2-0.1-0.3-0.2c-0.2,0-0.4-0.2-0.6-0.3c-0.1,0-0.2,0-0.3-0.1
						c-0.2,0-0.4-0.1-0.6-0.2c0,0-0.2,0-0.3,0c-0.3,0-0.6,0-0.9,0c-11.7,0-21.9,38.6-27.1,68.2c-2.4,13.4-3.7,25-3.7,30.3
						L1095.4,809.5z"/>
					<polygon class="st11" points="413.5,811.6 413.5,794.6 409.3,794.6 409.3,836.7 420.9,836.7 420.9,794.6 417.3,794.6 
						417.3,811.6 					"/>
					<path class="st11" d="M413.5,794.6v17h3.8v-75.2c-0.6,0.2-1.2,0.3-1.9,0.3s-1.3-0.1-1.9-0.3v58.3L413.5,794.6z"/>
					<path class="st11" d="M417.3,736.4c3.1-0.8,5.5-3.7,5.5-7.1s-0.5-3.1-1.4-4.3l-5.8,1.5l0,0l0,0l0,0l0,0l-5.9-1.6
						c-0.9,1.2-1.4,2.7-1.4,4.3c0,3.4,2.3,6.3,5.5,7.1c0.6,0.2,1.2,0.3,1.9,0.3s1.3-0.1,1.9-0.3L417.3,736.4z"/>
					<polygon class="st11" points="415.4,674 415.4,674.2 415.5,674.1 					"/>
					<polygon class="st11" points="415.4,726.5 415.5,726.5 415.4,726.5 					"/>
					<path class="st11" d="M415.6,726.5l5.8-1.5l7.2-1.9l5.2-30.9l-18.3-18L415.6,726.5L415.6,726.5z M419.1,695.9l10.9-2.3
						l-3.9,25.5l-7,1.9V695.9L419.1,695.9z"/>
					<path class="st11" d="M415.5,726.5L415.5,726.5L415.5,726.5v-52.3l0,0c0-0.1,0,0,0,0l0,0l-18.3,18.1l5.2,30.9l7.1,1.9l5.9,1.6
						l0,0L415.5,726.5z M401.1,693.6l10.9,2.3V721l-7-1.9L401.1,693.6z"/>
					<polygon class="st11" points="882.4,811.6 882.4,794.6 878.2,794.6 878.2,836.7 889.8,836.7 889.8,794.6 886.2,794.6 
						886.2,811.6 					"/>
					<path class="st11" d="M882.4,794.6v17h3.8v-75.2c-0.6,0.2-1.2,0.3-1.9,0.3s-1.3-0.1-1.9-0.3v58.3V794.6z"/>
					<path class="st11" d="M886.2,736.4c3.1-0.8,5.5-3.7,5.5-7.1s-0.5-3.1-1.4-4.3l-5.8,1.5l0,0l0,0l0,0l0,0l-5.9-1.6
						c-0.9,1.2-1.4,2.7-1.4,4.3c0,3.4,2.3,6.3,5.5,7.1c0.6,0.2,1.2,0.3,1.9,0.3s1.3-0.1,1.9-0.3L886.2,736.4z"/>
					<polygon class="st11" points="884.3,674 884.3,674.2 884.4,674.1 					"/>
					<polygon class="st11" points="884.3,726.5 884.4,726.5 884.3,726.5 					"/>
					<path class="st11" d="M884.5,726.5l5.8-1.5l7.2-1.9l5.2-30.9l-18.3-18v52.3H884.5z M888,695.9l10.9-2.3l-3.9,25.5l-7,1.9V695.9
						L888,695.9z"/>
					<path class="st11" d="M884.4,726.5L884.4,726.5L884.4,726.5v-52.3l0,0c0-0.1,0,0,0,0l0,0l-18.3,18.1l5.2,30.9l7.1,1.9l5.9,1.6
						l0,0L884.4,726.5z M870,693.6l10.9,2.3V721l-7-1.9L870,693.6z"/>
					<polygon class="st11" points="1347.1,836.7 1358.7,836.7 1358.7,796.3 1358.7,794.6 1355.1,794.6 1355.1,811.6 1351.3,811.6 
						1351.3,794.6 1347.1,794.6 1347.1,795.2 					"/>
					<path class="st11" d="M1351.3,811.6h3.8v-75.2c-0.6,0.2-1.2,0.3-1.9,0.3s-1.3-0.1-1.9-0.3V811.6z"/>
					<path class="st11" d="M1355.1,736.4c3.1-0.8,5.5-3.7,5.5-7.1s-0.5-3.1-1.4-4.3l-5.8,1.5l0,0l0,0l0,0l0,0l-5.9-1.6
						c-0.9,1.2-1.4,2.7-1.4,4.3c0,3.4,2.3,6.3,5.5,7.1c0.6,0.2,1.2,0.3,1.9,0.3s1.3-0.1,1.9-0.3L1355.1,736.4z"/>
					<polygon class="st11" points="1353.2,674 1353.2,674.2 1353.3,674.1 					"/>
					<path class="st11" d="M1353.4,726.5l5.8-1.5l7.2-1.9l5.2-30.9l-18.3-18v52.3H1353.4z M1356.9,695.9l10.9-2.3l-3.9,25.5l-7,1.9
						V695.9L1356.9,695.9z"/>
					<polygon class="st11" points="1353.2,726.5 1353.3,726.5 1353.2,726.5 					"/>
					<path class="st11" d="M1353.3,726.5L1353.3,726.5L1353.3,726.5v-52.3l0,0c0-0.1,0,0,0,0l0,0l-18.3,18.1l5.2,30.9l7.1,1.9
						l5.9,1.6l0,0L1353.3,726.5z M1338.9,693.6l10.9,2.3V721l-7-1.9L1338.9,693.6z"/>
					<polygon class="st11" points="1827.6,794.6 1824,794.6 1824,811.6 1820.2,811.6 1820.2,794.6 1816,794.6 1816,836.7 
						1827.6,836.7 					"/>
					<path class="st11" d="M1820.2,794.6v17h3.8v-75.2c-0.6,0.2-1.2,0.3-1.9,0.3s-1.3-0.1-1.9-0.3v58.3L1820.2,794.6z"/>
					<path class="st11" d="M1824,736.4c3.1-0.8,5.5-3.7,5.5-7.1s-0.5-3.1-1.4-4.3l-5.8,1.5l0,0l0,0l0,0l0,0l-5.9-1.6
						c-0.9,1.2-1.4,2.7-1.4,4.3c0,3.4,2.3,6.3,5.5,7.1c0.6,0.2,1.2,0.3,1.9,0.3s1.3-0.1,1.9-0.3L1824,736.4z"/>
					<path class="st11" d="M1822.2,726.5l5.8-1.5l7.2-1.9l5.2-30.9l-18.3-18v52.3H1822.2z M1836.6,693.6l-3.9,25.5l-7,1.9v-25.1
						L1836.6,693.6L1836.6,693.6z"/>
					<polygon class="st11" points="1822.1,674 1822.1,674.2 1822.2,674.1 					"/>
					<polygon class="st11" points="1822.1,726.5 1822.2,726.5 1822.1,726.5 					"/>
					<path class="st11" d="M1822.2,726.5L1822.2,726.5L1822.2,726.5v-52.3l0,0c0-0.1,0,0,0,0l0,0l-18.3,18.1l5.2,30.9l7.1,1.9
						l5.9,1.6l0,0L1822.2,726.5z M1807.8,693.6l10.9,2.3V721l-7-1.9L1807.8,693.6z"/>
					<path class="st12" d="M438,794.6v4.3h2.6v1.8c-3.7,0.1-6.8,3.2-6.8,6.9s3,6.8,6.8,6.9v23.6h-4.2v3.9h28v-3.9h-4.2v-23.6
						c3.7-0.1,6.8-3.2,6.8-6.9s-0.7-3.6-2-4.8c-1.2-1.3-2.9-2.1-4.8-2.1v-1.8h2.6v-4.3H438L438,794.6z"/>
					<path class="st12" d="M1240.8,800.8V799h2.6v-4.3h-24.7v4.3h2.6v1.8c-3.7,0.1-6.8,3.2-6.8,6.9s3,6.8,6.8,6.9v23.6h-4.2v3.9h28
						v-3.9h-4.2v-23.6c3.7-0.1,6.8-3.2,6.8-6.9s-3-6.8-6.8-6.9H1240.8z"/>
				</g>
				<rect x="301.3" y="-267.8" class="st13" width="1258.1" height="1258.1"/>
			</g>
		</g>
	</g>
</g>
</svg>
